<?xml version="1.0" encoding="UTF-8"?>
<svg xmlns="http://www.w3.org/2000/svg" viewBox="0 0 960 640" width="960" height="640">
<style>
text { font-family: -apple-system, BlinkMacSystemFont, 'Segoe UI', sans-serif; fill: #0f172a; }
.title { font-size: 30px; font-weight: 700; }
.subtitle { font-size: 15px; fill: #475569; }
.axis { stroke: #0f172a; stroke-width: 2.5; }
.grid { stroke: #cbd5e1; stroke-width: 1; }
.tick { font-size: 13px; fill: #475569; }
.label { font-size: 16px; font-weight: 600; }
.line { stroke: #0f766e; stroke-width: 4; fill: none; stroke-dasharray: 14 12; }
.shade { fill: rgba(15,118,110,0.16); }
.box { fill: #ffffff; stroke: #94a3b8; stroke-width: 2; rx: 18; }
.note { font-size: 15px; fill: #334155; }
</style>
<rect x="0" y="0" width="960" height="640" fill="#f8fafc"/>
<rect class="box" x="20" y="20" width="920" height="600"/>
<text class="title" x="44" y="62">AA10 Graphing Inequalities</text>
<text class="subtitle" x="44" y="88">Generated solution sketch for y &gt; 2x + 5</text>
<polygon class="shade" points="90,55 910,55 910,76.45833333333337 90,591.4583333333334"/>
<line class="grid" x1="90" y1="570" x2="90" y2="55"/><text class="tick" x="90" y="463.25" text-anchor="middle">-6</text><line class="grid" x1="158.33333333333331" y1="570" x2="158.33333333333331" y2="55"/><text class="tick" x="158.33333333333331" y="463.25" text-anchor="middle">-5</text><line class="grid" x1="226.66666666666666" y1="570" x2="226.66666666666666" y2="55"/><text class="tick" x="226.66666666666666" y="463.25" text-anchor="middle">-4</text><line class="grid" x1="295" y1="570" x2="295" y2="55"/><text class="tick" x="295" y="463.25" text-anchor="middle">-3</text><line class="grid" x1="363.3333333333333" y1="570" x2="363.3333333333333" y2="55"/><text class="tick" x="363.3333333333333" y="463.25" text-anchor="middle">-2</text><line class="grid" x1="431.66666666666663" y1="570" x2="431.66666666666663" y2="55"/><text class="tick" x="431.66666666666663" y="463.25" text-anchor="middle">-1</text><line class="grid" x1="500" y1="570" x2="500" y2="55"/><line class="grid" x1="568.3333333333333" y1="570" x2="568.3333333333333" y2="55"/><text class="tick" x="568.3333333333333" y="463.25" text-anchor="middle">1</text><line class="grid" x1="636.6666666666666" y1="570" x2="636.6666666666666" y2="55"/><text class="tick" x="636.6666666666666" y="463.25" text-anchor="middle">2</text><line class="grid" x1="705" y1="570" x2="705" y2="55"/><text class="tick" x="705" y="463.25" text-anchor="middle">3</text><line class="grid" x1="773.3333333333333" y1="570" x2="773.3333333333333" y2="55"/><text class="tick" x="773.3333333333333" y="463.25" text-anchor="middle">4</text><line class="grid" x1="841.6666666666666" y1="570" x2="841.6666666666666" y2="55"/><text class="tick" x="841.6666666666666" y="463.25" text-anchor="middle">5</text><line class="grid" x1="910" y1="570" x2="910" y2="55"/><text class="tick" x="910" y="463.25" text-anchor="middle">6</text>
<line class="grid" x1="90" y1="570" x2="910" y2="570"/><text class="tick" x="484" y="575" text-anchor="end">-6</text><line class="grid" x1="90" y1="548.5416666666666" x2="910" y2="548.5416666666666"/><text class="tick" x="484" y="553.5416666666666" text-anchor="end">-5</text><line class="grid" x1="90" y1="527.0833333333334" x2="910" y2="527.0833333333334"/><text class="tick" x="484" y="532.0833333333334" text-anchor="end">-4</text><line class="grid" x1="90" y1="505.625" x2="910" y2="505.625"/><text class="tick" x="484" y="510.625" text-anchor="end">-3</text><line class="grid" x1="90" y1="484.1666666666667" x2="910" y2="484.1666666666667"/><text class="tick" x="484" y="489.1666666666667" text-anchor="end">-2</text><line class="grid" x1="90" y1="462.70833333333337" x2="910" y2="462.70833333333337"/><text class="tick" x="484" y="467.70833333333337" text-anchor="end">-1</text><line class="grid" x1="90" y1="441.25" x2="910" y2="441.25"/><line class="grid" x1="90" y1="419.7916666666667" x2="910" y2="419.7916666666667"/><text class="tick" x="484" y="424.7916666666667" text-anchor="end">1</text><line class="grid" x1="90" y1="398.33333333333337" x2="910" y2="398.33333333333337"/><text class="tick" x="484" y="403.33333333333337" text-anchor="end">2</text><line class="grid" x1="90" y1="376.875" x2="910" y2="376.875"/><text class="tick" x="484" y="381.875" text-anchor="end">3</text><line class="grid" x1="90" y1="355.4166666666667" x2="910" y2="355.4166666666667"/><text class="tick" x="484" y="360.4166666666667" text-anchor="end">4</text><line class="grid" x1="90" y1="333.95833333333337" x2="910" y2="333.95833333333337"/><text class="tick" x="484" y="338.95833333333337" text-anchor="end">5</text><line class="grid" x1="90" y1="312.5" x2="910" y2="312.5"/><text class="tick" x="484" y="317.5" text-anchor="end">6</text><line class="grid" x1="90" y1="291.0416666666667" x2="910" y2="291.0416666666667"/><text class="tick" x="484" y="296.0416666666667" text-anchor="end">7</text><line class="grid" x1="90" y1="269.58333333333337" x2="910" y2="269.58333333333337"/><text class="tick" x="484" y="274.58333333333337" text-anchor="end">8</text><line class="grid" x1="90" y1="248.125" x2="910" y2="248.125"/><text class="tick" x="484" y="253.125" text-anchor="end">9</text><line class="grid" x1="90" y1="226.66666666666669" x2="910" y2="226.66666666666669"/><text class="tick" x="484" y="231.66666666666669" text-anchor="end">10</text><line class="grid" x1="90" y1="205.20833333333337" x2="910" y2="205.20833333333337"/><text class="tick" x="484" y="210.20833333333337" text-anchor="end">11</text><line class="grid" x1="90" y1="183.75" x2="910" y2="183.75"/><text class="tick" x="484" y="188.75" text-anchor="end">12</text><line class="grid" x1="90" y1="162.29166666666669" x2="910" y2="162.29166666666669"/><text class="tick" x="484" y="167.29166666666669" text-anchor="end">13</text><line class="grid" x1="90" y1="140.83333333333337" x2="910" y2="140.83333333333337"/><text class="tick" x="484" y="145.83333333333337" text-anchor="end">14</text><line class="grid" x1="90" y1="119.375" x2="910" y2="119.375"/><text class="tick" x="484" y="124.375" text-anchor="end">15</text><line class="grid" x1="90" y1="97.91666666666669" x2="910" y2="97.91666666666669"/><text class="tick" x="484" y="102.91666666666669" text-anchor="end">16</text><line class="grid" x1="90" y1="76.45833333333337" x2="910" y2="76.45833333333337"/><text class="tick" x="484" y="81.45833333333337" text-anchor="end">17</text><line class="grid" x1="90" y1="55" x2="910" y2="55"/><text class="tick" x="484" y="60" text-anchor="end">18</text>
<line class="axis" x1="90" y1="441.25" x2="910" y2="441.25"/>
<line class="axis" x1="500" y1="570" x2="500" y2="55"/>
<text class="tick" x="488" y="463.25" text-anchor="end">0</text>
<text class="label" x="512" y="73">y</text>
<polyline class="line" points="90,591.4583333333334 93.41666666666666,589.3125 96.83333333333331,587.1666666666666 100.25000000000003,585.0208333333334 103.66666666666669,582.875 107.08333333333333,580.7291666666666 110.49999999999999,578.5833333333334 113.91666666666664,576.4375 117.33333333333336,574.2916666666666 120.75000000000001,572.1458333333334 124.16666666666666,570 127.58333333333331,567.8541666666666 130.99999999999997,565.7083333333334 134.41666666666669,563.5625 137.83333333333334,561.4166666666666 141.25,559.2708333333334 144.66666666666666,557.125 148.08333333333331,554.9791666666666 151.50000000000003,552.8333333333334 154.91666666666669,550.6875 158.33333333333331,548.5416666666666 161.75,546.3958333333334 165.16666666666663,544.25 168.58333333333337,542.1041666666666 172,539.9583333333334 175.41666666666666,537.8125 178.83333333333331,535.6666666666666 182.24999999999997,533.5208333333334 185.66666666666669,531.375 189.08333333333334,529.2291666666666 192.5,527.0833333333334 195.91666666666663,524.9375 199.33333333333331,522.7916666666667 202.75,520.6458333333334 206.16666666666669,518.5 209.58333333333331,516.3541666666666 213,514.2083333333334 216.41666666666663,512.0625 219.83333333333334,509.91666666666663 223.25,507.7708333333333 226.66666666666666,505.625 230.08333333333331,503.4791666666667 233.5,501.3333333333333 236.91666666666666,499.1875 240.33333333333334,497.04166666666663 243.75,494.89583333333337 247.16666666666666,492.75 250.58333333333331,490.6041666666667 253.99999999999997,488.45833333333337 257.41666666666663,486.3125 260.8333333333333,484.1666666666667 264.25,482.02083333333337 267.66666666666663,479.875 271.0833333333333,477.7291666666667 274.5,475.5833333333333 277.91666666666663,473.4375 281.3333333333333,471.2916666666667 284.75,469.1458333333333 288.16666666666663,467 291.58333333333337,464.8541666666667 295,462.70833333333337 298.41666666666663,460.5625 301.8333333333333,458.4166666666667 305.25,456.27083333333337 308.66666666666663,454.125 312.0833333333333,451.9791666666667 315.5,449.83333333333337 318.91666666666663,447.6875 322.3333333333333,445.5416666666667 325.75,443.3958333333333 329.16666666666663,441.25 332.5833333333333,439.1041666666667 336,436.95833333333337 339.41666666666663,434.8125 342.8333333333333,432.66666666666663 346.25,430.52083333333337 349.66666666666663,428.375 353.0833333333333,426.22916666666663 356.5,424.08333333333337 359.9166666666667,421.9375 363.3333333333333,419.7916666666667 366.74999999999994,417.64583333333337 370.16666666666663,415.5 373.5833333333333,413.35416666666663 377,411.20833333333337 380.41666666666663,409.0625 383.8333333333333,406.9166666666667 387.24999999999994,404.77083333333337 390.6666666666667,402.625 394.0833333333333,400.47916666666663 397.5,398.33333333333337 400.91666666666663,396.1875 404.3333333333333,394.0416666666667 407.75,391.8958333333333 411.16666666666663,389.75 414.5833333333333,387.6041666666667 417.99999999999994,385.45833333333337 421.41666666666663,383.3125 424.8333333333333,381.16666666666663 428.25,379.02083333333337 431.66666666666663,376.875 435.0833333333333,374.7291666666667 438.49999999999994,372.58333333333337 441.9166666666667,370.4375 445.3333333333333,368.29166666666663 448.75,366.14583333333337 452.16666666666663,364 455.58333333333326,361.8541666666667 459,359.70833333333337 462.41666666666663,357.5625 465.8333333333333,355.4166666666667 469.24999999999994,353.27083333333337 472.66666666666663,351.125 476.0833333333333,348.97916666666663 479.5,346.83333333333337 482.91666666666663,344.6875 486.3333333333333,342.5416666666667 489.74999999999994,340.39583333333337 493.1666666666667,338.25 496.5833333333333,336.1041666666667 500,333.95833333333337 503.41666666666663,331.8125 506.83333333333326,329.6666666666667 510.25,327.52083333333337 513.6666666666666,325.375 517.0833333333333,323.2291666666667 520.5,321.08333333333337 523.9166666666666,318.9375 527.3333333333333,316.79166666666663 530.75,314.64583333333337 534.1666666666666,312.5 537.5833333333333,310.3541666666667 541,308.20833333333337 544.4166666666667,306.0625 547.8333333333333,303.9166666666667 551.25,301.77083333333337 554.6666666666666,299.625 558.0833333333333,297.4791666666667 561.5,295.3333333333333 564.9166666666666,293.1875 568.3333333333333,291.0416666666667 571.75,288.89583333333337 575.1666666666666,286.75000000000006 578.5833333333333,284.6041666666667 582,282.4583333333333 585.4166666666666,280.3125 588.8333333333333,278.1666666666667 592.25,276.02083333333337 595.6666666666666,273.875 599.0833333333333,271.7291666666667 602.5,269.58333333333337 605.9166666666666,267.4375 609.3333333333333,265.2916666666667 612.75,263.1458333333333 616.1666666666666,261 619.5833333333333,258.8541666666667 623,256.70833333333337 626.4166666666666,254.56250000000006 629.8333333333334,252.41666666666669 633.25,250.27083333333337 636.6666666666666,248.125 640.0833333333334,245.97916666666663 643.4999999999999,243.83333333333337 646.9166666666666,241.6875 650.3333333333333,239.54166666666674 653.75,237.39583333333337 657.1666666666666,235.25 660.5833333333333,233.10416666666669 664,230.95833333333331 667.4166666666666,228.81250000000006 670.8333333333333,226.66666666666669 674.25,224.52083333333331 677.6666666666666,222.37500000000006 681.0833333333334,220.22916666666669 684.4999999999999,218.08333333333337 687.9166666666666,215.9375 691.3333333333334,213.79166666666663 694.7499999999999,211.64583333333337 698.1666666666666,209.5 701.5833333333333,207.35416666666674 705,205.20833333333337 708.4166666666666,203.0625 711.8333333333333,200.91666666666669 715.25,198.77083333333331 718.6666666666666,196.62500000000006 722.0833333333333,194.47916666666669 725.5,192.33333333333331 728.9166666666666,190.18750000000006 732.3333333333333,188.04166666666669 735.7499999999999,185.89583333333337 739.1666666666666,183.75 742.5833333333334,181.60416666666669 745.9999999999999,179.45833333333337 749.4166666666666,177.3125 752.8333333333333,175.16666666666674 756.25,173.02083333333337 759.6666666666666,170.875 763.0833333333333,168.72916666666669 766.5,166.58333333333331 769.9166666666665,164.43750000000006 773.3333333333333,162.29166666666669 776.75,160.14583333333331 780.1666666666666,158.00000000000006 783.5833333333333,155.85416666666669 786.9999999999999,153.70833333333337 790.4166666666666,151.5625 793.8333333333334,149.41666666666669 797.2499999999999,147.27083333333337 800.6666666666666,145.125 804.0833333333333,142.97916666666674 807.5,140.83333333333337 810.9166666666666,138.6875 814.3333333333333,136.54166666666669 817.75,134.39583333333331 821.1666666666665,132.25000000000006 824.5833333333333,130.10416666666669 828,127.95833333333331 831.4166666666666,125.81250000000006 834.8333333333333,123.66666666666669 838.2499999999999,121.52083333333337 841.6666666666666,119.375 845.0833333333334,117.22916666666669 848.4999999999999,115.08333333333337 851.9166666666666,112.9375 855.3333333333333,110.79166666666674 858.75,108.64583333333337 862.1666666666666,106.5 865.5833333333333,104.35416666666669 869,102.20833333333337 872.4166666666665,100.06250000000006 875.8333333333333,97.91666666666669 879.25,95.77083333333331 882.6666666666666,93.62500000000006 886.0833333333333,91.47916666666669 889.4999999999999,89.33333333333337 892.9166666666666,87.1875 896.3333333333334,85.04166666666669 899.7499999999999,82.89583333333337 903.1666666666666,80.75 906.5833333333333,78.60416666666674 910,76.45833333333337"/>
<text class="label" x="653.75" y="207.35416666666674">y = 2x + 5</text>
<text class="note" x="610" y="560">Strict inequality: shade above a dashed boundary line.</text>
</svg>