<?xml version="1.0" encoding="UTF-8"?>
<svg xmlns="http://www.w3.org/2000/svg" viewBox="0 0 960 640" width="960" height="640" role="img" aria-labelledby="title desc">
<title id="title">AA12 Solving Linear Systems by Graphing</title>
<desc id="desc">Generated Algebra 1A course visual.</desc>
<style>
  text { font-family: -apple-system, BlinkMacSystemFont, 'Segoe UI', sans-serif; fill: #0f172a; }
  .title { font-size: 30px; font-weight: 700; }
  .subtitle { font-size: 15px; fill: #475569; }
  .axis { stroke: #0f172a; stroke-width: 2.5; }
  .grid { stroke: #cbd5e1; stroke-width: 1; }
  .tick { font-size: 13px; fill: #475569; }
  .label { font-size: 16px; font-weight: 600; }
  .lineA { stroke: #0f766e; stroke-width: 4; fill: none; }
  .lineB { stroke: #f97316; stroke-width: 4; fill: none; }
  .lineC { stroke: #2563eb; stroke-width: 4; fill: none; }
  .shadeA { fill: rgba(15,118,110,0.16); }
  .shadeB { fill: rgba(37,99,235,0.16); }
  .ptA { fill: #0f766e; stroke: #ffffff; stroke-width: 2; }
  .ptB { fill: #f97316; stroke: #ffffff; stroke-width: 2; }
  .ptC { fill: #2563eb; stroke: #ffffff; stroke-width: 2; }
  .note { font-size: 15px; fill: #334155; }
  .box { fill: #ffffff; stroke: #94a3b8; stroke-width: 2; rx: 18; }
  .dashed { fill: #f8fafc; stroke: #64748b; stroke-width: 3; stroke-dasharray: 12 10; rx: 20; }
</style>
<rect x="0" y="0" width="960" height="640" fill="#f8fafc"/><rect class="box" x="20" y="20" width="920" height="600"/><text class="title" x="44" y="62">AA12 Solving Linear Systems by Graphing</text><text class="subtitle" x="44" y="88">Generated example system y = 3x + 2 and y = -x + 6</text><line class="grid" x1="90" y1="570" x2="90" y2="55"/><text class="tick" x="90" y="506.1666666666667" text-anchor="middle">-2</text><line class="grid" x1="207.14285714285714" y1="570" x2="207.14285714285714" y2="55"/><text class="tick" x="207.14285714285714" y="506.1666666666667" text-anchor="middle">-1</text><line class="grid" x1="324.2857142857143" y1="570" x2="324.2857142857143" y2="55"/><line class="grid" x1="441.42857142857144" y1="570" x2="441.42857142857144" y2="55"/><text class="tick" x="441.42857142857144" y="506.1666666666667" text-anchor="middle">1</text><line class="grid" x1="558.5714285714286" y1="570" x2="558.5714285714286" y2="55"/><text class="tick" x="558.5714285714286" y="506.1666666666667" text-anchor="middle">2</text><line class="grid" x1="675.7142857142857" y1="570" x2="675.7142857142857" y2="55"/><text class="tick" x="675.7142857142857" y="506.1666666666667" text-anchor="middle">3</text><line class="grid" x1="792.8571428571429" y1="570" x2="792.8571428571429" y2="55"/><text class="tick" x="792.8571428571429" y="506.1666666666667" text-anchor="middle">4</text><line class="grid" x1="910" y1="570" x2="910" y2="55"/><text class="tick" x="910" y="506.1666666666667" text-anchor="middle">5</text><line class="grid" x1="90" y1="570" x2="910" y2="570"/><text class="tick" x="308.2857142857143" y="575" text-anchor="end">-2</text><line class="grid" x1="90" y1="527.0833333333334" x2="910" y2="527.0833333333334"/><text class="tick" x="308.2857142857143" y="532.0833333333334" text-anchor="end">-1</text><line class="grid" x1="90" y1="484.1666666666667" x2="910" y2="484.1666666666667"/><line class="grid" x1="90" y1="441.25" x2="910" y2="441.25"/><text class="tick" x="308.2857142857143" y="446.25" text-anchor="end">1</text><line class="grid" x1="90" y1="398.33333333333337" x2="910" y2="398.33333333333337"/><text class="tick" x="308.2857142857143" y="403.33333333333337" text-anchor="end">2</text><line class="grid" x1="90" y1="355.4166666666667" x2="910" y2="355.4166666666667"/><text class="tick" x="308.2857142857143" y="360.4166666666667" text-anchor="end">3</text><line class="grid" x1="90" y1="312.5" x2="910" y2="312.5"/><text class="tick" x="308.2857142857143" y="317.5" text-anchor="end">4</text><line class="grid" x1="90" y1="269.58333333333337" x2="910" y2="269.58333333333337"/><text class="tick" x="308.2857142857143" y="274.58333333333337" text-anchor="end">5</text><line class="grid" x1="90" y1="226.66666666666669" x2="910" y2="226.66666666666669"/><text class="tick" x="308.2857142857143" y="231.66666666666669" text-anchor="end">6</text><line class="grid" x1="90" y1="183.75" x2="910" y2="183.75"/><text class="tick" x="308.2857142857143" y="188.75" text-anchor="end">7</text><line class="grid" x1="90" y1="140.83333333333337" x2="910" y2="140.83333333333337"/><text class="tick" x="308.2857142857143" y="145.83333333333337" text-anchor="end">8</text><line class="grid" x1="90" y1="97.91666666666669" x2="910" y2="97.91666666666669"/><text class="tick" x="308.2857142857143" y="102.91666666666669" text-anchor="end">9</text><line class="grid" x1="90" y1="55" x2="910" y2="55"/><text class="tick" x="308.2857142857143" y="60" text-anchor="end">10</text><line class="axis" x1="90" y1="484.1666666666667" x2="910" y2="484.1666666666667"/><line class="axis" x1="324.2857142857143" y1="570" x2="324.2857142857143" y2="55"/><text class="label" x="900" y="472.1666666666667" text-anchor="end">x</text><text class="label" x="336.2857142857143" y="73">y</text><text class="tick" x="312.2857142857143" y="506.1666666666667" text-anchor="end">0</text><polyline class="lineA" points="151.5,588.2395833333334 154.91666666666669,584.484375 158.33333333333334,580.7291666666666 161.75,576.9739583333334 165.16666666666666,573.21875 168.58333333333334,569.4635416666666 172,565.7083333333334 175.41666666666663,561.953125 178.83333333333331,558.1979166666666 182.25,554.4427083333334 185.66666666666666,550.6875 189.08333333333331,546.9322916666666 192.5,543.1770833333334 195.91666666666669,539.421875 199.33333333333331,535.6666666666666 202.75,531.9114583333334 206.16666666666669,528.15625 209.58333333333331,524.4010416666666 213,520.6458333333334 216.41666666666666,516.890625 219.83333333333334,513.1354166666666 223.25,509.38020833333337 226.66666666666666,505.625 230.08333333333331,501.8697916666667 233.5,498.1145833333333 236.91666666666666,494.359375 240.33333333333334,490.60416666666663 243.75,486.84895833333337 247.16666666666666,483.09375 250.58333333333334,479.3385416666667 253.99999999999997,475.58333333333337 257.41666666666663,471.828125 260.8333333333333,468.0729166666667 264.25,464.3177083333333 267.66666666666663,460.5625 271.08333333333337,456.8072916666667 274.5,453.05208333333337 277.91666666666663,449.296875 281.3333333333333,445.5416666666667 284.75,441.78645833333337 288.16666666666663,438.03125 291.58333333333337,434.27604166666663 295,430.52083333333337 298.41666666666663,426.765625 301.8333333333333,423.0104166666667 305.25,419.25520833333337 308.66666666666663,415.5 312.0833333333333,411.7447916666667 315.5,407.9895833333333 318.91666666666663,404.234375 322.33333333333337,400.47916666666663 325.75,396.7239583333333 329.16666666666663,392.96875 332.5833333333333,389.21354166666663 336,385.4583333333333 339.4166666666667,381.703125 342.8333333333333,377.9479166666667 346.25,374.19270833333337 349.6666666666667,370.4375 353.0833333333333,366.68229166666674 356.5,362.92708333333337 359.9166666666667,359.171875 363.3333333333333,355.4166666666667 366.74999999999994,351.66145833333337 370.16666666666663,347.90625 373.5833333333333,344.1510416666667 377,340.3958333333333 380.41666666666663,336.640625 383.8333333333333,332.88541666666663 387.25,329.1302083333333 390.6666666666667,325.375 394.0833333333333,321.6197916666667 397.5,317.86458333333337 400.9166666666667,314.109375 404.3333333333333,310.35416666666674 407.75,306.59895833333337 411.1666666666667,302.84375000000006 414.5833333333333,299.0885416666667 417.99999999999994,295.33333333333337 421.41666666666663,291.578125 424.8333333333333,287.8229166666667 428.25,284.0677083333333 431.66666666666663,280.3125 435.0833333333333,276.5572916666667 438.5,272.8020833333333 441.9166666666667,269.04687499999994 445.3333333333333,265.2916666666667 448.75,261.53645833333337 452.1666666666667,257.78125 455.5833333333333,254.02604166666674 459,250.27083333333337 462.4166666666667,246.51562500000006 465.8333333333333,242.76041666666669 469.24999999999994,239.00520833333337 472.66666666666663,235.25 476.0833333333333,231.49479166666669 479.5,227.73958333333331 482.91666666666663,223.984375 486.3333333333333,220.22916666666669 489.75,216.47395833333331 493.1666666666667,212.71875 496.5833333333333,208.96354166666669 500,205.20833333333337 503.4166666666667,201.453125 506.8333333333333,197.69791666666674 510.25,193.94270833333337 513.6666666666666,190.18750000000006 517.0833333333333,186.43229166666669 520.5,182.67708333333343 523.9166666666666,178.921875 527.3333333333333,175.16666666666674 530.75,171.41145833333331 534.1666666666666,167.65625 537.5833333333333,163.90104166666669 541,160.14583333333331 544.4166666666667,156.390625 547.8333333333333,152.63541666666669 551.25,148.88020833333337 554.6666666666667,145.125 558.0833333333333,141.36979166666674 561.5,137.61458333333331 564.9166666666666,133.8593750000001 568.3333333333333,130.10416666666669 571.75,126.34895833333343 575.1666666666666,122.59375 578.5833333333333,118.83854166666674 582,115.08333333333331 585.4166666666667,111.328125 588.8333333333334,107.57291666666663 592.25,103.81770833333343 595.6666666666666,100.06250000000006 599.0833333333333,96.30729166666669 602.5,92.55208333333337 605.9166666666666,88.796875 609.3333333333334,85.04166666666669 612.75,81.28645833333331 616.1666666666666,77.53125000000011 619.5833333333333,73.77604166666669 623,70.02083333333343 626.4166666666666,66.265625 629.8333333333334,62.51041666666674 633.25,58.755208333333314 636.6666666666666,55 640.0833333333334,51.24479166666663 643.4999999999999,47.48958333333337 646.9166666666666,43.734375000000114 650.3333333333333,39.97916666666674 653.75,36.22395833333337"/><text class="label" x="476.57142857142856" y="136.54166666666669">y = 3x + 2</text><polyline class="lineB" points="90,140.83333333333337 93.41666666666666,142.08506944444446 96.83333333333333,143.3368055555556 100.24999999999999,144.58854166666669 103.66666666666667,145.84027777777783 107.08333333333333,147.09201388888886 110.5,148.34375000000006 113.91666666666666,149.5954861111111 117.33333333333334,150.84722222222229 120.75,152.09895833333331 124.16666666666667,153.3506944444445 127.58333333333333,154.60243055555554 131,155.85416666666669 134.41666666666666,157.10590277777777 137.83333333333331,158.3576388888889 141.25,159.609375 144.66666666666669,160.86111111111114 148.08333333333334,162.11284722222223 151.5,163.36458333333337 154.91666666666669,164.6163194444445 158.33333333333334,165.8680555555556 161.75,167.11979166666674 165.16666666666666,168.37152777777777 168.58333333333334,169.62326388888897 172,170.875 175.41666666666663,172.1267361111111 178.83333333333331,173.37847222222223 182.25,174.63020833333331 185.66666666666666,175.88194444444446 189.08333333333331,177.1336805555556 192.5,178.38541666666669 195.91666666666669,179.63715277777783 199.33333333333331,180.8888888888889 202.75,182.14062500000006 206.16666666666669,183.39236111111114 209.58333333333331,184.64409722222217 213,185.89583333333337 216.41666666666666,187.1475694444444 219.83333333333334,188.3993055555556 223.25,189.65104166666663 226.66666666666666,190.90277777777783 230.08333333333331,192.1545138888889 233.5,193.40625 236.91666666666666,194.65798611111114 240.33333333333334,195.90972222222223 243.75,197.16145833333337 247.16666666666666,198.41319444444446 250.58333333333334,199.6649305555556 253.99999999999997,200.91666666666669 257.41666666666663,202.16840277777783 260.8333333333333,203.42013888888886 264.25,204.67187500000006 267.66666666666663,205.9236111111111 271.08333333333337,207.17534722222229 274.5,208.42708333333331 277.91666666666663,209.6788194444445 281.3333333333333,210.93055555555554 284.75,212.18229166666669 288.16666666666663,213.43402777777777 291.58333333333337,214.6857638888889 295,215.9375 298.41666666666663,217.18923611111114 301.8333333333333,218.44097222222223 305.25,219.69270833333337 308.66666666666663,220.94444444444446 312.0833333333333,222.19618055555554 315.5,223.44791666666674 318.91666666666663,224.69965277777777 322.33333333333337,225.95138888888897 325.75,227.203125 329.16666666666663,228.4548611111111 332.5833333333333,229.70659722222223 336,230.95833333333331 339.4166666666667,232.21006944444446 342.8333333333333,233.46180555555554 346.25,234.71354166666669 349.6666666666667,235.96527777777783 353.0833333333333,237.2170138888889 356.5,238.46875000000006 359.9166666666667,239.72048611111114 363.3333333333333,240.97222222222229 366.74999999999994,242.22395833333337 370.16666666666663,243.47569444444446 373.5833333333333,244.7274305555556 377,245.97916666666669 380.41666666666663,247.23090277777777 383.8333333333333,248.4826388888889 387.25,249.734375 390.6666666666667,250.98611111111114 394.0833333333333,252.23784722222223 397.5,253.48958333333337 400.9166666666667,254.74131944444446 404.3333333333333,255.9930555555556 407.75,257.2447916666667 411.1666666666667,258.4965277777778 414.5833333333333,259.7482638888889 417.99999999999994,261 421.41666666666663,262.25173611111114 424.8333333333333,263.50347222222223 428.25,264.75520833333337 431.66666666666663,266.00694444444446 435.0833333333333,267.25868055555554 438.5,268.5104166666667 441.9166666666667,269.76215277777777 445.3333333333333,271.0138888888889 448.75,272.265625 452.1666666666667,273.51736111111114 455.5833333333333,274.76909722222223 459,276.02083333333337 462.4166666666667,277.27256944444446 465.8333333333333,278.5243055555556 469.24999999999994,279.7760416666667 472.66666666666663,281.02777777777777 476.0833333333333,282.2795138888889 479.5,283.53125 482.91666666666663,284.7829861111111 486.3333333333333,286.03472222222223 489.75,287.2864583333333 493.1666666666667,288.53819444444446 496.5833333333333,289.78993055555554 500,291.0416666666667 503.4166666666667,292.29340277777777 506.8333333333333,293.5451388888889 510.25,294.79687500000006 513.6666666666666,296.04861111111114 517.0833333333333,297.3003472222223 520.5,298.5520833333333 523.9166666666666,299.80381944444446 527.3333333333333,301.0555555555556 530.75,302.3072916666667 534.1666666666666,303.55902777777777 537.5833333333333,304.81076388888886 541,306.0625 544.4166666666667,307.31423611111114 547.8333333333333,308.56597222222223 551.25,309.81770833333337 554.6666666666667,311.06944444444446 558.0833333333333,312.3211805555556 561.5,313.5729166666667 564.9166666666666,314.82465277777777 568.3333333333333,316.0763888888889 571.75,317.328125 575.1666666666666,318.5798611111111 578.5833333333333,319.83159722222223 582,321.08333333333337 585.4166666666667,322.33506944444446 588.8333333333334,323.5868055555556 592.25,324.83854166666663 595.6666666666666,326.09027777777777 599.0833333333333,327.3420138888889 602.5,328.59375 605.9166666666666,329.84548611111114 609.3333333333334,331.0972222222223 612.75,332.34895833333337 616.1666666666666,333.60069444444446 619.5833333333333,334.85243055555554 623,336.1041666666667 626.4166666666666,337.3559027777778 629.8333333333334,338.6076388888889 633.25,339.859375 636.6666666666666,341.11111111111114 640.0833333333334,342.3628472222223 643.4999999999999,343.61458333333337 646.9166666666666,344.86631944444446 650.3333333333333,346.11805555555554 653.75,347.3697916666667 657.1666666666666,348.6215277777778 660.5833333333334,349.8732638888889 664,351.125 667.4166666666666,352.3767361111111 670.8333333333333,353.62847222222223 674.25,354.88020833333337 677.6666666666666,356.13194444444446 681.0833333333334,357.38368055555554 684.5,358.6354166666667 687.9166666666666,359.8871527777778 691.3333333333334,361.1388888888889 694.7499999999999,362.390625 698.1666666666666,363.6423611111111 701.5833333333333,364.89409722222223 705,366.14583333333337 708.4166666666666,367.39756944444446 711.8333333333334,368.64930555555554 715.25,369.9010416666667 718.6666666666666,371.15277777777777 722.0833333333333,372.4045138888889 725.5,373.65625 728.9166666666666,374.9079861111111 732.3333333333334,376.15972222222223 735.75,377.41145833333337 739.1666666666666,378.66319444444446 742.5833333333334,379.91493055555554 745.9999999999999,381.16666666666663 749.4166666666666,382.41840277777777 752.8333333333333,383.6701388888889 756.25,384.921875 759.6666666666666,386.1736111111111 763.0833333333334,387.42534722222223 766.5,388.67708333333337 769.9166666666666,389.92881944444446 773.3333333333333,391.18055555555554 776.75,392.43229166666663 780.1666666666666,393.68402777777777 783.5833333333334,394.9357638888889 787,396.1875 790.4166666666666,397.43923611111114 793.8333333333334,398.6909722222223 797.2499999999999,399.9427083333333 800.6666666666666,401.19444444444446 804.0833333333333,402.44618055555554 807.5,403.6979166666667 810.9166666666666,404.9496527777778 814.3333333333334,406.2013888888889 817.75,407.453125 821.1666666666666,408.7048611111111 824.5833333333333,409.95659722222223 828,411.20833333333337 831.4166666666666,412.46006944444446 834.8333333333334,413.71180555555554 838.25,414.9635416666667 841.6666666666666,416.2152777777778 845.0833333333334,417.4670138888889 848.4999999999999,418.71875 851.9166666666666,419.9704861111111 855.3333333333333,421.22222222222223 858.75,422.47395833333337 862.1666666666666,423.72569444444446 865.5833333333334,424.97743055555554 869,426.2291666666667 872.4166666666666,427.48090277777777 875.8333333333333,428.7326388888889 879.25,429.984375 882.6666666666666,431.2361111111111 886.0833333333333,432.48784722222223 889.5,433.73958333333337 892.9166666666666,434.99131944444446 896.3333333333334,436.24305555555554 899.7499999999999,437.49479166666663 903.1666666666666,438.74652777777777 906.5833333333333,439.9982638888889 910,441.25"/><text class="label" x="582" y="351.125">y = -x + 6</text><circle class="ptC" cx="441.42857142857144" cy="269.58333333333337" r="7.5"/><text class="label" x="451.42857142857144" y="257.58333333333337">(1, 5)</text>
</svg>