<?xml version="1.0" encoding="UTF-8"?>
<svg xmlns="http://www.w3.org/2000/svg" viewBox="0 0 960 640" width="960" height="640" role="img" aria-labelledby="title desc">
<title id="title">AA7 Community Data Analysis</title>
<desc id="desc">Generated Algebra 1A course visual.</desc>
<style>
  text { font-family: -apple-system, BlinkMacSystemFont, 'Segoe UI', sans-serif; fill: #0f172a; }
  .title { font-size: 30px; font-weight: 700; }
  .subtitle { font-size: 15px; fill: #475569; }
  .axis { stroke: #0f172a; stroke-width: 2.5; }
  .grid { stroke: #cbd5e1; stroke-width: 1; }
  .tick { font-size: 13px; fill: #475569; }
  .label { font-size: 16px; font-weight: 600; }
  .lineA { stroke: #0f766e; stroke-width: 4; fill: none; }
  .lineB { stroke: #f97316; stroke-width: 4; fill: none; }
  .lineC { stroke: #2563eb; stroke-width: 4; fill: none; }
  .shadeA { fill: rgba(15,118,110,0.16); }
  .shadeB { fill: rgba(37,99,235,0.16); }
  .ptA { fill: #0f766e; stroke: #ffffff; stroke-width: 2; }
  .ptB { fill: #f97316; stroke: #ffffff; stroke-width: 2; }
  .ptC { fill: #2563eb; stroke: #ffffff; stroke-width: 2; }
  .note { font-size: 15px; fill: #334155; }
  .box { fill: #ffffff; stroke: #94a3b8; stroke-width: 2; rx: 18; }
  .dashed { fill: #f8fafc; stroke: #64748b; stroke-width: 3; stroke-dasharray: 12 10; rx: 20; }
</style>
<rect x="0" y="0" width="960" height="640" fill="#f8fafc"/><rect class="box" x="20" y="20" width="920" height="600"/><text class="title" x="44" y="62">AA7 Community Data Analysis</text><text class="subtitle" x="44" y="88">Generated example dataset comparing two neighborhood programs</text><line class="grid" x1="90" y1="570" x2="90" y2="55"/><line class="grid" x1="254" y1="570" x2="254" y2="55"/><text class="tick" x="254" y="592" text-anchor="middle">1</text><line class="grid" x1="418" y1="570" x2="418" y2="55"/><text class="tick" x="418" y="592" text-anchor="middle">2</text><line class="grid" x1="582" y1="570" x2="582" y2="55"/><text class="tick" x="582" y="592" text-anchor="middle">3</text><line class="grid" x1="746" y1="570" x2="746" y2="55"/><text class="tick" x="746" y="592" text-anchor="middle">4</text><line class="grid" x1="910" y1="570" x2="910" y2="55"/><text class="tick" x="910" y="592" text-anchor="middle">5</text><line class="grid" x1="90" y1="570" x2="910" y2="570"/><line class="grid" x1="90" y1="505.625" x2="910" y2="505.625"/><text class="tick" x="74" y="510.625" text-anchor="end">10</text><line class="grid" x1="90" y1="441.25" x2="910" y2="441.25"/><text class="tick" x="74" y="446.25" text-anchor="end">20</text><line class="grid" x1="90" y1="376.875" x2="910" y2="376.875"/><text class="tick" x="74" y="381.875" text-anchor="end">30</text><line class="grid" x1="90" y1="312.5" x2="910" y2="312.5"/><text class="tick" x="74" y="317.5" text-anchor="end">40</text><line class="grid" x1="90" y1="248.125" x2="910" y2="248.125"/><text class="tick" x="74" y="253.125" text-anchor="end">50</text><line class="grid" x1="90" y1="183.75" x2="910" y2="183.75"/><text class="tick" x="74" y="188.75" text-anchor="end">60</text><line class="grid" x1="90" y1="119.375" x2="910" y2="119.375"/><text class="tick" x="74" y="124.375" text-anchor="end">70</text><line class="grid" x1="90" y1="55" x2="910" y2="55"/><text class="tick" x="74" y="60" text-anchor="end">80</text><line class="axis" x1="90" y1="570" x2="910" y2="570"/><line class="axis" x1="90" y1="570" x2="90" y2="55"/><text class="label" x="900" y="558" text-anchor="end">week</text><text class="label" x="102" y="73">participants</text><text class="tick" x="78" y="592" text-anchor="end">0</text><polyline class="lineA" points="90,492.75 93.41666666666667,491.40885416666663 96.83333333333333,490.06770833333337 100.25,488.7265625 103.66666666666667,487.38541666666663 107.08333333333334,486.04427083333337 110.5,484.703125 113.91666666666667,483.36197916666663 117.33333333333333,482.02083333333337 120.75,480.6796875 124.16666666666667,479.33854166666663 127.58333333333333,477.99739583333337 131,476.65625 134.41666666666666,475.3151041666667 137.83333333333334,473.9739583333333 141.25,472.6328125 144.66666666666666,471.2916666666667 148.08333333333334,469.9505208333333 151.5,468.609375 154.91666666666666,467.2682291666667 158.33333333333334,465.9270833333333 161.75,464.5859375 165.16666666666666,463.2447916666667 168.58333333333334,461.9036458333333 172,460.5625 175.41666666666669,459.22135416666663 178.83333333333331,457.88020833333337 182.25,456.5390625 185.66666666666669,455.19791666666663 189.08333333333331,453.85677083333337 192.5,452.515625 195.91666666666669,451.17447916666663 199.33333333333331,449.83333333333337 202.75,448.4921875 206.16666666666669,447.15104166666663 209.58333333333331,445.80989583333337 213,444.46875 216.41666666666669,443.12760416666663 219.83333333333331,441.78645833333337 223.25,440.4453125 226.66666666666669,439.10416666666663 230.08333333333331,437.76302083333337 233.5,436.421875 236.91666666666669,435.08072916666663 240.33333333333331,433.73958333333337 243.75,432.3984375 247.16666666666669,431.05729166666663 250.58333333333331,429.71614583333337 254,428.375 257.41666666666663,427.0338541666667 260.83333333333337,425.6927083333333 264.25,424.3515625 267.66666666666663,423.0104166666667 271.08333333333337,421.6692708333333 274.5,420.328125 277.91666666666663,418.9869791666667 281.33333333333337,417.6458333333333 284.75,416.3046875 288.16666666666663,414.9635416666667 291.58333333333337,413.6223958333333 295,412.28125 298.41666666666663,410.9401041666667 301.83333333333337,409.5989583333333 305.25,408.2578125 308.66666666666663,406.9166666666667 312.08333333333337,405.5755208333333 315.5,404.234375 318.91666666666663,402.8932291666667 322.33333333333337,401.5520833333333 325.75,400.2109375 329.16666666666663,398.8697916666667 332.58333333333337,397.5286458333333 336,396.1875 339.41666666666663,394.8463541666667 342.83333333333337,393.5052083333333 346.25,392.1640625 349.66666666666663,390.8229166666667 353.08333333333337,389.4817708333333 356.5,388.140625 359.91666666666663,386.7994791666667 363.33333333333337,385.4583333333333 366.75,384.1171875 370.16666666666663,382.7760416666667 373.58333333333337,381.4348958333333 377,380.09375 380.41666666666663,378.7526041666667 383.83333333333337,377.4114583333333 387.25,376.0703125 390.66666666666663,374.7291666666667 394.08333333333337,373.3880208333333 397.5,372.046875 400.91666666666663,370.7057291666667 404.33333333333337,369.3645833333333 407.75,368.0234375 411.16666666666663,366.6822916666667 414.58333333333337,365.3411458333333 418,364 421.4166666666667,362.65885416666663 424.8333333333333,361.31770833333337 428.25,359.9765625 431.6666666666667,358.63541666666663 435.0833333333333,357.29427083333337 438.5,355.953125 441.9166666666667,354.61197916666663 445.3333333333333,353.27083333333337 448.75,351.9296875 452.1666666666667,350.58854166666663 455.5833333333333,349.24739583333337 459,347.90625 462.4166666666667,346.56510416666663 465.8333333333333,345.22395833333337 469.25,343.8828125 472.6666666666667,342.54166666666663 476.0833333333333,341.20052083333337 479.5,339.859375 482.9166666666667,338.51822916666663 486.3333333333333,337.17708333333337 489.75,335.8359375 493.1666666666667,334.49479166666663 496.5833333333333,333.15364583333337 500,331.8125 503.4166666666667,330.47135416666663 506.8333333333333,329.13020833333337 510.25,327.7890625 513.6666666666667,326.44791666666663 517.0833333333333,325.10677083333337 520.5,323.765625 523.9166666666667,322.42447916666663 527.3333333333333,321.08333333333337 530.75,319.7421875 534.1666666666667,318.40104166666663 537.5833333333333,317.05989583333337 541,315.71875 544.4166666666667,314.37760416666663 547.8333333333333,313.03645833333337 551.25,311.6953125 554.6666666666667,310.35416666666663 558.0833333333333,309.01302083333337 561.5,307.671875 564.9166666666667,306.33072916666663 568.3333333333333,304.98958333333337 571.75,303.6484375 575.1666666666667,302.30729166666663 578.5833333333333,300.96614583333337 582,299.625 585.4166666666667,298.28385416666663 588.8333333333333,296.94270833333337 592.25,295.6015625 595.6666666666667,294.26041666666663 599.0833333333333,292.91927083333337 602.5,291.578125 605.9166666666667,290.23697916666663 609.3333333333333,288.89583333333337 612.75,287.5546875 616.1666666666667,286.21354166666663 619.5833333333333,284.87239583333337 623,283.53125 626.4166666666667,282.19010416666663 629.8333333333333,280.84895833333337 633.25,279.5078125 636.6666666666667,278.16666666666663 640.0833333333333,276.82552083333337 643.5,275.484375 646.9166666666667,274.14322916666663 650.3333333333333,272.80208333333337 653.75,271.4609375 657.1666666666667,270.11979166666663 660.5833333333333,268.77864583333337 664,267.4375 667.4166666666667,266.09635416666663 670.8333333333333,264.75520833333337 674.25,263.4140625 677.6666666666667,262.07291666666663 681.0833333333333,260.73177083333337 684.5,259.390625 687.9166666666667,258.04947916666663 691.3333333333333,256.70833333333337 694.75,255.3671875 698.1666666666667,254.02604166666663 701.5833333333333,252.68489583333337 705,251.34375 708.4166666666667,250.00260416666663 711.8333333333333,248.66145833333337 715.25,247.3203125 718.6666666666667,245.97916666666663 722.0833333333333,244.63802083333337 725.5,243.296875 728.9166666666667,241.95572916666663 732.3333333333333,240.61458333333337 735.75,239.2734375 739.1666666666667,237.93229166666663 742.5833333333333,236.59114583333337 746,235.25 749.4166666666666,233.90885416666669 752.8333333333334,232.56770833333331 756.25,231.2265625 759.6666666666666,229.88541666666669 763.0833333333334,228.54427083333331 766.5,227.203125 769.9166666666666,225.86197916666669 773.3333333333334,224.52083333333331 776.75,223.1796875 780.1666666666666,221.83854166666669 783.5833333333334,220.49739583333331 787,219.15625 790.4166666666666,217.81510416666669 793.8333333333334,216.47395833333331 797.25,215.1328125 800.6666666666666,213.79166666666669 804.0833333333334,212.45052083333331 807.5,211.109375 810.9166666666666,209.76822916666669 814.3333333333334,208.42708333333331 817.75,207.0859375 821.1666666666666,205.74479166666669 824.5833333333334,204.40364583333331 828,203.0625 831.4166666666666,201.72135416666669 834.8333333333334,200.38020833333331 838.25,199.0390625 841.6666666666666,197.69791666666669 845.0833333333334,196.35677083333331 848.5,195.015625 851.9166666666666,193.67447916666669 855.3333333333334,192.33333333333331 858.75,190.9921875 862.1666666666666,189.65104166666669 865.5833333333334,188.30989583333331 869,186.96875 872.4166666666666,185.62760416666669 875.8333333333334,184.28645833333331 879.25,182.9453125 882.6666666666666,181.60416666666669 886.0833333333334,180.26302083333331 889.5,178.921875 892.9166666666666,177.58072916666669 896.3333333333334,176.23958333333331 899.75,174.8984375 903.1666666666666,173.55729166666669 906.5833333333334,172.21614583333331 910,170.875"/><text class="label" x="549.2" y="261">Neighborhood A</text><polyline class="lineB" points="90,454.125 93.41666666666667,453.3203125 96.83333333333333,452.515625 100.25,451.7109375 103.66666666666667,450.90625 107.08333333333334,450.1015625 110.5,449.296875 113.91666666666667,448.4921875 117.33333333333333,447.6875 120.75,446.8828125 124.16666666666667,446.078125 127.58333333333333,445.2734375 131,444.46875 134.41666666666666,443.6640625 137.83333333333334,442.859375 141.25,442.0546875 144.66666666666666,441.25 148.08333333333334,440.4453125 151.5,439.640625 154.91666666666666,438.8359375 158.33333333333334,438.03125 161.75,437.2265625 165.16666666666666,436.421875 168.58333333333334,435.6171875 172,434.8125 175.41666666666669,434.0078125 178.83333333333331,433.203125 182.25,432.3984375 185.66666666666669,431.59375 189.08333333333331,430.7890625 192.5,429.984375 195.91666666666669,429.1796875 199.33333333333331,428.375 202.75,427.5703125 206.16666666666669,426.765625 209.58333333333331,425.9609375 213,425.15625 216.41666666666669,424.3515625 219.83333333333331,423.546875 223.25,422.7421875 226.66666666666669,421.9375 230.08333333333331,421.1328125 233.5,420.328125 236.91666666666669,419.5234375 240.33333333333331,418.71875 243.75,417.9140625 247.16666666666669,417.109375 250.58333333333331,416.3046875 254,415.5 257.41666666666663,414.6953125 260.83333333333337,413.890625 264.25,413.0859375 267.66666666666663,412.28125 271.08333333333337,411.4765625 274.5,410.671875 277.91666666666663,409.8671875 281.33333333333337,409.0625 284.75,408.2578125 288.16666666666663,407.453125 291.58333333333337,406.6484375 295,405.84375 298.41666666666663,405.0390625 301.83333333333337,404.234375 305.25,403.4296875 308.66666666666663,402.625 312.08333333333337,401.8203125 315.5,401.015625 318.91666666666663,400.2109375 322.33333333333337,399.40625 325.75,398.6015625 329.16666666666663,397.796875 332.58333333333337,396.9921875 336,396.1875 339.41666666666663,395.3828125 342.83333333333337,394.578125 346.25,393.7734375 349.66666666666663,392.96875 353.08333333333337,392.1640625 356.5,391.359375 359.91666666666663,390.5546875 363.33333333333337,389.75 366.75,388.9453125 370.16666666666663,388.140625 373.58333333333337,387.3359375 377,386.53125 380.41666666666663,385.7265625 383.83333333333337,384.921875 387.25,384.1171875 390.66666666666663,383.3125 394.08333333333337,382.5078125 397.5,381.703125 400.91666666666663,380.8984375 404.33333333333337,380.09375 407.75,379.2890625 411.16666666666663,378.484375 414.58333333333337,377.6796875 418,376.875 421.4166666666667,376.0703125 424.8333333333333,375.265625 428.25,374.4609375 431.6666666666667,373.65625 435.0833333333333,372.8515625 438.5,372.046875 441.9166666666667,371.2421875 445.3333333333333,370.4375 448.75,369.6328125 452.1666666666667,368.828125 455.5833333333333,368.0234375 459,367.21875 462.4166666666667,366.4140625 465.8333333333333,365.609375 469.25,364.8046875 472.6666666666667,364 476.0833333333333,363.1953125 479.5,362.390625 482.9166666666667,361.5859375 486.3333333333333,360.78125 489.75,359.9765625 493.1666666666667,359.171875 496.5833333333333,358.3671875 500,357.5625 503.4166666666667,356.7578125 506.8333333333333,355.953125 510.25,355.1484375 513.6666666666667,354.34375 517.0833333333333,353.5390625 520.5,352.734375 523.9166666666667,351.9296875 527.3333333333333,351.125 530.75,350.3203125 534.1666666666667,349.515625 537.5833333333333,348.7109375 541,347.90625 544.4166666666667,347.1015625 547.8333333333333,346.296875 551.25,345.4921875 554.6666666666667,344.6875 558.0833333333333,343.8828125 561.5,343.078125 564.9166666666667,342.2734375 568.3333333333333,341.46875 571.75,340.6640625 575.1666666666667,339.859375 578.5833333333333,339.0546875 582,338.25 585.4166666666667,337.4453125 588.8333333333333,336.640625 592.25,335.8359375 595.6666666666667,335.03125 599.0833333333333,334.2265625 602.5,333.421875 605.9166666666667,332.6171875 609.3333333333333,331.8125 612.75,331.0078125 616.1666666666667,330.203125 619.5833333333333,329.3984375 623,328.59375 626.4166666666667,327.7890625 629.8333333333333,326.984375 633.25,326.1796875 636.6666666666667,325.375 640.0833333333333,324.5703125 643.5,323.765625 646.9166666666667,322.9609375 650.3333333333333,322.15625 653.75,321.3515625 657.1666666666667,320.546875 660.5833333333333,319.7421875 664,318.9375 667.4166666666667,318.1328125 670.8333333333333,317.328125 674.25,316.5234375 677.6666666666667,315.71875 681.0833333333333,314.9140625 684.5,314.109375 687.9166666666667,313.3046875 691.3333333333333,312.5 694.75,311.6953125 698.1666666666667,310.890625 701.5833333333333,310.0859375 705,309.28125 708.4166666666667,308.4765625 711.8333333333333,307.671875 715.25,306.8671875 718.6666666666667,306.0625 722.0833333333333,305.2578125 725.5,304.453125 728.9166666666667,303.6484375 732.3333333333333,302.84375 735.75,302.0390625 739.1666666666667,301.234375 742.5833333333333,300.4296875 746,299.625 749.4166666666666,298.8203125 752.8333333333334,298.015625 756.25,297.2109375 759.6666666666666,296.40625 763.0833333333334,295.6015625 766.5,294.796875 769.9166666666666,293.9921875 773.3333333333334,293.1875 776.75,292.3828125 780.1666666666666,291.578125 783.5833333333334,290.7734375 787,289.96875 790.4166666666666,289.1640625 793.8333333333334,288.359375 797.25,287.5546875 800.6666666666666,286.75 804.0833333333334,285.9453125 807.5,285.140625 810.9166666666666,284.3359375 814.3333333333334,283.53125 817.75,282.7265625 821.1666666666666,281.921875 824.5833333333334,281.1171875 828,280.3125 831.4166666666666,279.5078125 834.8333333333334,278.703125 838.25,277.8984375 841.6666666666666,277.09375 845.0833333333334,276.2890625 848.5,275.484375 851.9166666666666,274.6796875 855.3333333333334,273.875 858.75,273.0703125 862.1666666666666,272.265625 865.5833333333334,271.4609375 869,270.65625 872.4166666666666,269.8515625 875.8333333333334,269.046875 879.25,268.2421875 882.6666666666666,267.4375 886.0833333333334,266.6328125 889.5,265.828125 892.9166666666666,265.0234375 896.3333333333334,264.21875 899.75,263.4140625 903.1666666666666,262.609375 906.5833333333334,261.8046875 910,261"/><text class="label" x="565.5999999999999" y="351.125">Neighborhood B</text><circle class="ptA" cx="254" cy="428.375" r="7.5"/><text class="label" x="254" y="428.375"></text><circle class="ptA" cx="418" cy="364" r="7.5"/><text class="label" x="418" y="364"></text><circle class="ptA" cx="582" cy="299.625" r="7.5"/><text class="label" x="582" y="299.625"></text><circle class="ptB" cx="254" cy="415.5" r="7.5"/><text class="label" x="254" y="415.5"></text><circle class="ptB" cx="418" cy="376.875" r="7.5"/><text class="label" x="418" y="376.875"></text><circle class="ptB" cx="582" cy="338.25" r="7.5"/><text class="label" x="582" y="338.25"></text>
</svg>