<?xml version="1.0" encoding="UTF-8"?>
<svg xmlns="http://www.w3.org/2000/svg" viewBox="0 0 960 640" width="960" height="640" role="img" aria-labelledby="title desc">
<title id="title">Check-In #3 parabola and line solution</title>
<desc id="desc">Generated Algebra 1A course visual.</desc>
<style>
  text { font-family: -apple-system, BlinkMacSystemFont, 'Segoe UI', sans-serif; fill: #0f172a; }
  .title { font-size: 30px; font-weight: 700; }
  .subtitle { font-size: 15px; fill: #475569; }
  .axis { stroke: #0f172a; stroke-width: 2.5; }
  .grid { stroke: #cbd5e1; stroke-width: 1; }
  .tick { font-size: 13px; fill: #475569; }
  .label { font-size: 16px; font-weight: 600; }
  .lineA { stroke: #0f766e; stroke-width: 4; fill: none; }
  .lineB { stroke: #f97316; stroke-width: 4; fill: none; }
  .lineC { stroke: #2563eb; stroke-width: 4; fill: none; }
  .shadeA { fill: rgba(15,118,110,0.16); }
  .shadeB { fill: rgba(37,99,235,0.16); }
  .ptA { fill: #0f766e; stroke: #ffffff; stroke-width: 2; }
  .ptB { fill: #f97316; stroke: #ffffff; stroke-width: 2; }
  .ptC { fill: #2563eb; stroke: #ffffff; stroke-width: 2; }
  .note { font-size: 15px; fill: #334155; }
  .box { fill: #ffffff; stroke: #94a3b8; stroke-width: 2; rx: 18; }
  .dashed { fill: #f8fafc; stroke: #64748b; stroke-width: 3; stroke-dasharray: 12 10; rx: 20; }
</style>
<rect x="0" y="0" width="960" height="640" fill="#f8fafc"/><rect class="box" x="20" y="20" width="920" height="600"/><text class="title" x="44" y="62">Check-In #3: Parabola and Line</text><text class="subtitle" x="44" y="88">Generated sample solution for y = x^2 and y = -x + 2</text><line class="grid" x1="90" y1="570" x2="90" y2="55"/><text class="tick" x="90" y="518.4285714285714" text-anchor="middle">-3</text><line class="grid" x1="226.66666666666666" y1="570" x2="226.66666666666666" y2="55"/><text class="tick" x="226.66666666666666" y="518.4285714285714" text-anchor="middle">-2</text><line class="grid" x1="363.3333333333333" y1="570" x2="363.3333333333333" y2="55"/><text class="tick" x="363.3333333333333" y="518.4285714285714" text-anchor="middle">-1</text><line class="grid" x1="500" y1="570" x2="500" y2="55"/><line class="grid" x1="636.6666666666666" y1="570" x2="636.6666666666666" y2="55"/><text class="tick" x="636.6666666666666" y="518.4285714285714" text-anchor="middle">1</text><line class="grid" x1="773.3333333333333" y1="570" x2="773.3333333333333" y2="55"/><text class="tick" x="773.3333333333333" y="518.4285714285714" text-anchor="middle">2</text><line class="grid" x1="910" y1="570" x2="910" y2="55"/><text class="tick" x="910" y="518.4285714285714" text-anchor="middle">3</text><line class="grid" x1="90" y1="570" x2="910" y2="570"/><text class="tick" x="484" y="575" text-anchor="end">-1</text><line class="grid" x1="90" y1="496.42857142857144" x2="910" y2="496.42857142857144"/><line class="grid" x1="90" y1="422.8571428571429" x2="910" y2="422.8571428571429"/><text class="tick" x="484" y="427.8571428571429" text-anchor="end">1</text><line class="grid" x1="90" y1="349.2857142857143" x2="910" y2="349.2857142857143"/><text class="tick" x="484" y="354.2857142857143" text-anchor="end">2</text><line class="grid" x1="90" y1="275.7142857142857" x2="910" y2="275.7142857142857"/><text class="tick" x="484" y="280.7142857142857" text-anchor="end">3</text><line class="grid" x1="90" y1="202.14285714285717" x2="910" y2="202.14285714285717"/><text class="tick" x="484" y="207.14285714285717" text-anchor="end">4</text><line class="grid" x1="90" y1="128.57142857142856" x2="910" y2="128.57142857142856"/><text class="tick" x="484" y="133.57142857142856" text-anchor="end">5</text><line class="grid" x1="90" y1="55" x2="910" y2="55"/><text class="tick" x="484" y="60" text-anchor="end">6</text><line class="axis" x1="90" y1="496.42857142857144" x2="910" y2="496.42857142857144"/><line class="axis" x1="500" y1="570" x2="500" y2="55"/><text class="tick" x="488" y="518.4285714285714" text-anchor="end">0</text><polyline class="lineA" points="90,-165.71428571428567 92.92857142857142,-156.2888848396501 95.85714285714283,-146.93104956268235 98.78571428571425,-137.64077988338204 101.71428571428574,-128.41807580174918 104.64285714285715,-119.26293731778424 107.57142857142857,-110.17536443148697 110.49999999999999,-101.15535714285716 113.4285714285714,-92.20291545189502 116.35714285714289,-83.31803935860046 119.2857142857143,-74.50072886297369 122.21428571428572,-65.7509839650146 125.14285714285714,-57.068804664723075 128.07142857142856,-48.45419096209923 130.99999999999997,-39.90714285714296 133.92857142857144,-31.427660349854136 136.85714285714286,-23.015743440233223 139.78571428571428,-14.671392128279876 142.71428571428572,-6.394606413994097 145.6428571428571,1.8146137026238875 148.57142857142856,9.956268221574305 151.50000000000003,18.030357142857156 154.42857142857144,26.03688046647244 157.35714285714286,33.975838192419815 160.28571428571428,41.84723032069974 163.2142857142857,49.65105685131198 166.1428571428571,57.38731778425654 169.07142857142858,65.05601311953359 172,72.6571428571429 174.92857142857144,80.19070699708459 177.85714285714283,87.6567055393586 180.78571428571428,95.05513848396498 183.71428571428572,102.38600583090385 186.64285714285717,109.64930758017499 189.57142857142856,116.8450437317785 192.5,123.97321428571428 195.42857142857142,131.03381924198254 198.35714285714283,138.02685860058307 201.28571428571425,144.95233236151597 204.21428571428572,151.81024052478142 207.14285714285714,158.60058309037908 210.07142857142856,165.32336005830905 213,171.97857142857146 215.9285714285714,178.56621720116618 218.8571428571429,185.08629737609334 221.7857142857143,191.53881195335282 224.71428571428572,197.92376093294467 227.64285714285714,204.2411443148688 230.57142857142856,210.49096209912528 233.5,216.67321428571427 236.42857142857142,222.78790087463557 239.35714285714283,228.83502186588925 242.28571428571428,234.81457725947524 245.2142857142857,240.72656705539356 248.14285714285714,246.57099125364437 251.07142857142856,252.34784985422743 253.99999999999997,258.0571428571429 256.92857142857144,263.6988702623907 259.8571428571429,269.27303206997084 262.7857142857143,274.77962827988335 265.7142857142857,280.2186588921283 268.6428571428571,285.59012390670557 271.57142857142856,290.89402332361516 274.5,296.1303571428572 277.42857142857144,301.2991253644315 280.35714285714283,306.4003279883382 283.2857142857143,311.43396501457727 286.21428571428567,316.4000364431487 289.1428571428571,321.29854227405247 292.07142857142856,326.1294825072887 295,330.8928571428571 297.92857142857144,335.58866618075797 300.8571428571429,340.21690962099126 303.7857142857143,344.77758746355687 306.71428571428567,349.2706997084548 309.6428571428571,353.69624635568516 312.57142857142856,358.0542274052478 315.5,362.34464285714284 318.42857142857144,366.5674927113703 321.35714285714283,370.72277696793003 324.2857142857142,374.8104956268221 327.21428571428567,378.8306486880467 330.1428571428571,382.78323615160355 333.07142857142856,386.6682580174927 336,390.48571428571427 338.92857142857144,394.23560495626816 341.85714285714283,397.9179300291545 344.7857142857143,401.5326895043732 347.71428571428567,405.0798833819242 350.64285714285717,408.5595116618076 353.57142857142856,411.97157434402334 356.5,415.31607142857143 359.42857142857144,418.5930029154519 362.35714285714283,421.80236880466475 365.2857142857143,424.94416909620986 368.21428571428567,428.0184037900874 371.1428571428571,431.0250728862974 374.07142857142856,433.9641763848397 377,436.8357142857143 379.9285714285714,439.6396865889213 382.85714285714283,442.37609329446065 385.7857142857142,445.0449344023324 388.71428571428567,447.6462099125364 391.64285714285717,450.1799198250729 394.57142857142856,452.6460641399417 397.5,455.0446428571429 400.4285714285714,457.3756559766764 403.35714285714283,459.6391034985422 406.2857142857143,461.83498542274054 409.2142857142857,463.9633017492712 412.1428571428571,466.02405247813414 415.07142857142856,468.0172376093294 417.99999999999994,469.9428571428571 420.9285714285714,471.8009110787172 423.8571428571429,473.59139941690967 426.7857142857143,475.3143221574344 429.7142857142857,476.96967930029155 432.6428571428571,478.5574708454811 435.57142857142856,480.07769679300293 438.49999999999994,481.53035714285716 441.42857142857144,482.91545189504376 444.35714285714283,484.2329810495627 447.2857142857143,485.482944606414 450.21428571428567,486.66534256559765 453.1428571428571,487.7801749271137 456.0714285714285,488.82744169096213 459,489.8071428571429 461.92857142857144,490.719278425656 464.85714285714283,491.5638483965015 467.7857142857143,492.3408527696793 470.71428571428567,493.0502915451895 473.6428571428571,493.6921647230321 476.57142857142856,494.266472303207 479.5,494.7732142857143 482.4285714285714,495.21239067055393 485.35714285714283,495.58400145772595 488.2857142857142,495.88804664723034 491.21428571428567,496.12452623906705 494.1428571428571,496.29344023323614 497.07142857142856,496.3947886297376 500,496.42857142857144 502.9285714285714,496.3947886297376 505.85714285714283,496.29344023323614 508.7857142857143,496.12452623906705 511.7142857142857,495.88804664723034 514.6428571428571,495.58400145772595 517.5714285714286,495.21239067055393 520.5,494.7732142857143 523.4285714285713,494.266472303207 526.3571428571429,493.6921647230321 529.2857142857142,493.0502915451895 532.2142857142857,492.3408527696793 535.1428571428571,491.5638483965015 538.0714285714284,490.719278425656 541,489.8071428571429 543.9285714285714,488.82744169096213 546.8571428571429,487.7801749271137 549.7857142857142,486.66534256559765 552.7142857142857,485.482944606414 555.6428571428571,484.2329810495627 558.5714285714284,482.91545189504376 561.5,481.53035714285716 564.4285714285713,480.07769679300293 567.3571428571429,478.5574708454811 570.2857142857142,476.96967930029155 573.2142857142857,475.3143221574344 576.1428571428571,473.59139941690967 579.0714285714286,471.8009110787172 582,469.9428571428571 584.9285714285713,468.0172376093294 587.8571428571429,466.02405247813414 590.7857142857142,463.9633017492712 593.7142857142857,461.83498542274054 596.6428571428571,459.6391034985422 599.5714285714286,457.3756559766764 602.5,455.0446428571429 605.4285714285713,452.6460641399417 608.3571428571428,450.1799198250729 611.2857142857143,447.6462099125364 614.2142857142857,445.0449344023324 617.1428571428571,442.37609329446065 620.0714285714286,439.6396865889213 623,436.8357142857143 625.9285714285713,433.9641763848397 628.8571428571429,431.0250728862974 631.7857142857142,428.0184037900874 634.7142857142857,424.94416909620986 637.6428571428571,421.80236880466475 640.5714285714286,418.5930029154519 643.4999999999999,415.3160714285715 646.4285714285713,411.9715743440234 649.3571428571428,408.5595116618076 652.2857142857142,405.0798833819242 655.2142857142858,401.53268950437314 658.1428571428571,397.9179300291545 661.0714285714286,394.23560495626816 664,390.48571428571427 666.9285714285714,386.6682580174927 669.8571428571428,382.78323615160355 672.7857142857142,378.8306486880467 675.7142857142857,374.8104956268222 678.6428571428571,370.72277696793003 681.5714285714284,366.5674927113703 684.4999999999999,362.34464285714296 687.4285714285713,358.05422740524796 690.3571428571429,353.69624635568505 693.2857142857143,349.27069970845474 696.2142857142857,344.7775874635568 699.1428571428571,340.2169096209912 702.0714285714286,335.58866618075797 705,330.8928571428571 707.9285714285713,326.1294825072887 710.8571428571428,321.2985422740525 713.7857142857142,316.40003644314874 716.7142857142857,311.4339650145773 719.642857142857,306.4003279883383 722.5714285714286,301.2991253644314 725.5,296.13035714285706 728.4285714285714,290.8940233236151 731.3571428571429,285.5901239067055 734.2857142857142,280.21865889212825 737.2142857142857,274.77962827988335 740.1428571428571,269.27303206997084 743.0714285714286,263.6988702623907 745.9999999999999,258.05714285714294 748.9285714285713,252.3478498542275 751.8571428571428,246.57099125364442 754.7857142857142,240.72656705539367 757.7142857142858,234.81457725947507 760.6428571428571,228.83502186588913 763.5714285714286,222.78790087463545 766.5,216.67321428571427 769.4285714285714,210.49096209912528 772.3571428571428,204.2411443148688 775.2857142857142,197.92376093294467 778.2142857142857,191.53881195335282 781.1428571428571,185.08629737609334 784.0714285714284,178.5662172011663 786.9999999999999,171.97857142857157 789.9285714285713,165.32336005830916 792.8571428571429,158.6005830903789 795.7857142857143,151.81024052478125 798.7142857142857,144.95233236151597 801.6428571428571,138.02685860058307 804.5714285714286,131.03381924198254 807.5,123.97321428571428 810.4285714285713,116.8450437317785 813.3571428571428,109.64930758017499 816.2857142857142,102.38600583090385 819.2142857142857,95.05513848396515 822.142857142857,87.65670553935877 825.0714285714286,80.19070699708442 828,72.65714285714273 830.9285714285714,65.05601311953347 833.8571428571429,57.38731778425654 836.7857142857142,49.65105685131198 839.7142857142857,41.84723032069974 842.6428571428571,33.975838192419815 845.5714285714286,26.03688046647244 848.4999999999999,18.030357142857156 851.4285714285713,9.956268221574419 854.3571428571428,1.8146137026240012 857.2857142857142,-6.3946064139939836 860.2142857142857,-14.67139212827999 863.1428571428571,-23.015743440233337 866.0714285714286,-31.42766034985425 869,-39.90714285714296 871.9285714285714,-48.45419096209923 874.8571428571428,-57.068804664723075 877.7857142857142,-65.7509839650146 880.7142857142857,-74.50072886297369 883.6428571428571,-83.31803935860046 886.5714285714284,-92.20291545189491 889.4999999999999,-101.15535714285704 892.4285714285713,-110.17536443148663 895.3571428571429,-119.26293731778435 898.2857142857142,-128.4180758017494 901.2142857142857,-137.64077988338204 904.1428571428571,-146.93104956268235 907.0714285714286,-156.2888848396501 910,-165.71428571428567"/><polyline class="lineB" points="90,128.57142857142856 92.92857142857142,130.1479591836735 95.85714285714283,131.72448979591837 98.78571428571425,133.30102040816325 101.71428571428574,134.87755102040813 104.64285714285715,136.45408163265313 107.57142857142857,138.03061224489795 110.49999999999999,139.6071428571429 113.4285714285714,141.1836734693877 116.35714285714289,142.7602040816327 119.2857142857143,144.3367346938776 122.21428571428572,145.91326530612247 125.14285714285714,147.48979591836735 128.07142857142856,149.06632653061223 130.99999999999997,150.64285714285717 133.92857142857144,152.21938775510205 136.85714285714286,153.79591836734699 139.78571428571428,155.3724489795918 142.71428571428572,156.9489795918368 145.6428571428571,158.52551020408163 148.57142857142856,160.10204081632656 151.50000000000003,161.67857142857144 154.42857142857144,163.25510204081633 157.35714285714286,164.83163265306126 160.28571428571428,166.40816326530614 163.2142857142857,167.98469387755102 166.1428571428571,169.5612244897959 169.07142857142858,171.1377551020409 172,172.71428571428572 174.92857142857144,174.29081632653066 177.85714285714283,175.86734693877548 180.78571428571428,177.44387755102042 183.71428571428572,179.02040816326536 186.64285714285717,180.59693877551024 189.57142857142856,182.17346938775512 192.5,183.75 195.42857142857142,185.32653061224488 198.35714285714283,186.90306122448982 201.28571428571425,188.4795918367347 204.21428571428572,190.05612244897958 207.14285714285714,191.63265306122452 210.07142857142856,193.20918367346934 213,194.78571428571433 215.9285714285714,196.36224489795916 218.8571428571429,197.9387755102041 221.7857142857143,199.51530612244898 224.71428571428572,201.0918367346939 227.64285714285714,202.6683673469388 230.57142857142856,204.24489795918367 233.5,205.82142857142856 236.42857142857142,207.39795918367344 239.35714285714283,208.97448979591837 242.28571428571428,210.55102040816325 245.2142857142857,212.1275510204082 248.14285714285714,213.70408163265307 251.07142857142856,215.280612244898 253.99999999999997,216.8571428571429 256.92857142857144,218.43367346938777 259.8571428571429,220.01020408163265 262.7857142857143,221.58673469387753 265.7142857142857,223.16326530612247 268.6428571428571,224.73979591836735 271.57142857142856,226.31632653061223 274.5,227.8928571428571 277.42857142857144,229.4693877551021 280.35714285714283,231.04591836734693 283.2857142857143,232.62244897959187 286.21428571428567,234.19897959183675 289.1428571428571,235.77551020408163 292.07142857142856,237.35204081632656 295,238.92857142857144 297.92857142857144,240.50510204081633 300.8571428571429,242.0816326530612 303.7857142857143,243.6581632653061 306.71428571428567,245.23469387755102 309.6428571428571,246.81122448979596 312.57142857142856,248.38775510204079 315.5,249.96428571428572 318.42857142857144,251.54081632653066 321.35714285714283,253.11734693877554 324.2857142857142,254.69387755102042 327.21428571428567,256.2704081632653 330.1428571428571,257.84693877551024 333.07142857142856,259.4234693877551 336,261 338.92857142857144,262.5765306122449 341.85714285714283,264.15306122448976 344.7857142857143,265.7295918367347 347.71428571428567,267.30612244897964 350.64285714285717,268.8826530612245 353.57142857142856,270.4591836734694 356.5,272.03571428571433 359.42857142857144,273.6122448979592 362.35714285714283,275.1887755102041 365.2857142857143,276.765306122449 368.21428571428567,278.34183673469386 371.1428571428571,279.9183673469388 374.07142857142856,281.4948979591837 377,283.0714285714286 379.9285714285714,284.6479591836735 382.85714285714283,286.2244897959184 385.7857142857142,287.80102040816325 388.71428571428567,289.37755102040813 391.64285714285717,290.9540816326531 394.57142857142856,292.53061224489795 397.5,294.1071428571429 400.4285714285714,295.68367346938777 403.35714285714283,297.26020408163265 406.2857142857143,298.8367346938776 409.2142857142857,300.41326530612247 412.1428571428571,301.98979591836735 415.07142857142856,303.56632653061223 417.99999999999994,305.14285714285717 420.9285714285714,306.71938775510205 423.8571428571429,308.295918367347 426.7857142857143,309.87244897959187 429.7142857142857,311.44897959183675 432.6428571428571,313.0255102040816 435.57142857142856,314.6020408163265 438.49999999999994,316.17857142857144 441.42857142857144,317.7551020408164 444.35714285714283,319.3316326530612 447.2857142857143,320.90816326530614 450.21428571428567,322.484693877551 453.1428571428571,324.0612244897959 456.0714285714285,325.63775510204084 459,327.2142857142857 461.92857142857144,328.7908163265306 464.85714285714283,330.36734693877554 467.7857142857143,331.9438775510204 470.71428571428567,333.5204081632653 473.6428571428571,335.0969387755102 476.57142857142856,336.6734693877551 479.5,338.25 482.4285714285714,339.82653061224494 485.35714285714283,341.40306122448976 488.2857142857142,342.9795918367347 491.21428571428567,344.5561224489796 494.1428571428571,346.1326530612245 497.07142857142856,347.7091836734694 500,349.2857142857143 502.9285714285714,350.86224489795916 505.85714285714283,352.4387755102041 508.7857142857143,354.01530612244903 511.7142857142857,355.59183673469386 514.6428571428571,357.1683673469388 517.5714285714286,358.7448979591837 520.5,360.32142857142856 523.4285714285713,361.8979591836735 526.3571428571429,363.47448979591843 529.2857142857142,365.05102040816325 532.2142857142857,366.6275510204082 535.1428571428571,368.2040816326531 538.0714285714284,369.78061224489795 541,371.3571428571429 543.9285714285714,372.93367346938777 546.8571428571429,374.51020408163265 549.7857142857142,376.0867346938776 552.7142857142857,377.6632653061224 555.6428571428571,379.23979591836735 558.5714285714284,380.81632653061223 561.5,382.39285714285717 564.4285714285713,383.96938775510205 567.3571428571429,385.545918367347 570.2857142857142,387.1224489795918 573.2142857142857,388.69897959183675 576.1428571428571,390.2755102040816 579.0714285714286,391.8520408163265 582,393.42857142857144 584.9285714285713,395.0051020408163 587.8571428571429,396.5816326530612 590.7857142857142,398.15816326530614 593.7142857142857,399.73469387755097 596.6428571428571,401.3112244897959 599.5714285714286,402.88775510204084 602.5,404.4642857142857 605.4285714285713,406.0408163265306 608.3571428571428,407.61734693877554 611.2857142857143,409.1938775510204 614.2142857142857,410.7704081632653 617.1428571428571,412.34693877551024 620.0714285714286,413.9234693877551 623,415.5 625.9285714285713,417.0765306122449 628.8571428571429,418.6530612244898 631.7857142857142,420.2295918367347 634.7142857142857,421.80612244897964 637.6428571428571,423.38265306122446 640.5714285714286,424.9591836734694 643.4999999999999,426.5357142857143 646.4285714285713,428.11224489795916 649.3571428571428,429.6887755102041 652.2857142857142,431.2653061224489 655.2142857142858,432.8418367346939 658.1428571428571,434.4183673469388 661.0714285714286,435.99489795918373 664,437.57142857142856 666.9285714285714,439.1479591836735 669.8571428571428,440.7244897959184 672.7857142857142,442.30102040816325 675.7142857142857,443.8775510204082 678.6428571428571,445.454081632653 681.5714285714284,447.03061224489795 684.4999999999999,448.60714285714283 687.4285714285713,450.1836734693877 690.3571428571429,451.76020408163265 693.2857142857143,453.3367346938776 696.2142857142857,454.91326530612247 699.1428571428571,456.48979591836735 702.0714285714286,458.0663265306123 705,459.6428571428571 707.9285714285713,461.21938775510205 710.8571428571428,462.7959183673469 713.7857142857142,464.3724489795918 716.7142857142857,465.94897959183675 719.642857142857,467.5255102040816 722.5714285714286,469.10204081632656 725.5,470.67857142857144 728.4285714285714,472.2551020408164 731.3571428571429,473.83163265306126 734.2857142857142,475.40816326530614 737.2142857142857,476.984693877551 740.1428571428571,478.5612244897959 743.0714285714286,480.13775510204084 745.9999999999999,481.7142857142857 748.9285714285713,483.2908163265306 751.8571428571428,484.8673469387755 754.7857142857142,486.44387755102036 757.7142857142858,488.02040816326536 760.6428571428571,489.59693877551024 763.5714285714286,491.1734693877551 766.5,492.75 769.4285714285714,494.32653061224494 772.3571428571428,495.9030612244898 775.2857142857142,497.4795918367347 778.2142857142857,499.0561224489796 781.1428571428571,500.63265306122446 784.0714285714284,502.2091836734694 786.9999999999999,503.7857142857143 789.9285714285713,505.36224489795916 792.8571428571429,506.9387755102041 795.7857142857143,508.51530612244903 798.7142857142857,510.0918367346939 801.6428571428571,511.6683673469388 804.5714285714286,513.2448979591837 807.5,514.8214285714286 810.4285714285713,516.3979591836735 813.3571428571428,517.9744897959183 816.2857142857142,519.5510204081633 819.2142857142857,521.1275510204082 822.142857142857,522.704081632653 825.0714285714286,524.280612244898 828,525.8571428571429 830.9285714285714,527.4336734693878 833.8571428571429,529.0102040816327 836.7857142857142,530.5867346938776 839.7142857142857,532.1632653061224 842.6428571428571,533.7397959183673 845.5714285714286,535.3163265306123 848.4999999999999,536.8928571428571 851.4285714285713,538.469387755102 854.3571428571428,540.0459183673469 857.2857142857142,541.6224489795918 860.2142857142857,543.1989795918367 863.1428571428571,544.7755102040817 866.0714285714286,546.3520408163265 869,547.9285714285714 871.9285714285714,549.5051020408164 874.8571428571428,551.0816326530612 877.7857142857142,552.6581632653061 880.7142857142857,554.234693877551 883.6428571428571,555.8112244897959 886.5714285714284,557.3877551020408 889.4999999999999,558.9642857142857 892.4285714285713,560.5408163265306 895.3571428571429,562.1173469387755 898.2857142857142,563.6938775510205 901.2142857142857,565.2704081632653 904.1428571428571,566.8469387755102 907.0714285714286,568.4234693877551 910,570"/><text class="label" x="178.83333333333331" y="113.85714285714283">y = x^2</text><text class="label" x="670.8333333333333" y="411.82142857142856">y = -x + 2</text><circle class="ptC" cx="226.66666666666666" cy="202.14285714285717" r="7.5"/><circle class="ptC" cx="636.6666666666666" cy="422.8571428571429" r="7.5"/><text class="label" x="238.66666666666666" y="190.14285714285717">(-2, 4)</text><text class="label" x="648.6666666666666" y="410.8571428571429">(1, 1)</text>
</svg>