<?xml version="1.0" encoding="UTF-8"?>
<svg xmlns="http://www.w3.org/2000/svg" viewBox="0 0 960 640" width="960" height="640" role="img" aria-labelledby="title desc">
<title id="title">Check-In #2: Coordinate Plane Review</title>
<desc id="desc">Generated Algebra 1A course visual.</desc>
<style>
  text { font-family: -apple-system, BlinkMacSystemFont, 'Segoe UI', sans-serif; fill: #0f172a; }
  .title { font-size: 30px; font-weight: 700; }
  .subtitle { font-size: 15px; fill: #475569; }
  .axis { stroke: #0f172a; stroke-width: 2.5; }
  .grid { stroke: #cbd5e1; stroke-width: 1; }
  .tick { font-size: 13px; fill: #475569; }
  .label { font-size: 16px; font-weight: 600; }
  .lineA { stroke: #0f766e; stroke-width: 4; fill: none; }
  .lineB { stroke: #f97316; stroke-width: 4; fill: none; }
  .lineC { stroke: #2563eb; stroke-width: 4; fill: none; }
  .shadeA { fill: rgba(15,118,110,0.16); }
  .shadeB { fill: rgba(37,99,235,0.16); }
  .ptA { fill: #0f766e; stroke: #ffffff; stroke-width: 2; }
  .ptB { fill: #f97316; stroke: #ffffff; stroke-width: 2; }
  .ptC { fill: #2563eb; stroke: #ffffff; stroke-width: 2; }
  .note { font-size: 15px; fill: #334155; }
  .box { fill: #ffffff; stroke: #94a3b8; stroke-width: 2; rx: 18; }
  .dashed { fill: #f8fafc; stroke: #64748b; stroke-width: 3; stroke-dasharray: 12 10; rx: 20; }
</style>
<rect x="0" y="0" width="960" height="640" fill="#f8fafc"/><rect class="box" x="20" y="20" width="920" height="600"/><text class="title" x="44" y="62">Check-In #2: Coordinate Plane Review</text><text class="subtitle" x="44" y="88">Generated sample solution for plotting five ordered pairs</text><line class="grid" x1="90" y1="570" x2="90" y2="55"/><text class="tick" x="90" y="393.9230769230769" text-anchor="middle">-8</text><line class="grid" x1="144.66666666666666" y1="570" x2="144.66666666666666" y2="55"/><text class="tick" x="144.66666666666666" y="393.9230769230769" text-anchor="middle">-7</text><line class="grid" x1="199.33333333333331" y1="570" x2="199.33333333333331" y2="55"/><text class="tick" x="199.33333333333331" y="393.9230769230769" text-anchor="middle">-6</text><line class="grid" x1="254" y1="570" x2="254" y2="55"/><text class="tick" x="254" y="393.9230769230769" text-anchor="middle">-5</text><line class="grid" x1="308.66666666666663" y1="570" x2="308.66666666666663" y2="55"/><text class="tick" x="308.66666666666663" y="393.9230769230769" text-anchor="middle">-4</text><line class="grid" x1="363.3333333333333" y1="570" x2="363.3333333333333" y2="55"/><text class="tick" x="363.3333333333333" y="393.9230769230769" text-anchor="middle">-3</text><line class="grid" x1="418" y1="570" x2="418" y2="55"/><text class="tick" x="418" y="393.9230769230769" text-anchor="middle">-2</text><line class="grid" x1="472.66666666666663" y1="570" x2="472.66666666666663" y2="55"/><text class="tick" x="472.66666666666663" y="393.9230769230769" text-anchor="middle">-1</text><line class="grid" x1="527.3333333333333" y1="570" x2="527.3333333333333" y2="55"/><line class="grid" x1="582" y1="570" x2="582" y2="55"/><text class="tick" x="582" y="393.9230769230769" text-anchor="middle">1</text><line class="grid" x1="636.6666666666666" y1="570" x2="636.6666666666666" y2="55"/><text class="tick" x="636.6666666666666" y="393.9230769230769" text-anchor="middle">2</text><line class="grid" x1="691.3333333333333" y1="570" x2="691.3333333333333" y2="55"/><text class="tick" x="691.3333333333333" y="393.9230769230769" text-anchor="middle">3</text><line class="grid" x1="746" y1="570" x2="746" y2="55"/><text class="tick" x="746" y="393.9230769230769" text-anchor="middle">4</text><line class="grid" x1="800.6666666666666" y1="570" x2="800.6666666666666" y2="55"/><text class="tick" x="800.6666666666666" y="393.9230769230769" text-anchor="middle">5</text><line class="grid" x1="855.3333333333333" y1="570" x2="855.3333333333333" y2="55"/><text class="tick" x="855.3333333333333" y="393.9230769230769" text-anchor="middle">6</text><line class="grid" x1="910" y1="570" x2="910" y2="55"/><text class="tick" x="910" y="393.9230769230769" text-anchor="middle">7</text><line class="grid" x1="90" y1="570" x2="910" y2="570"/><text class="tick" x="511.33333333333326" y="575" text-anchor="end">-5</text><line class="grid" x1="90" y1="530.3846153846154" x2="910" y2="530.3846153846154"/><text class="tick" x="511.33333333333326" y="535.3846153846154" text-anchor="end">-4</text><line class="grid" x1="90" y1="490.7692307692308" x2="910" y2="490.7692307692308"/><text class="tick" x="511.33333333333326" y="495.7692307692308" text-anchor="end">-3</text><line class="grid" x1="90" y1="451.1538461538462" x2="910" y2="451.1538461538462"/><text class="tick" x="511.33333333333326" y="456.1538461538462" text-anchor="end">-2</text><line class="grid" x1="90" y1="411.53846153846155" x2="910" y2="411.53846153846155"/><text class="tick" x="511.33333333333326" y="416.53846153846155" text-anchor="end">-1</text><line class="grid" x1="90" y1="371.9230769230769" x2="910" y2="371.9230769230769"/><line class="grid" x1="90" y1="332.3076923076923" x2="910" y2="332.3076923076923"/><text class="tick" x="511.33333333333326" y="337.3076923076923" text-anchor="end">1</text><line class="grid" x1="90" y1="292.69230769230774" x2="910" y2="292.69230769230774"/><text class="tick" x="511.33333333333326" y="297.69230769230774" text-anchor="end">2</text><line class="grid" x1="90" y1="253.0769230769231" x2="910" y2="253.0769230769231"/><text class="tick" x="511.33333333333326" y="258.0769230769231" text-anchor="end">3</text><line class="grid" x1="90" y1="213.46153846153845" x2="910" y2="213.46153846153845"/><text class="tick" x="511.33333333333326" y="218.46153846153845" text-anchor="end">4</text><line class="grid" x1="90" y1="173.84615384615387" x2="910" y2="173.84615384615387"/><text class="tick" x="511.33333333333326" y="178.84615384615387" text-anchor="end">5</text><line class="grid" x1="90" y1="134.23076923076928" x2="910" y2="134.23076923076928"/><text class="tick" x="511.33333333333326" y="139.23076923076928" text-anchor="end">6</text><line class="grid" x1="90" y1="94.61538461538464" x2="910" y2="94.61538461538464"/><text class="tick" x="511.33333333333326" y="99.61538461538464" text-anchor="end">7</text><line class="grid" x1="90" y1="55" x2="910" y2="55"/><text class="tick" x="511.33333333333326" y="60" text-anchor="end">8</text><line class="axis" x1="90" y1="371.9230769230769" x2="910" y2="371.9230769230769"/><line class="axis" x1="527.3333333333333" y1="570" x2="527.3333333333333" y2="55"/><text class="label" x="900" y="359.9230769230769" text-anchor="end">x</text><text class="label" x="539.3333333333333" y="73">y</text><text class="tick" x="515.3333333333333" y="393.9230769230769" text-anchor="end">0</text><circle class="ptA" cx="636.6666666666666" cy="332.3076923076923" r="7.5"/><text class="label" x="646.6666666666666" y="320.3076923076923">(2, 1)</text><circle class="ptB" cx="363.3333333333333" cy="94.61538461538464" r="7.5"/><text class="label" x="373.3333333333333" y="82.61538461538464">(-3, 7)</text><circle class="ptC" cx="800.6666666666666" cy="490.7692307692308" r="7.5"/><text class="label" x="810.6666666666666" y="478.7692307692308">(5, -3)</text><circle class="ptA" cx="855.3333333333333" cy="292.69230769230774" r="7.5"/><text class="label" x="783.3333333333333" y="280.69230769230774">(6, 2)</text><circle class="ptB" cx="144.66666666666666" cy="530.3846153846154" r="7.5"/><text class="label" x="154.66666666666666" y="518.3846153846154">(-7, -4)</text>
</svg>