<?xml version="1.0" encoding="UTF-8"?>
<svg xmlns="http://www.w3.org/2000/svg" viewBox="0 0 960 640" width="960" height="640" role="img" aria-labelledby="title desc">
<title id="title">Check-In #2: Linear Forms</title>
<desc id="desc">Generated Algebra 1A course visual.</desc>
<style>
  text { font-family: -apple-system, BlinkMacSystemFont, 'Segoe UI', sans-serif; fill: #0f172a; }
  .title { font-size: 30px; font-weight: 700; }
  .subtitle { font-size: 15px; fill: #475569; }
  .axis { stroke: #0f172a; stroke-width: 2.5; }
  .grid { stroke: #cbd5e1; stroke-width: 1; }
  .tick { font-size: 13px; fill: #475569; }
  .label { font-size: 16px; font-weight: 600; }
  .lineA { stroke: #0f766e; stroke-width: 4; fill: none; }
  .lineB { stroke: #f97316; stroke-width: 4; fill: none; }
  .lineC { stroke: #2563eb; stroke-width: 4; fill: none; }
  .shadeA { fill: rgba(15,118,110,0.16); }
  .shadeB { fill: rgba(37,99,235,0.16); }
  .ptA { fill: #0f766e; stroke: #ffffff; stroke-width: 2; }
  .ptB { fill: #f97316; stroke: #ffffff; stroke-width: 2; }
  .ptC { fill: #2563eb; stroke: #ffffff; stroke-width: 2; }
  .note { font-size: 15px; fill: #334155; }
  .box { fill: #ffffff; stroke: #94a3b8; stroke-width: 2; rx: 18; }
  .dashed { fill: #f8fafc; stroke: #64748b; stroke-width: 3; stroke-dasharray: 12 10; rx: 20; }
</style>
<rect x="0" y="0" width="960" height="640" fill="#f8fafc"/><rect class="box" x="20" y="20" width="920" height="600"/><text class="title" x="44" y="62">Check-In #2: Linear Forms</text><text class="subtitle" x="44" y="88">Generated example graph for pea production y = 5x + 3</text><line class="grid" x1="90" y1="570" x2="90" y2="55"/><line class="grid" x1="254" y1="570" x2="254" y2="55"/><text class="tick" x="254" y="592" text-anchor="middle">1</text><line class="grid" x1="418" y1="570" x2="418" y2="55"/><text class="tick" x="418" y="592" text-anchor="middle">2</text><line class="grid" x1="582" y1="570" x2="582" y2="55"/><text class="tick" x="582" y="592" text-anchor="middle">3</text><line class="grid" x1="746" y1="570" x2="746" y2="55"/><text class="tick" x="746" y="592" text-anchor="middle">4</text><line class="grid" x1="910" y1="570" x2="910" y2="55"/><text class="tick" x="910" y="592" text-anchor="middle">5</text><line class="grid" x1="90" y1="570" x2="910" y2="570"/><line class="grid" x1="90" y1="484.16666666666663" x2="910" y2="484.16666666666663"/><text class="tick" x="74" y="489.16666666666663" text-anchor="end">5</text><line class="grid" x1="90" y1="398.3333333333333" x2="910" y2="398.3333333333333"/><text class="tick" x="74" y="403.3333333333333" text-anchor="end">10</text><line class="grid" x1="90" y1="312.5" x2="910" y2="312.5"/><text class="tick" x="74" y="317.5" text-anchor="end">15</text><line class="grid" x1="90" y1="226.66666666666663" x2="910" y2="226.66666666666663"/><text class="tick" x="74" y="231.66666666666663" text-anchor="end">20</text><line class="grid" x1="90" y1="140.83333333333331" x2="910" y2="140.83333333333331"/><text class="tick" x="74" y="145.83333333333331" text-anchor="end">25</text><line class="grid" x1="90" y1="55" x2="910" y2="55"/><text class="tick" x="74" y="60" text-anchor="end">30</text><line class="axis" x1="90" y1="570" x2="910" y2="570"/><line class="axis" x1="90" y1="570" x2="90" y2="55"/><text class="label" x="900" y="558" text-anchor="end">day</text><text class="label" x="102" y="73">new peas</text><text class="tick" x="78" y="592" text-anchor="end">0</text><polyline class="lineB" points="90,518.5 93.41666666666667,516.7118055555555 96.83333333333333,514.9236111111111 100.25,513.1354166666666 103.66666666666667,511.34722222222223 107.08333333333334,509.55902777777777 110.5,507.7708333333333 113.91666666666667,505.9826388888889 117.33333333333333,504.19444444444446 120.75,502.40625 124.16666666666667,500.61805555555554 127.58333333333333,498.8298611111111 131,497.04166666666663 134.41666666666666,495.25347222222223 137.83333333333334,493.46527777777777 141.25,491.6770833333333 144.66666666666666,489.8888888888889 148.08333333333334,488.10069444444446 151.5,486.3125 154.91666666666666,484.52430555555554 158.33333333333334,482.7361111111111 161.75,480.94791666666663 165.16666666666666,479.15972222222223 168.58333333333334,477.37152777777777 172,475.5833333333333 175.41666666666669,473.79513888888886 178.83333333333331,472.00694444444446 182.25,470.21875 185.66666666666669,468.43055555555554 189.08333333333331,466.6423611111111 192.5,464.85416666666663 195.91666666666669,463.06597222222223 199.33333333333331,461.27777777777777 202.75,459.4895833333333 206.16666666666669,457.70138888888886 209.58333333333331,455.91319444444446 213,454.125 216.41666666666669,452.33680555555554 219.83333333333331,450.5486111111111 223.25,448.76041666666663 226.66666666666669,446.97222222222223 230.08333333333331,445.18402777777777 233.5,443.3958333333333 236.91666666666669,441.6076388888889 240.33333333333331,439.81944444444446 243.75,438.03125 247.16666666666669,436.24305555555554 250.58333333333331,434.4548611111111 254,432.66666666666663 257.41666666666663,430.87847222222223 260.83333333333337,429.09027777777777 264.25,427.3020833333333 267.66666666666663,425.5138888888889 271.08333333333337,423.72569444444446 274.5,421.9375 277.91666666666663,420.14930555555554 281.33333333333337,418.3611111111111 284.75,416.57291666666663 288.16666666666663,414.78472222222223 291.58333333333337,412.9965277777777 295,411.2083333333333 298.41666666666663,409.4201388888889 301.83333333333337,407.63194444444446 305.25,405.84375 308.66666666666663,404.05555555555554 312.08333333333337,402.2673611111111 315.5,400.47916666666663 318.91666666666663,398.69097222222223 322.33333333333337,396.9027777777777 325.75,395.1145833333333 329.16666666666663,393.3263888888889 332.58333333333337,391.53819444444446 336,389.75 339.41666666666663,387.96180555555554 342.83333333333337,386.1736111111111 346.25,384.38541666666663 349.66666666666663,382.59722222222223 353.08333333333337,380.8090277777777 356.5,379.0208333333333 359.91666666666663,377.2326388888889 363.33333333333337,375.44444444444446 366.75,373.65625 370.16666666666663,371.86805555555554 373.58333333333337,370.0798611111111 377,368.29166666666663 380.41666666666663,366.50347222222223 383.83333333333337,364.7152777777777 387.25,362.9270833333333 390.66666666666663,361.1388888888889 394.08333333333337,359.35069444444446 397.5,357.5625 400.91666666666663,355.77430555555554 404.33333333333337,353.9861111111111 407.75,352.19791666666663 411.16666666666663,350.40972222222223 414.58333333333337,348.6215277777777 418,346.8333333333333 421.4166666666667,345.04513888888886 424.8333333333333,343.25694444444446 428.25,341.46875 431.6666666666667,339.68055555555554 435.0833333333333,337.8923611111111 438.5,336.10416666666663 441.9166666666667,334.3159722222222 445.3333333333333,332.52777777777777 448.75,330.7395833333333 452.1666666666667,328.95138888888886 455.5833333333333,327.16319444444446 459,325.375 462.4166666666667,323.58680555555554 465.8333333333333,321.7986111111111 469.25,320.01041666666663 472.6666666666667,318.2222222222222 476.0833333333333,316.43402777777777 479.5,314.6458333333333 482.9166666666667,312.85763888888886 486.3333333333333,311.06944444444446 489.75,309.28125 493.1666666666667,307.49305555555554 496.5833333333333,305.7048611111111 500,303.91666666666663 503.4166666666667,302.1284722222222 506.8333333333333,300.34027777777777 510.25,298.5520833333333 513.6666666666667,296.76388888888886 517.0833333333333,294.97569444444446 520.5,293.1875 523.9166666666667,291.39930555555554 527.3333333333333,289.6111111111111 530.75,287.82291666666663 534.1666666666667,286.0347222222222 537.5833333333333,284.24652777777777 541,282.4583333333333 544.4166666666667,280.67013888888886 547.8333333333333,278.88194444444446 551.25,277.09375 554.6666666666667,275.30555555555554 558.0833333333333,273.5173611111111 561.5,271.72916666666663 564.9166666666667,269.9409722222222 568.3333333333333,268.15277777777777 571.75,266.3645833333333 575.1666666666667,264.57638888888886 578.5833333333333,262.78819444444446 582,261 585.4166666666667,259.2118055555555 588.8333333333333,257.4236111111111 592.25,255.63541666666663 595.6666666666667,253.84722222222217 599.0833333333333,252.05902777777777 602.5,250.27083333333331 605.9166666666667,248.48263888888886 609.3333333333333,246.69444444444446 612.75,244.90625 616.1666666666667,243.1180555555555 619.5833333333333,241.3298611111111 623,239.54166666666663 626.4166666666667,237.75347222222217 629.8333333333333,235.96527777777777 633.25,234.17708333333331 636.6666666666667,232.38888888888886 640.0833333333333,230.60069444444446 643.5,228.8125 646.9166666666667,227.0243055555555 650.3333333333333,225.2361111111111 653.75,223.44791666666663 657.1666666666667,221.65972222222217 660.5833333333333,219.87152777777777 664,218.08333333333331 667.4166666666667,216.29513888888886 670.8333333333333,214.50694444444446 674.25,212.71875 677.6666666666667,210.9305555555555 681.0833333333333,209.1423611111111 684.5,207.35416666666663 687.9166666666667,205.56597222222217 691.3333333333333,203.77777777777777 694.75,201.98958333333331 698.1666666666667,200.20138888888886 701.5833333333333,198.41319444444446 705,196.625 708.4166666666667,194.8368055555555 711.8333333333333,193.0486111111111 715.25,191.26041666666663 718.6666666666667,189.47222222222217 722.0833333333333,187.68402777777777 725.5,185.89583333333331 728.9166666666667,184.10763888888886 732.3333333333333,182.31944444444446 735.75,180.53125 739.1666666666667,178.7430555555555 742.5833333333333,176.9548611111111 746,175.16666666666663 749.4166666666666,173.37847222222223 752.8333333333334,171.59027777777771 756.25,169.80208333333331 759.6666666666666,168.0138888888889 763.0833333333334,166.2256944444444 766.5,164.4375 769.9166666666666,162.64930555555554 773.3333333333334,160.86111111111103 776.75,159.07291666666663 780.1666666666666,157.28472222222223 783.5833333333334,155.49652777777771 787,153.70833333333331 790.4166666666666,151.9201388888889 793.8333333333334,150.1319444444444 797.25,148.34374999999994 800.6666666666666,146.55555555555554 804.0833333333334,144.76736111111103 807.5,142.97916666666663 810.9166666666666,141.19097222222223 814.3333333333334,139.40277777777771 817.75,137.61458333333331 821.1666666666666,135.8263888888889 824.5833333333334,134.0381944444444 828,132.24999999999994 831.4166666666666,130.46180555555554 834.8333333333334,128.67361111111103 838.25,126.88541666666663 841.6666666666666,125.09722222222223 845.0833333333334,123.30902777777771 848.5,121.52083333333331 851.9166666666666,119.73263888888891 855.3333333333334,117.9444444444444 858.75,116.15624999999994 862.1666666666666,114.36805555555554 865.5833333333334,112.57986111111103 869,110.79166666666663 872.4166666666666,109.00347222222223 875.8333333333334,107.21527777777771 879.25,105.42708333333331 882.6666666666666,103.63888888888891 886.0833333333334,101.85069444444434 889.5,100.06249999999994 892.9166666666666,98.27430555555554 896.3333333333334,96.48611111111103 899.75,94.69791666666663 903.1666666666666,92.90972222222223 906.5833333333334,91.12152777777771 910,89.33333333333331"/><text class="label" x="516.4000000000001" y="261">y = 5x + 3</text><circle class="ptB" cx="90" cy="518.5" r="7.5"/><text class="label" x="100" y="506.5">(0, 3)</text><circle class="ptA" cx="254" cy="432.66666666666663" r="7.5"/><text class="label" x="264" y="420.66666666666663">(1, 8)</text><circle class="ptC" cx="418" cy="346.8333333333333" r="7.5"/><text class="label" x="428" y="334.8333333333333">(2, 13)</text>
</svg>