<?xml version="1.0" encoding="UTF-8"?>
<svg xmlns="http://www.w3.org/2000/svg" viewBox="0 0 960 640" width="960" height="640" role="img" aria-labelledby="title desc">
<title id="title">Check-In #2: Graph y = 3x - 2</title>
<desc id="desc">Generated Algebra 1A course visual.</desc>
<style>
  text { font-family: -apple-system, BlinkMacSystemFont, 'Segoe UI', sans-serif; fill: #0f172a; }
  .title { font-size: 30px; font-weight: 700; }
  .subtitle { font-size: 15px; fill: #475569; }
  .axis { stroke: #0f172a; stroke-width: 2.5; }
  .grid { stroke: #cbd5e1; stroke-width: 1; }
  .tick { font-size: 13px; fill: #475569; }
  .label { font-size: 16px; font-weight: 600; }
  .lineA { stroke: #0f766e; stroke-width: 4; fill: none; }
  .lineB { stroke: #f97316; stroke-width: 4; fill: none; }
  .lineC { stroke: #2563eb; stroke-width: 4; fill: none; }
  .shadeA { fill: rgba(15,118,110,0.16); }
  .shadeB { fill: rgba(37,99,235,0.16); }
  .ptA { fill: #0f766e; stroke: #ffffff; stroke-width: 2; }
  .ptB { fill: #f97316; stroke: #ffffff; stroke-width: 2; }
  .ptC { fill: #2563eb; stroke: #ffffff; stroke-width: 2; }
  .note { font-size: 15px; fill: #334155; }
  .box { fill: #ffffff; stroke: #94a3b8; stroke-width: 2; rx: 18; }
  .dashed { fill: #f8fafc; stroke: #64748b; stroke-width: 3; stroke-dasharray: 12 10; rx: 20; }
</style>
<rect x="0" y="0" width="960" height="640" fill="#f8fafc"/><rect class="box" x="20" y="20" width="920" height="600"/><text class="title" x="44" y="62">Check-In #2: Graph y = 3x - 2</text><text class="subtitle" x="44" y="88">Generated sample line using five plotted points</text><line class="grid" x1="90" y1="570" x2="90" y2="55"/><text class="tick" x="90" y="420.33333333333337" text-anchor="middle">-2</text><line class="grid" x1="207.14285714285714" y1="570" x2="207.14285714285714" y2="55"/><text class="tick" x="207.14285714285714" y="420.33333333333337" text-anchor="middle">-1</text><line class="grid" x1="324.2857142857143" y1="570" x2="324.2857142857143" y2="55"/><line class="grid" x1="441.42857142857144" y1="570" x2="441.42857142857144" y2="55"/><text class="tick" x="441.42857142857144" y="420.33333333333337" text-anchor="middle">1</text><line class="grid" x1="558.5714285714286" y1="570" x2="558.5714285714286" y2="55"/><text class="tick" x="558.5714285714286" y="420.33333333333337" text-anchor="middle">2</text><line class="grid" x1="675.7142857142857" y1="570" x2="675.7142857142857" y2="55"/><text class="tick" x="675.7142857142857" y="420.33333333333337" text-anchor="middle">3</text><line class="grid" x1="792.8571428571429" y1="570" x2="792.8571428571429" y2="55"/><text class="tick" x="792.8571428571429" y="420.33333333333337" text-anchor="middle">4</text><line class="grid" x1="910" y1="570" x2="910" y2="55"/><text class="tick" x="910" y="420.33333333333337" text-anchor="middle">5</text><line class="grid" x1="90" y1="570" x2="910" y2="570"/><text class="tick" x="308.2857142857143" y="575" text-anchor="end">-6</text><line class="grid" x1="90" y1="541.3888888888889" x2="910" y2="541.3888888888889"/><text class="tick" x="308.2857142857143" y="546.3888888888889" text-anchor="end">-5</text><line class="grid" x1="90" y1="512.7777777777778" x2="910" y2="512.7777777777778"/><text class="tick" x="308.2857142857143" y="517.7777777777778" text-anchor="end">-4</text><line class="grid" x1="90" y1="484.1666666666667" x2="910" y2="484.1666666666667"/><text class="tick" x="308.2857142857143" y="489.1666666666667" text-anchor="end">-3</text><line class="grid" x1="90" y1="455.55555555555554" x2="910" y2="455.55555555555554"/><text class="tick" x="308.2857142857143" y="460.55555555555554" text-anchor="end">-2</text><line class="grid" x1="90" y1="426.94444444444446" x2="910" y2="426.94444444444446"/><text class="tick" x="308.2857142857143" y="431.94444444444446" text-anchor="end">-1</text><line class="grid" x1="90" y1="398.33333333333337" x2="910" y2="398.33333333333337"/><line class="grid" x1="90" y1="369.72222222222223" x2="910" y2="369.72222222222223"/><text class="tick" x="308.2857142857143" y="374.72222222222223" text-anchor="end">1</text><line class="grid" x1="90" y1="341.1111111111111" x2="910" y2="341.1111111111111"/><text class="tick" x="308.2857142857143" y="346.1111111111111" text-anchor="end">2</text><line class="grid" x1="90" y1="312.5" x2="910" y2="312.5"/><text class="tick" x="308.2857142857143" y="317.5" text-anchor="end">3</text><line class="grid" x1="90" y1="283.8888888888889" x2="910" y2="283.8888888888889"/><text class="tick" x="308.2857142857143" y="288.8888888888889" text-anchor="end">4</text><line class="grid" x1="90" y1="255.27777777777777" x2="910" y2="255.27777777777777"/><text class="tick" x="308.2857142857143" y="260.27777777777777" text-anchor="end">5</text><line class="grid" x1="90" y1="226.66666666666669" x2="910" y2="226.66666666666669"/><text class="tick" x="308.2857142857143" y="231.66666666666669" text-anchor="end">6</text><line class="grid" x1="90" y1="198.05555555555554" x2="910" y2="198.05555555555554"/><text class="tick" x="308.2857142857143" y="203.05555555555554" text-anchor="end">7</text><line class="grid" x1="90" y1="169.44444444444446" x2="910" y2="169.44444444444446"/><text class="tick" x="308.2857142857143" y="174.44444444444446" text-anchor="end">8</text><line class="grid" x1="90" y1="140.83333333333331" x2="910" y2="140.83333333333331"/><text class="tick" x="308.2857142857143" y="145.83333333333331" text-anchor="end">9</text><line class="grid" x1="90" y1="112.22222222222223" x2="910" y2="112.22222222222223"/><text class="tick" x="308.2857142857143" y="117.22222222222223" text-anchor="end">10</text><line class="grid" x1="90" y1="83.61111111111114" x2="910" y2="83.61111111111114"/><text class="tick" x="308.2857142857143" y="88.61111111111114" text-anchor="end">11</text><line class="grid" x1="90" y1="55" x2="910" y2="55"/><text class="tick" x="308.2857142857143" y="60" text-anchor="end">12</text><line class="axis" x1="90" y1="398.33333333333337" x2="910" y2="398.33333333333337"/><line class="axis" x1="324.2857142857143" y1="570" x2="324.2857142857143" y2="55"/><text class="label" x="900" y="386.33333333333337" text-anchor="end">x</text><text class="label" x="336.2857142857143" y="73">y</text><text class="tick" x="312.2857142857143" y="420.33333333333337" text-anchor="end">0</text><polyline class="lineC" points="151.5,582.1597222222223 154.91666666666669,579.65625 158.33333333333334,577.1527777777778 161.75,574.6493055555555 165.16666666666666,572.1458333333334 168.58333333333334,569.6423611111111 172,567.1388888888889 175.41666666666663,564.6354166666666 178.83333333333331,562.1319444444445 182.25,559.6284722222222 185.66666666666666,557.125 189.08333333333331,554.6215277777778 192.5,552.1180555555555 195.91666666666669,549.6145833333334 199.33333333333331,547.1111111111111 202.75,544.6076388888889 206.16666666666669,542.1041666666666 209.58333333333331,539.6006944444445 213,537.0972222222222 216.41666666666666,534.59375 219.83333333333334,532.0902777777778 223.25,529.5868055555555 226.66666666666666,527.0833333333334 230.08333333333331,524.5798611111111 233.5,522.0763888888889 236.91666666666666,519.5729166666666 240.33333333333334,517.0694444444445 243.75,514.5659722222222 247.16666666666666,512.0625 250.58333333333334,509.55902777777777 253.99999999999997,507.05555555555554 257.41666666666663,504.5520833333333 260.8333333333333,502.0486111111111 264.25,499.5451388888889 267.66666666666663,497.0416666666667 271.08333333333337,494.53819444444446 274.5,492.03472222222223 277.91666666666663,489.53125 281.3333333333333,487.02777777777777 284.75,484.52430555555554 288.16666666666663,482.0208333333333 291.58333333333337,479.5173611111111 295,477.0138888888889 298.41666666666663,474.5104166666667 301.8333333333333,472.00694444444446 305.25,469.50347222222223 308.66666666666663,467 312.0833333333333,464.49652777777777 315.5,461.99305555555554 318.91666666666663,459.48958333333337 322.33333333333337,456.9861111111111 325.75,454.48263888888886 329.16666666666663,451.9791666666667 332.5833333333333,449.47569444444446 336,446.9722222222222 339.4166666666667,444.46875 342.8333333333333,441.9652777777778 346.25,439.46180555555554 349.6666666666667,436.9583333333333 353.0833333333333,434.45486111111114 356.5,431.9513888888889 359.9166666666667,429.4479166666667 363.3333333333333,426.94444444444446 366.74999999999994,424.44097222222223 370.16666666666663,421.9375 373.5833333333333,419.43402777777777 377,416.93055555555554 380.41666666666663,414.42708333333337 383.8333333333333,411.9236111111111 387.25,409.42013888888886 390.6666666666667,406.91666666666663 394.0833333333333,404.41319444444446 397.5,401.90972222222223 400.9166666666667,399.40625 404.3333333333333,396.9027777777778 407.75,394.39930555555554 411.1666666666667,391.89583333333337 414.5833333333333,389.3923611111111 417.99999999999994,386.8888888888889 421.41666666666663,384.3854166666667 424.8333333333333,381.88194444444446 428.25,379.3784722222222 431.66666666666663,376.875 435.0833333333333,374.37152777777777 438.5,371.86805555555554 441.9166666666667,369.3645833333333 445.3333333333333,366.8611111111111 448.75,364.3576388888889 452.1666666666667,361.85416666666663 455.5833333333333,359.35069444444446 459,356.8472222222223 462.4166666666667,354.34375 465.8333333333333,351.84027777777777 469.24999999999994,349.33680555555554 472.66666666666663,346.83333333333337 476.0833333333333,344.3298611111111 479.5,341.8263888888889 482.91666666666663,339.32291666666663 486.3333333333333,336.81944444444446 489.75,334.3159722222222 493.1666666666667,331.8125 496.5833333333333,329.3090277777778 500,326.80555555555554 503.4166666666667,324.3020833333333 506.8333333333333,321.79861111111114 510.25,319.2951388888889 513.6666666666666,316.7916666666667 517.0833333333333,314.28819444444446 520.5,311.7847222222223 523.9166666666666,309.28125 527.3333333333333,306.7777777777778 530.75,304.27430555555554 534.1666666666666,301.7708333333333 537.5833333333333,299.2673611111111 541,296.76388888888886 544.4166666666667,294.26041666666663 547.8333333333333,291.75694444444446 551.25,289.25347222222223 554.6666666666667,286.75 558.0833333333333,284.2465277777778 561.5,281.74305555555554 564.9166666666666,279.23958333333337 568.3333333333333,276.73611111111114 571.75,274.2326388888889 575.1666666666666,271.72916666666663 578.5833333333333,269.22569444444446 582,266.7222222222222 585.4166666666667,264.21875 588.8333333333334,261.7152777777777 592.25,259.2118055555556 595.6666666666666,256.70833333333337 599.0833333333333,254.20486111111114 602.5,251.7013888888889 605.9166666666666,249.19791666666669 609.3333333333334,246.6944444444444 612.75,244.19097222222217 616.1666666666666,241.68750000000006 619.5833333333333,239.18402777777777 623,236.6805555555556 626.4166666666666,234.17708333333331 629.8333333333334,231.67361111111114 633.25,229.17013888888886 636.6666666666666,226.66666666666669 640.0833333333334,224.1631944444444 643.4999999999999,221.65972222222229 646.9166666666666,219.15625 650.3333333333333,216.65277777777777 653.75,214.14930555555554 657.1666666666666,211.64583333333331 660.5833333333334,209.1423611111111 664,206.63888888888886 667.4166666666666,204.13541666666674 670.8333333333333,201.63194444444446 674.25,199.12847222222229 677.6666666666666,196.625 681.0833333333334,194.12152777777783 684.5,191.61805555555554 687.9166666666666,189.11458333333331 691.3333333333334,186.61111111111103 694.7499999999999,184.1076388888889 698.1666666666666,181.60416666666669 701.5833333333333,179.10069444444446 705,176.59722222222223 708.4166666666666,174.09375 711.8333333333334,171.59027777777777 715.25,169.08680555555554 718.6666666666666,166.58333333333343 722.0833333333333,164.07986111111114 725.5,161.5763888888889 728.9166666666666,159.07291666666663 732.3333333333334,156.56944444444446 735.75,154.06597222222217 739.1666666666666,151.5625 742.5833333333334,149.05902777777771 745.9999999999999,146.5555555555556 749.4166666666666,144.05208333333337 752.8333333333333,141.54861111111114 756.25,139.0451388888889 759.6666666666666,136.54166666666669 763.0833333333334,134.03819444444446 766.5,131.53472222222217 769.9166666666666,129.03125000000006 773.3333333333333,126.52777777777777 776.75,124.0243055555556 780.1666666666666,121.52083333333331 783.5833333333334,119.01736111111114 787,116.51388888888886 790.4166666666666,114.01041666666669 793.8333333333334,111.5069444444444 797.2499999999999,109.00347222222229 800.6666666666666,106.5 804.0833333333333,103.99652777777777 807.5,101.49305555555554 810.9166666666666,98.98958333333337 814.3333333333334,96.48611111111109 817.75,93.9826388888888 821.1666666666666,91.47916666666674 824.5833333333333,88.97569444444446 828,86.47222222222229 831.4166666666666,83.96875 834.8333333333334,81.46527777777783 838.25,78.96180555555554 841.6666666666666,76.45833333333331 845.0833333333334,73.95486111111103 848.4999999999999,71.45138888888897 851.9166666666666,68.94791666666669 855.3333333333333,66.4444444444444 858.75,63.94097222222223 862.1666666666666,61.43750000000006 865.5833333333334,58.93402777777777 869,56.43055555555543 872.4166666666666,53.92708333333337 875.8333333333333,51.423611111111086 879.25,48.920138888888914 882.6666666666666,46.41666666666663 886.0833333333333,43.91319444444446 889.5,41.40972222222217"/><text class="label" x="605.4285714285714" y="232.38888888888886">y = 3x - 2</text><circle class="ptA" cx="207.14285714285714" cy="541.3888888888889" r="7.5"/><text class="label" x="207.14285714285714" y="541.3888888888889"></text><circle class="ptA" cx="324.2857142857143" cy="455.55555555555554" r="7.5"/><text class="label" x="334.2857142857143" y="443.55555555555554">(0, -2)</text><circle class="ptB" cx="441.42857142857144" cy="369.72222222222223" r="7.5"/><text class="label" x="451.42857142857144" y="357.72222222222223">(1, 1)</text><circle class="ptC" cx="558.5714285714286" cy="283.8888888888889" r="7.5"/><text class="label" x="568.5714285714286" y="271.8888888888889">(2, 4)</text><circle class="ptA" cx="675.7142857142857" cy="198.05555555555554" r="7.5"/><text class="label" x="685.7142857142857" y="186.05555555555554">(3, 7)</text>
</svg>