<?xml version="1.0" encoding="UTF-8"?>
<svg xmlns="http://www.w3.org/2000/svg" viewBox="0 0 960 640" width="960" height="640" role="img" aria-labelledby="title desc">
<title id="title">Check-In #2: Graphing Inequalities</title>
<desc id="desc">Generated Algebra 1A course visual.</desc>
<style>
  text { font-family: -apple-system, BlinkMacSystemFont, 'Segoe UI', sans-serif; fill: #0f172a; }
  .title { font-size: 30px; font-weight: 700; }
  .subtitle { font-size: 15px; fill: #475569; }
  .axis { stroke: #0f172a; stroke-width: 2.5; }
  .grid { stroke: #cbd5e1; stroke-width: 1; }
  .tick { font-size: 13px; fill: #475569; }
  .label { font-size: 16px; font-weight: 600; }
  .lineA { stroke: #0f766e; stroke-width: 4; fill: none; }
  .lineB { stroke: #f97316; stroke-width: 4; fill: none; }
  .lineC { stroke: #2563eb; stroke-width: 4; fill: none; }
  .shadeA { fill: rgba(15,118,110,0.16); }
  .shadeB { fill: rgba(37,99,235,0.16); }
  .ptA { fill: #0f766e; stroke: #ffffff; stroke-width: 2; }
  .ptB { fill: #f97316; stroke: #ffffff; stroke-width: 2; }
  .ptC { fill: #2563eb; stroke: #ffffff; stroke-width: 2; }
  .note { font-size: 15px; fill: #334155; }
  .box { fill: #ffffff; stroke: #94a3b8; stroke-width: 2; rx: 18; }
  .dashed { fill: #f8fafc; stroke: #64748b; stroke-width: 3; stroke-dasharray: 12 10; rx: 20; }
</style>
<rect x="0" y="0" width="960" height="640" fill="#f8fafc"/><rect class="box" x="20" y="20" width="920" height="600"/><text class="title" x="44" y="62">Check-In #2: Graphing Inequalities</text><text class="subtitle" x="44" y="88">Generated solution sketch for y &lt;= -x + 7</text><polygon class="shadeB" points="90,570 910,570 910,570 90,97.91666666666669"/><line class="grid" x1="90" y1="570" x2="90" y2="55"/><text class="tick" x="90" y="506.1666666666667" text-anchor="middle">-2</text><line class="grid" x1="164.54545454545456" y1="570" x2="164.54545454545456" y2="55"/><text class="tick" x="164.54545454545456" y="506.1666666666667" text-anchor="middle">-1</text><line class="grid" x1="239.0909090909091" y1="570" x2="239.0909090909091" y2="55"/><line class="grid" x1="313.6363636363636" y1="570" x2="313.6363636363636" y2="55"/><text class="tick" x="313.6363636363636" y="506.1666666666667" text-anchor="middle">1</text><line class="grid" x1="388.1818181818182" y1="570" x2="388.1818181818182" y2="55"/><text class="tick" x="388.1818181818182" y="506.1666666666667" text-anchor="middle">2</text><line class="grid" x1="462.72727272727275" y1="570" x2="462.72727272727275" y2="55"/><text class="tick" x="462.72727272727275" y="506.1666666666667" text-anchor="middle">3</text><line class="grid" x1="537.2727272727273" y1="570" x2="537.2727272727273" y2="55"/><text class="tick" x="537.2727272727273" y="506.1666666666667" text-anchor="middle">4</text><line class="grid" x1="611.8181818181819" y1="570" x2="611.8181818181819" y2="55"/><text class="tick" x="611.8181818181819" y="506.1666666666667" text-anchor="middle">5</text><line class="grid" x1="686.3636363636364" y1="570" x2="686.3636363636364" y2="55"/><text class="tick" x="686.3636363636364" y="506.1666666666667" text-anchor="middle">6</text><line class="grid" x1="760.9090909090909" y1="570" x2="760.9090909090909" y2="55"/><text class="tick" x="760.9090909090909" y="506.1666666666667" text-anchor="middle">7</text><line class="grid" x1="835.4545454545455" y1="570" x2="835.4545454545455" y2="55"/><text class="tick" x="835.4545454545455" y="506.1666666666667" text-anchor="middle">8</text><line class="grid" x1="910" y1="570" x2="910" y2="55"/><text class="tick" x="910" y="506.1666666666667" text-anchor="middle">9</text><line class="grid" x1="90" y1="570" x2="910" y2="570"/><text class="tick" x="223.0909090909091" y="575" text-anchor="end">-2</text><line class="grid" x1="90" y1="527.0833333333334" x2="910" y2="527.0833333333334"/><text class="tick" x="223.0909090909091" y="532.0833333333334" text-anchor="end">-1</text><line class="grid" x1="90" y1="484.1666666666667" x2="910" y2="484.1666666666667"/><line class="grid" x1="90" y1="441.25" x2="910" y2="441.25"/><text class="tick" x="223.0909090909091" y="446.25" text-anchor="end">1</text><line class="grid" x1="90" y1="398.33333333333337" x2="910" y2="398.33333333333337"/><text class="tick" x="223.0909090909091" y="403.33333333333337" text-anchor="end">2</text><line class="grid" x1="90" y1="355.4166666666667" x2="910" y2="355.4166666666667"/><text class="tick" x="223.0909090909091" y="360.4166666666667" text-anchor="end">3</text><line class="grid" x1="90" y1="312.5" x2="910" y2="312.5"/><text class="tick" x="223.0909090909091" y="317.5" text-anchor="end">4</text><line class="grid" x1="90" y1="269.58333333333337" x2="910" y2="269.58333333333337"/><text class="tick" x="223.0909090909091" y="274.58333333333337" text-anchor="end">5</text><line class="grid" x1="90" y1="226.66666666666669" x2="910" y2="226.66666666666669"/><text class="tick" x="223.0909090909091" y="231.66666666666669" text-anchor="end">6</text><line class="grid" x1="90" y1="183.75" x2="910" y2="183.75"/><text class="tick" x="223.0909090909091" y="188.75" text-anchor="end">7</text><line class="grid" x1="90" y1="140.83333333333337" x2="910" y2="140.83333333333337"/><text class="tick" x="223.0909090909091" y="145.83333333333337" text-anchor="end">8</text><line class="grid" x1="90" y1="97.91666666666669" x2="910" y2="97.91666666666669"/><text class="tick" x="223.0909090909091" y="102.91666666666669" text-anchor="end">9</text><line class="grid" x1="90" y1="55" x2="910" y2="55"/><text class="tick" x="223.0909090909091" y="60" text-anchor="end">10</text><line class="axis" x1="90" y1="484.1666666666667" x2="910" y2="484.1666666666667"/><line class="axis" x1="239.0909090909091" y1="570" x2="239.0909090909091" y2="55"/><text class="label" x="900" y="472.1666666666667" text-anchor="end">x</text><text class="label" x="251.0909090909091" y="73">y</text><text class="tick" x="227.0909090909091" y="506.1666666666667" text-anchor="end">0</text><polyline class="lineB" points="90,97.91666666666669 93.41666666666667,99.8836805555556 96.83333333333333,101.85069444444446 100.25,103.81770833333331 103.66666666666667,105.78472222222229 107.08333333333334,107.75173611111109 110.5,109.71875000000006 113.91666666666666,111.68576388888891 117.33333333333334,113.65277777777783 120.75,115.61979166666669 124.16666666666666,117.5868055555556 127.58333333333334,119.55381944444446 131,121.52083333333337 134.41666666666666,123.48784722222223 137.83333333333331,125.45486111111109 141.25,127.421875 144.66666666666669,129.38888888888897 148.08333333333334,131.35590277777783 151.5,133.32291666666669 154.91666666666669,135.2899305555556 158.33333333333331,137.25694444444446 161.75,139.22395833333337 165.16666666666669,141.19097222222223 168.58333333333334,143.15798611111114 172,145.125 175.41666666666666,147.09201388888886 178.83333333333331,149.05902777777777 182.25,151.02604166666674 185.66666666666669,152.9930555555556 189.08333333333331,154.9600694444444 192.5,156.92708333333337 195.91666666666669,158.89409722222229 199.33333333333331,160.86111111111114 202.75,162.828125 206.16666666666669,164.7951388888889 209.58333333333334,166.76215277777783 213,168.72916666666669 216.41666666666669,170.69618055555554 219.83333333333334,172.6631944444445 223.25,174.63020833333331 226.66666666666666,176.59722222222217 230.08333333333334,178.56423611111114 233.5,180.53125000000006 236.91666666666669,182.4982638888889 240.33333333333334,184.46527777777777 243.75,186.43229166666669 247.16666666666669,188.3993055555556 250.58333333333334,190.36631944444446 254.00000000000003,192.33333333333331 257.41666666666663,194.30034722222223 260.8333333333333,196.2673611111111 264.25,198.23437500000006 267.66666666666663,200.2013888888889 271.08333333333337,202.16840277777783 274.5,204.13541666666669 277.9166666666667,206.1024305555556 281.33333333333337,208.06944444444446 284.75,210.03645833333337 288.16666666666663,212.00347222222223 291.58333333333337,213.9704861111111 295,215.9375 298.4166666666667,217.90451388888897 301.83333333333337,219.87152777777783 305.25,221.83854166666663 308.66666666666663,223.8055555555556 312.0833333333333,225.77256944444446 315.5,227.73958333333337 318.91666666666663,229.70659722222223 322.33333333333337,231.67361111111114 325.75,233.640625 329.1666666666667,235.6076388888889 332.58333333333337,237.57465277777777 336,239.54166666666669 339.41666666666663,241.50868055555554 342.83333333333337,243.47569444444446 346.25,245.44270833333337 349.6666666666667,247.40972222222223 353.08333333333337,249.37673611111114 356.5,251.34375 359.91666666666663,253.3107638888889 363.3333333333333,255.27777777777777 366.75,257.2447916666667 370.1666666666667,259.21180555555554 373.5833333333333,261.17881944444446 377,263.1458333333333 380.4166666666667,265.1128472222223 383.83333333333337,267.07986111111114 387.25,269.046875 390.6666666666667,271.0138888888889 394.0833333333333,272.98090277777777 397.5,274.9479166666667 400.9166666666667,276.9149305555556 404.33333333333337,278.88194444444446 407.75,280.84895833333337 411.1666666666667,282.81597222222223 414.58333333333337,284.78298611111114 418.00000000000006,286.75000000000006 421.4166666666667,288.7170138888889 424.8333333333333,290.68402777777777 428.25,292.6510416666667 431.66666666666663,294.61805555555554 435.0833333333333,296.58506944444446 438.5,298.5520833333333 441.9166666666667,300.51909722222223 445.3333333333333,302.48611111111114 448.75,304.453125 452.1666666666667,306.4201388888889 455.58333333333337,308.38715277777777 459,310.3541666666667 462.4166666666667,312.3211805555556 465.83333333333337,314.28819444444446 469.25000000000006,316.25520833333337 472.6666666666667,318.2222222222223 476.0833333333333,320.1892361111111 479.5,322.15625 482.91666666666663,324.1232638888889 486.3333333333333,326.09027777777777 489.75,328.0572916666667 493.1666666666667,330.02430555555554 496.5833333333333,331.99131944444446 500,333.95833333333337 503.4166666666667,335.92534722222223 506.83333333333337,337.89236111111114 510.25,339.859375 513.6666666666667,341.8263888888889 517.0833333333334,343.7934027777778 520.5,345.7604166666667 523.9166666666667,347.7274305555556 527.3333333333333,349.69444444444446 530.75,351.66145833333337 534.1666666666666,353.62847222222223 537.5833333333333,355.5954861111111 541,357.5625 544.4166666666667,359.5295138888889 547.8333333333333,361.4965277777778 551.25,363.4635416666667 554.6666666666667,365.43055555555554 558.0833333333334,367.39756944444446 561.5,369.36458333333337 564.9166666666667,371.3315972222223 568.3333333333334,373.29861111111114 571.75,375.265625 575.1666666666667,377.2326388888889 578.5833333333333,379.19965277777777 582,381.16666666666663 585.4166666666666,383.13368055555554 588.8333333333333,385.10069444444446 592.25,387.06770833333337 595.6666666666667,389.03472222222223 599.0833333333333,391.0017361111111 602.5,392.96875 605.9166666666666,394.9357638888889 609.3333333333334,396.9027777777778 612.75,398.8697916666667 616.1666666666667,400.83680555555554 619.5833333333334,402.80381944444446 623,404.77083333333337 626.4166666666667,406.7378472222223 629.8333333333333,408.7048611111111 633.25,410.671875 636.6666666666666,412.6388888888889 640.0833333333334,414.60590277777777 643.5,416.57291666666663 646.9166666666666,418.53993055555554 650.3333333333334,420.50694444444446 653.75,422.47395833333337 657.1666666666666,424.44097222222223 660.5833333333334,426.4079861111111 664,428.375 667.4166666666667,430.3420138888889 670.8333333333334,432.3090277777778 674.25,434.2760416666667 677.6666666666667,436.24305555555554 681.0833333333333,438.21006944444446 684.5,440.1770833333333 687.9166666666667,442.1440972222223 691.3333333333334,444.1111111111111 694.7500000000001,446.07812500000006 698.1666666666666,448.0451388888889 701.5833333333334,450.0121527777778 705,451.9791666666667 708.4166666666666,453.94618055555554 711.8333333333334,455.91319444444446 715.25,457.8802083333333 718.6666666666667,459.84722222222223 722.0833333333333,461.8142361111111 725.5,463.78125 728.9166666666666,465.74826388888886 732.3333333333334,467.7152777777778 735.75,469.68229166666663 739.1666666666667,471.6493055555556 742.5833333333334,473.61631944444446 746.0000000000001,475.58333333333337 749.4166666666666,477.55034722222223 752.8333333333334,479.51736111111114 756.25,481.484375 759.6666666666666,483.45138888888886 763.0833333333334,485.41840277777777 766.5,487.38541666666663 769.9166666666667,489.35243055555554 773.3333333333333,491.31944444444446 776.75,493.28645833333337 780.1666666666666,495.2534722222222 783.5833333333334,497.22048611111114 787,499.1875 790.4166666666667,501.1545138888889 793.8333333333334,503.12152777777777 797.2500000000001,505.0885416666667 800.6666666666666,507.05555555555554 804.0833333333334,509.02256944444446 807.5,510.9895833333333 810.9166666666666,512.9565972222222 814.3333333333334,514.9236111111111 817.75,516.890625 821.1666666666667,518.8576388888889 824.5833333333333,520.8246527777777 828,522.7916666666667 831.4166666666666,524.7586805555555 834.8333333333334,526.7256944444445 838.25,528.6927083333334 841.6666666666667,530.6597222222223 845.0833333333334,532.6267361111111 848.5000000000001,534.59375 851.9166666666666,536.5607638888889 855.3333333333334,538.5277777777778 858.75,540.4947916666666 862.1666666666666,542.4618055555555 865.5833333333334,544.4288194444445 869,546.3958333333333 872.4166666666667,548.3628472222223 875.8333333333333,550.3298611111111 879.25,552.296875 882.6666666666666,554.2638888888889 886.0833333333334,556.2309027777778 889.5,558.1979166666666 892.9166666666667,560.1649305555555 896.3333333333334,562.1319444444445 899.7500000000001,564.0989583333334 903.1666666666666,566.0659722222222 906.5833333333334,568.0329861111112 910,570"/><text class="label" x="403.0909090909091" y="218.08333333333337">y = -x + 7</text><text class="note" x="610" y="560">Use a solid boundary line because the inequality includes equality.</text>
</svg>