<?xml version="1.0" encoding="UTF-8"?>
<svg xmlns="http://www.w3.org/2000/svg" viewBox="0 0 960 640" width="960" height="640" role="img" aria-labelledby="title desc">
<title id="title">Kick-Off Project 2: Delivery Map</title>
<desc id="desc">Generated Algebra 1A course visual.</desc>
<style>
  text { font-family: -apple-system, BlinkMacSystemFont, 'Segoe UI', sans-serif; fill: #0f172a; }
  .title { font-size: 30px; font-weight: 700; }
  .subtitle { font-size: 15px; fill: #475569; }
  .axis { stroke: #0f172a; stroke-width: 2.5; }
  .grid { stroke: #cbd5e1; stroke-width: 1; }
  .tick { font-size: 13px; fill: #475569; }
  .label { font-size: 16px; font-weight: 600; }
  .lineA { stroke: #0f766e; stroke-width: 4; fill: none; }
  .lineB { stroke: #f97316; stroke-width: 4; fill: none; }
  .lineC { stroke: #2563eb; stroke-width: 4; fill: none; }
  .shadeA { fill: rgba(15,118,110,0.16); }
  .shadeB { fill: rgba(37,99,235,0.16); }
  .ptA { fill: #0f766e; stroke: #ffffff; stroke-width: 2; }
  .ptB { fill: #f97316; stroke: #ffffff; stroke-width: 2; }
  .ptC { fill: #2563eb; stroke: #ffffff; stroke-width: 2; }
  .note { font-size: 15px; fill: #334155; }
  .box { fill: #ffffff; stroke: #94a3b8; stroke-width: 2; rx: 18; }
  .dashed { fill: #f8fafc; stroke: #64748b; stroke-width: 3; stroke-dasharray: 12 10; rx: 20; }
</style>
<rect x="0" y="0" width="960" height="640" fill="#f8fafc"/><rect class="box" x="20" y="20" width="920" height="600"/><text class="title" x="44" y="62">Kick-Off Project 2: Delivery Map</text><text class="subtitle" x="44" y="88">Generated reference graph for points A = (-3, 5) and B = (4, 6)</text><line class="grid" x1="90" y1="570" x2="90" y2="55"/><text class="tick" x="90" y="489" text-anchor="middle">-6</text><line class="grid" x1="148.57142857142856" y1="570" x2="148.57142857142856" y2="55"/><text class="tick" x="148.57142857142856" y="489" text-anchor="middle">-5</text><line class="grid" x1="207.14285714285714" y1="570" x2="207.14285714285714" y2="55"/><text class="tick" x="207.14285714285714" y="489" text-anchor="middle">-4</text><line class="grid" x1="265.7142857142857" y1="570" x2="265.7142857142857" y2="55"/><text class="tick" x="265.7142857142857" y="489" text-anchor="middle">-3</text><line class="grid" x1="324.2857142857143" y1="570" x2="324.2857142857143" y2="55"/><text class="tick" x="324.2857142857143" y="489" text-anchor="middle">-2</text><line class="grid" x1="382.85714285714283" y1="570" x2="382.85714285714283" y2="55"/><text class="tick" x="382.85714285714283" y="489" text-anchor="middle">-1</text><line class="grid" x1="441.42857142857144" y1="570" x2="441.42857142857144" y2="55"/><line class="grid" x1="500" y1="570" x2="500" y2="55"/><text class="tick" x="500" y="489" text-anchor="middle">1</text><line class="grid" x1="558.5714285714286" y1="570" x2="558.5714285714286" y2="55"/><text class="tick" x="558.5714285714286" y="489" text-anchor="middle">2</text><line class="grid" x1="617.1428571428571" y1="570" x2="617.1428571428571" y2="55"/><text class="tick" x="617.1428571428571" y="489" text-anchor="middle">3</text><line class="grid" x1="675.7142857142857" y1="570" x2="675.7142857142857" y2="55"/><text class="tick" x="675.7142857142857" y="489" text-anchor="middle">4</text><line class="grid" x1="734.2857142857142" y1="570" x2="734.2857142857142" y2="55"/><text class="tick" x="734.2857142857142" y="489" text-anchor="middle">5</text><line class="grid" x1="792.8571428571429" y1="570" x2="792.8571428571429" y2="55"/><text class="tick" x="792.8571428571429" y="489" text-anchor="middle">6</text><line class="grid" x1="851.4285714285714" y1="570" x2="851.4285714285714" y2="55"/><text class="tick" x="851.4285714285714" y="489" text-anchor="middle">7</text><line class="grid" x1="910" y1="570" x2="910" y2="55"/><text class="tick" x="910" y="489" text-anchor="middle">8</text><line class="grid" x1="90" y1="570" x2="910" y2="570"/><text class="tick" x="425.42857142857144" y="575" text-anchor="end">-2</text><line class="grid" x1="90" y1="518.5" x2="910" y2="518.5"/><text class="tick" x="425.42857142857144" y="523.5" text-anchor="end">-1</text><line class="grid" x1="90" y1="467" x2="910" y2="467"/><line class="grid" x1="90" y1="415.5" x2="910" y2="415.5"/><text class="tick" x="425.42857142857144" y="420.5" text-anchor="end">1</text><line class="grid" x1="90" y1="364" x2="910" y2="364"/><text class="tick" x="425.42857142857144" y="369" text-anchor="end">2</text><line class="grid" x1="90" y1="312.5" x2="910" y2="312.5"/><text class="tick" x="425.42857142857144" y="317.5" text-anchor="end">3</text><line class="grid" x1="90" y1="261" x2="910" y2="261"/><text class="tick" x="425.42857142857144" y="266" text-anchor="end">4</text><line class="grid" x1="90" y1="209.5" x2="910" y2="209.5"/><text class="tick" x="425.42857142857144" y="214.5" text-anchor="end">5</text><line class="grid" x1="90" y1="158" x2="910" y2="158"/><text class="tick" x="425.42857142857144" y="163" text-anchor="end">6</text><line class="grid" x1="90" y1="106.5" x2="910" y2="106.5"/><text class="tick" x="425.42857142857144" y="111.5" text-anchor="end">7</text><line class="grid" x1="90" y1="55" x2="910" y2="55"/><text class="tick" x="425.42857142857144" y="60" text-anchor="end">8</text><line class="axis" x1="90" y1="467" x2="910" y2="467"/><line class="axis" x1="441.42857142857144" y1="570" x2="441.42857142857144" y2="55"/><text class="label" x="900" y="455" text-anchor="end">x</text><text class="label" x="453.42857142857144" y="73">y</text><text class="tick" x="429.42857142857144" y="489" text-anchor="end">0</text><polyline class="lineC" points="90,231.57142857142856 93.41666666666669,231.14226190476188 96.83333333333331,230.7130952380952 100.24999999999999,230.2839285714286 103.66666666666667,229.85476190476186 107.08333333333334,229.42559523809524 110.49999999999997,228.99642857142857 113.91666666666666,228.5672619047619 117.33333333333334,228.13809523809522 120.75000000000003,227.70892857142854 124.16666666666666,227.27976190476187 127.58333333333333,226.85059523809525 131,226.42142857142858 134.41666666666663,225.99226190476185 137.83333333333331,225.56309523809523 141.25,225.13392857142856 144.66666666666669,224.70476190476188 148.08333333333337,224.2755952380952 151.5,223.8464285714286 154.91666666666669,223.41726190476186 158.33333333333334,222.98809523809524 161.74999999999997,222.55892857142857 165.16666666666666,222.1297619047619 168.58333333333334,221.70059523809522 172,221.27142857142854 175.41666666666663,220.84226190476187 178.83333333333331,220.41309523809525 182.25,219.98392857142858 185.66666666666663,219.55476190476185 189.08333333333331,219.12559523809523 192.5,218.69642857142856 195.91666666666669,218.26726190476188 199.33333333333337,217.8380952380952 202.75,217.4089285714286 206.16666666666669,216.97976190476186 209.58333333333331,216.55059523809524 213,216.12142857142857 216.41666666666666,215.6922619047619 219.83333333333334,215.26309523809522 223.25,214.8339285714286 226.66666666666666,214.40476190476187 230.08333333333331,213.97559523809525 233.5,213.54642857142858 236.91666666666666,213.11726190476185 240.33333333333334,212.68809523809523 243.75,212.25892857142856 247.16666666666666,211.82976190476188 250.58333333333334,211.4005952380952 253.99999999999997,210.9714285714286 257.41666666666663,210.54226190476186 260.8333333333333,210.11309523809524 264.25,209.68392857142857 267.66666666666663,209.2547619047619 271.08333333333337,208.82559523809522 274.5,208.3964285714286 277.91666666666663,207.96726190476187 281.3333333333333,207.53809523809525 284.75,207.10892857142858 288.16666666666663,206.67976190476185 291.58333333333337,206.25059523809523 295,205.82142857142856 298.41666666666663,205.39226190476188 301.8333333333333,204.9630952380952 305.25,204.5339285714286 308.66666666666663,204.10476190476186 312.0833333333333,203.67559523809524 315.5,203.24642857142857 318.91666666666663,202.8172619047619 322.33333333333337,202.38809523809522 325.75,201.9589285714286 329.16666666666663,201.52976190476187 332.5833333333333,201.10059523809525 336,200.67142857142858 339.4166666666667,200.24226190476185 342.8333333333333,199.81309523809523 346.25,199.38392857142856 349.6666666666667,198.95476190476188 353.0833333333333,198.5255952380952 356.5,198.0964285714286 359.9166666666667,197.66726190476186 363.3333333333333,197.23809523809524 366.74999999999994,196.80892857142857 370.16666666666663,196.3797619047619 373.5833333333333,195.95059523809522 377,195.5214285714286 380.41666666666663,195.09226190476187 383.8333333333333,194.66309523809525 387.25,194.23392857142858 390.6666666666667,193.80476190476185 394.0833333333333,193.37559523809523 397.5,192.94642857142856 400.9166666666667,192.51726190476188 404.3333333333333,192.0880952380952 407.75,191.6589285714286 411.1666666666667,191.22976190476186 414.5833333333333,190.80059523809524 417.99999999999994,190.37142857142857 421.41666666666663,189.9422619047619 424.8333333333333,189.51309523809522 428.25,189.0839285714286 431.66666666666663,188.65476190476187 435.0833333333333,188.22559523809525 438.5,187.79642857142858 441.9166666666667,187.36726190476185 445.3333333333333,186.93809523809523 448.75,186.50892857142856 452.1666666666667,186.07976190476188 455.5833333333333,185.6505952380952 459,185.2214285714286 462.4166666666667,184.79226190476186 465.8333333333333,184.36309523809524 469.24999999999994,183.93392857142857 472.66666666666663,183.5047619047619 476.0833333333333,183.07559523809522 479.5,182.6464285714286 482.91666666666663,182.21726190476187 486.3333333333333,181.78809523809525 489.75,181.35892857142858 493.1666666666667,180.92976190476185 496.5833333333333,180.50059523809523 500,180.07142857142856 503.4166666666667,179.64226190476188 506.8333333333333,179.2130952380952 510.25,178.7839285714286 513.6666666666666,178.35476190476186 517.0833333333333,177.92559523809524 520.5,177.49642857142857 523.9166666666666,177.0672619047619 527.3333333333333,176.63809523809522 530.75,176.2089285714286 534.1666666666666,175.77976190476187 537.5833333333333,175.35059523809525 541,174.92142857142858 544.4166666666667,174.49226190476185 547.8333333333333,174.06309523809523 551.25,173.63392857142856 554.6666666666667,173.20476190476188 558.0833333333333,172.7755952380952 561.5,172.3464285714286 564.9166666666666,171.91726190476186 568.3333333333333,171.48809523809524 571.75,171.05892857142857 575.1666666666666,170.6297619047619 578.5833333333333,170.20059523809522 582,169.7714285714286 585.4166666666667,169.34226190476187 588.8333333333334,168.9130952380952 592.25,168.48392857142858 595.6666666666666,168.0547619047619 599.0833333333333,167.62559523809523 602.5,167.19642857142856 605.9166666666666,166.76726190476188 609.3333333333334,166.3380952380952 612.75,165.9089285714286 616.1666666666666,165.47976190476186 619.5833333333333,165.05059523809524 623,164.62142857142857 626.4166666666666,164.1922619047619 629.8333333333334,163.76309523809522 633.25,163.3339285714286 636.6666666666666,162.90476190476187 640.0833333333334,162.4755952380952 643.4999999999999,162.04642857142858 646.9166666666666,161.6172619047619 650.3333333333333,161.18809523809523 653.75,160.7589285714286 657.1666666666666,160.32976190476188 660.5833333333334,159.9005952380952 664,159.4714285714286 667.4166666666666,159.04226190476192 670.8333333333333,158.61309523809524 674.25,158.18392857142857 677.6666666666666,157.7547619047619 681.0833333333334,157.32559523809516 684.5,156.89642857142854 687.9166666666666,156.46726190476187 691.3333333333334,156.03809523809525 694.7499999999999,155.60892857142858 698.1666666666666,155.17976190476196 701.5833333333333,154.75059523809523 705,154.3214285714286 708.4166666666666,153.89226190476182 711.8333333333334,153.4630952380952 715.25,153.0339285714286 718.6666666666666,152.60476190476192 722.0833333333333,152.1755952380953 725.5,151.74642857142857 728.9166666666666,151.3172619047619 732.3333333333334,150.88809523809516 735.75,150.45892857142854 739.1666666666666,150.02976190476187 742.5833333333334,149.60059523809525 745.9999999999999,149.17142857142858 749.4166666666666,148.74226190476196 752.8333333333333,148.31309523809523 756.25,147.8839285714286 759.6666666666666,147.45476190476182 763.0833333333334,147.0255952380952 766.5,146.5964285714286 769.9166666666666,146.16726190476192 773.3333333333333,145.7380952380953 776.75,145.30892857142857 780.1666666666666,144.8797619047619 783.5833333333334,144.45059523809516 787,144.02142857142854 790.4166666666666,143.59226190476187 793.8333333333334,143.16309523809525 797.2499999999999,142.73392857142858 800.6666666666666,142.30476190476196 804.0833333333333,141.87559523809523 807.5,141.4464285714286 810.9166666666666,141.01726190476182 814.3333333333334,140.5880952380952 817.75,140.1589285714286 821.1666666666666,139.72976190476192 824.5833333333333,139.3005952380953 828,138.87142857142857 831.4166666666666,138.4422619047619 834.8333333333334,138.01309523809516 838.25,137.58392857142854 841.6666666666666,137.15476190476187 845.0833333333334,136.72559523809525 848.4999999999999,136.29642857142858 851.9166666666666,135.86726190476196 855.3333333333333,135.43809523809523 858.75,135.0089285714286 862.1666666666666,134.57976190476182 865.5833333333334,134.1505952380952 869,133.7214285714286 872.4166666666666,133.29226190476192 875.8333333333333,132.8630952380953 879.25,132.43392857142857 882.6666666666666,132.0047619047619 886.0833333333333,131.57559523809516 889.5,131.14642857142854 892.9166666666666,130.71726190476187 896.3333333333334,130.28809523809525 899.7499999999999,129.85892857142858 903.1666666666666,129.42976190476196 906.5833333333333,129.00059523809523 910,128.5714285714286"/><text class="label" x="763.5714285714286" y="147.70000000000005">slope = 1/7</text><circle class="ptA" cx="265.7142857142857" cy="209.5" r="7.5"/><text class="label" x="277.7142857142857" y="197.5">A (-3, 5)</text><circle class="ptB" cx="675.7142857142857" cy="158" r="7.5"/><text class="label" x="687.7142857142857" y="146">B (4, 6)</text><circle class="ptC" cx="441.42857142857144" cy="467" r="7.5"/><text class="label" x="453.42857142857144" y="455">Start</text><text class="note" x="610" y="560">If the driver must stay on the street grid, point A is closer by Manhattan distance.</text>
</svg>