<?xml version="1.0" encoding="UTF-8"?>
<svg xmlns="http://www.w3.org/2000/svg" viewBox="0 0 960 640" width="960" height="640" role="img" aria-labelledby="title desc">
<title id="title">Kick-Off Project 2: Weekly Deliveries</title>
<desc id="desc">Generated Algebra 1A course visual.</desc>
<style>
  text { font-family: -apple-system, BlinkMacSystemFont, 'Segoe UI', sans-serif; fill: #0f172a; }
  .title { font-size: 30px; font-weight: 700; }
  .subtitle { font-size: 15px; fill: #475569; }
  .axis { stroke: #0f172a; stroke-width: 2.5; }
  .grid { stroke: #cbd5e1; stroke-width: 1; }
  .tick { font-size: 13px; fill: #475569; }
  .label { font-size: 16px; font-weight: 600; }
  .lineA { stroke: #0f766e; stroke-width: 4; fill: none; }
  .lineB { stroke: #f97316; stroke-width: 4; fill: none; }
  .lineC { stroke: #2563eb; stroke-width: 4; fill: none; }
  .shadeA { fill: rgba(15,118,110,0.16); }
  .shadeB { fill: rgba(37,99,235,0.16); }
  .ptA { fill: #0f766e; stroke: #ffffff; stroke-width: 2; }
  .ptB { fill: #f97316; stroke: #ffffff; stroke-width: 2; }
  .ptC { fill: #2563eb; stroke: #ffffff; stroke-width: 2; }
  .note { font-size: 15px; fill: #334155; }
  .box { fill: #ffffff; stroke: #94a3b8; stroke-width: 2; rx: 18; }
  .dashed { fill: #f8fafc; stroke: #64748b; stroke-width: 3; stroke-dasharray: 12 10; rx: 20; }
</style>
<rect x="0" y="0" width="960" height="640" fill="#f8fafc"/><rect class="box" x="20" y="20" width="920" height="600"/><text class="title" x="44" y="62">Kick-Off Project 2: Weekly Deliveries</text><text class="subtitle" x="44" y="88">Generated growth model with equation y = 15x</text><line class="grid" x1="90" y1="570" x2="90" y2="55"/><line class="grid" x1="216.15384615384616" y1="570" x2="216.15384615384616" y2="55"/><text class="tick" x="216.15384615384616" y="592" text-anchor="middle">1</text><line class="grid" x1="342.3076923076923" y1="570" x2="342.3076923076923" y2="55"/><text class="tick" x="342.3076923076923" y="592" text-anchor="middle">2</text><line class="grid" x1="468.46153846153845" y1="570" x2="468.46153846153845" y2="55"/><text class="tick" x="468.46153846153845" y="592" text-anchor="middle">3</text><line class="grid" x1="594.6153846153846" y1="570" x2="594.6153846153846" y2="55"/><text class="tick" x="594.6153846153846" y="592" text-anchor="middle">4</text><line class="grid" x1="720.7692307692308" y1="570" x2="720.7692307692308" y2="55"/><text class="tick" x="720.7692307692308" y="592" text-anchor="middle">5</text><line class="grid" x1="846.9230769230769" y1="570" x2="846.9230769230769" y2="55"/><text class="tick" x="846.9230769230769" y="592" text-anchor="middle">6</text><line class="grid" x1="90" y1="570" x2="910" y2="570"/><line class="grid" x1="90" y1="492.75" x2="910" y2="492.75"/><text class="tick" x="74" y="497.75" text-anchor="end">15</text><line class="grid" x1="90" y1="415.5" x2="910" y2="415.5"/><text class="tick" x="74" y="420.5" text-anchor="end">30</text><line class="grid" x1="90" y1="338.25" x2="910" y2="338.25"/><text class="tick" x="74" y="343.25" text-anchor="end">45</text><line class="grid" x1="90" y1="261" x2="910" y2="261"/><text class="tick" x="74" y="266" text-anchor="end">60</text><line class="grid" x1="90" y1="183.75" x2="910" y2="183.75"/><text class="tick" x="74" y="188.75" text-anchor="end">75</text><line class="grid" x1="90" y1="106.49999999999994" x2="910" y2="106.49999999999994"/><text class="tick" x="74" y="111.49999999999994" text-anchor="end">90</text><line class="axis" x1="90" y1="570" x2="910" y2="570"/><line class="axis" x1="90" y1="570" x2="90" y2="55"/><text class="label" x="900" y="558" text-anchor="end">week</text><text class="label" x="102" y="73">deliveries</text><text class="tick" x="78" y="592" text-anchor="end">0</text><polyline class="lineA" points="90,570 93.41666666666667,567.9078125 96.83333333333333,565.815625 100.25,563.7234375 103.66666666666667,561.63125 107.08333333333333,559.5390625 110.5,557.446875 113.91666666666667,555.3546875 117.33333333333334,553.2625 120.75,551.1703125 124.16666666666666,549.078125 127.58333333333334,546.9859375 131,544.89375 134.41666666666669,542.8015625 137.83333333333334,540.709375 141.25,538.6171875 144.66666666666669,536.525 148.08333333333334,534.4328125 151.5,532.340625 154.91666666666666,530.2484375 158.33333333333331,528.15625 161.75,526.0640625 165.16666666666669,523.971875 168.58333333333334,521.8796875 172,519.7875 175.41666666666669,517.6953125 178.83333333333334,515.603125 182.25,513.5109375 185.66666666666669,511.41875 189.08333333333334,509.3265625 192.5,507.234375 195.91666666666669,505.1421875 199.33333333333334,503.05 202.75,500.9578125 206.16666666666669,498.865625 209.58333333333331,496.7734375 213,494.68125 216.41666666666669,492.58906249999995 219.83333333333331,490.496875 223.25,488.4046875 226.66666666666666,486.3125 230.08333333333334,484.2203125 233.5,482.128125 236.91666666666666,480.0359375 240.33333333333334,477.94375 243.75,475.8515625 247.16666666666669,473.759375 250.58333333333334,471.6671875 254,469.575 257.4166666666667,467.4828125 260.83333333333337,465.390625 264.25,463.2984375 267.6666666666667,461.20625 271.08333333333337,459.1140625 274.5,457.021875 277.91666666666663,454.9296875 281.33333333333337,452.8375 284.75,450.7453125 288.1666666666667,448.653125 291.58333333333337,446.5609375 295,444.46875 298.4166666666667,442.3765625 301.83333333333337,440.28437499999995 305.25,438.1921875 308.6666666666667,436.1 312.08333333333337,434.0078125 315.5,431.915625 318.9166666666667,429.82343749999995 322.33333333333337,427.73125 325.75,425.6390625 329.16666666666663,423.546875 332.58333333333337,421.4546875 336,419.36249999999995 339.4166666666667,417.2703125 342.83333333333337,415.17812499999997 346.25,413.0859375 349.66666666666663,410.99375 353.08333333333337,408.90156249999995 356.5,406.80937500000005 359.9166666666667,404.7171875 363.3333333333333,402.625 366.75,400.5328125 370.1666666666667,398.44062499999995 373.58333333333337,396.3484375 377,394.25625 380.4166666666667,392.1640625 383.8333333333333,390.071875 387.25000000000006,387.97968749999995 390.6666666666667,385.8875 394.08333333333337,383.7953125 397.5,381.703125 400.91666666666663,379.6109375 404.33333333333337,377.51874999999995 407.75,375.4265625 411.1666666666667,373.334375 414.5833333333333,371.2421875 418,369.15 421.4166666666667,367.05781249999995 424.83333333333337,364.965625 428.25,362.8734375 431.6666666666667,360.78125 435.08333333333337,358.6890625 438.50000000000006,356.59687499999995 441.9166666666667,354.5046875 445.33333333333337,352.4125 448.75,350.3203125 452.1666666666667,348.228125 455.58333333333337,346.13593749999995 459,344.04375 462.4166666666667,341.9515625 465.8333333333333,339.859375 469.25000000000006,337.7671875 472.6666666666667,335.67499999999995 476.08333333333337,333.5828125 479.5,331.490625 482.9166666666667,329.3984375 486.33333333333337,327.30625 489.75000000000006,325.21406249999995 493.1666666666667,323.121875 496.58333333333337,321.0296875 500,318.9375 503.4166666666667,316.8453125 506.83333333333337,314.75312499999995 510.25,312.6609375 513.6666666666667,310.56874999999997 517.0833333333333,308.4765625 520.5,306.384375 523.9166666666667,304.29218749999995 527.3333333333334,302.2 530.75,300.10781249999997 534.1666666666667,298.015625 537.5833333333334,295.9234375 541,293.83124999999995 544.4166666666667,291.7390625 547.8333333333334,289.64687499999997 551.25,287.5546875 554.6666666666667,285.4625 558.0833333333334,283.37031249999995 561.5,281.278125 564.9166666666667,279.18593749999997 568.3333333333333,277.09375 571.75,275.0015625 575.1666666666667,272.90937499999995 578.5833333333334,270.8171875 582,268.72499999999997 585.4166666666667,266.6328125 588.8333333333334,264.540625 592.25,262.44843749999995 595.6666666666667,260.35624999999993 599.0833333333333,258.26406249999997 602.5,256.171875 605.9166666666667,254.07968749999998 609.3333333333333,251.9875 612.75,249.8953125 616.1666666666667,247.80312499999997 619.5833333333334,245.71093749999994 623,243.61875000000003 626.4166666666666,241.52656249999995 629.8333333333334,239.434375 633.2500000000001,237.34218749999997 636.6666666666666,235.25 640.0833333333334,233.15781249999998 643.5,231.06562499999995 646.9166666666667,228.9734375 650.3333333333334,226.88124999999997 653.75,224.7890625 657.1666666666667,222.69687499999998 660.5833333333333,220.60468749999995 664,218.5125 667.4166666666667,216.42031249999997 670.8333333333334,214.328125 674.25,212.23593749999998 677.6666666666666,210.14374999999995 681.0833333333334,208.0515625 684.5000000000001,205.95937499999997 687.9166666666666,203.8671875 691.3333333333334,201.77499999999998 694.75,199.68281249999995 698.1666666666667,197.590625 701.5833333333334,195.49843749999997 705,193.40625 708.4166666666667,191.31406249999998 711.8333333333333,189.22187499999995 715.25,187.1296875 718.6666666666667,185.03749999999997 722.0833333333334,182.9453125 725.5,180.85312499999998 728.9166666666666,178.76093749999995 732.3333333333334,176.66875 735.7500000000001,174.57656249999997 739.1666666666666,172.484375 742.5833333333334,170.39218749999998 746,168.29999999999995 749.4166666666667,166.2078125 752.8333333333334,164.11562499999997 756.25,162.0234375 759.6666666666667,159.93124999999998 763.0833333333334,157.83906249999995 766.5,155.746875 769.9166666666667,153.65468749999997 773.3333333333334,151.56249999999994 776.75,149.47031249999998 780.1666666666667,147.37812499999995 783.5833333333334,145.2859375 787.0000000000001,143.19374999999997 790.4166666666666,141.10156249999994 793.8333333333334,139.00937499999998 797.2500000000001,136.91718749999995 800.6666666666667,134.825 804.0833333333334,132.73281249999997 807.5,130.64062499999994 810.9166666666667,128.54843749999998 814.3333333333334,126.45624999999995 817.75,124.36406249999999 821.1666666666667,122.27187499999997 824.5833333333334,120.17968749999994 828,118.08749999999998 831.4166666666667,115.99531249999995 834.8333333333334,113.90312499999999 838.2500000000001,111.81093749999997 841.6666666666666,109.71874999999994 845.0833333333334,107.62656249999998 848.5000000000001,105.53437499999995 851.9166666666667,103.44218749999999 855.3333333333334,101.34999999999997 858.75,99.25781249999994 862.1666666666667,97.16562499999998 865.5833333333334,95.07343749999995 869,92.98124999999999 872.4166666666667,90.88906249999997 875.8333333333334,88.79687499999994 879.25,86.70468749999998 882.6666666666667,84.61249999999995 886.0833333333334,82.52031249999999 889.5000000000001,80.42812499999997 892.9166666666666,78.33593749999994 896.3333333333334,76.24374999999998 899.7500000000001,74.15156249999995 903.1666666666667,72.05937499999999 906.5833333333334,69.96718749999997 910,67.87499999999994"/><text class="label" x="607.2307692307692" y="209.5">y = 15x</text><circle class="ptA" cx="216.15384615384616" cy="492.75" r="7.5"/><text class="label" x="228.15384615384616" y="480.75">(1, 15)</text><circle class="ptB" cx="468.46153846153845" cy="338.25" r="7.5"/><text class="label" x="480.46153846153845" y="326.25">(3, 45)</text><circle class="ptC" cx="846.9230769230769" cy="106.49999999999994" r="7.5"/><text class="label" x="756.9230769230769" y="94.49999999999994">(6, 90)</text>
</svg>