<?xml version="1.0" encoding="UTF-8"?>
<svg xmlns="http://www.w3.org/2000/svg" width="1200" height="780" viewBox="0 0 1200 780" fill="none">
<rect width="1200" height="780" fill="#f8fafc"/>
<g transform="translate(20, 20)">
    <g>
      <rect width="560" height="360" rx="18" fill="#ffffff" stroke="#cbd5e1" stroke-width="2"/>
      <text x="280" y="26" text-anchor="middle" font-family="Arial, sans-serif" font-size="19" font-weight="700" fill="#0f172a">f(x) = 2|2x - 6|</text>
      
      
      <line x1="58.00" y1="52" x2="58.00" y2="318" stroke="#e2e8f0" stroke-width="1"/><text x="58.00" y="346" text-anchor="middle" font-family="Arial, sans-serif" font-size="11" fill="#475569">-1</text><line x1="118.25" y1="52" x2="118.25" y2="318" stroke="#e2e8f0" stroke-width="1"/><line x1="178.50" y1="52" x2="178.50" y2="318" stroke="#e2e8f0" stroke-width="1"/><text x="178.50" y="346" text-anchor="middle" font-family="Arial, sans-serif" font-size="11" fill="#475569">1</text><line x1="238.75" y1="52" x2="238.75" y2="318" stroke="#e2e8f0" stroke-width="1"/><text x="238.75" y="346" text-anchor="middle" font-family="Arial, sans-serif" font-size="11" fill="#475569">2</text><line x1="299.00" y1="52" x2="299.00" y2="318" stroke="#e2e8f0" stroke-width="1"/><text x="299.00" y="346" text-anchor="middle" font-family="Arial, sans-serif" font-size="11" fill="#475569">3</text><line x1="359.25" y1="52" x2="359.25" y2="318" stroke="#e2e8f0" stroke-width="1"/><text x="359.25" y="346" text-anchor="middle" font-family="Arial, sans-serif" font-size="11" fill="#475569">4</text><line x1="419.50" y1="52" x2="419.50" y2="318" stroke="#e2e8f0" stroke-width="1"/><text x="419.50" y="346" text-anchor="middle" font-family="Arial, sans-serif" font-size="11" fill="#475569">5</text><line x1="479.75" y1="52" x2="479.75" y2="318" stroke="#e2e8f0" stroke-width="1"/><text x="479.75" y="346" text-anchor="middle" font-family="Arial, sans-serif" font-size="11" fill="#475569">6</text><line x1="540.00" y1="52" x2="540.00" y2="318" stroke="#e2e8f0" stroke-width="1"/><text x="540.00" y="346" text-anchor="middle" font-family="Arial, sans-serif" font-size="11" fill="#475569">7</text><line x1="58" y1="300.27" x2="540" y2="300.27" stroke="#e2e8f0" stroke-width="1"/><line x1="58" y1="264.80" x2="540" y2="264.80" stroke="#e2e8f0" stroke-width="1"/><text x="48" y="268.80" text-anchor="end" font-family="Arial, sans-serif" font-size="11" fill="#475569">2</text><line x1="58" y1="229.33" x2="540" y2="229.33" stroke="#e2e8f0" stroke-width="1"/><text x="48" y="233.33" text-anchor="end" font-family="Arial, sans-serif" font-size="11" fill="#475569">4</text><line x1="58" y1="193.87" x2="540" y2="193.87" stroke="#e2e8f0" stroke-width="1"/><text x="48" y="197.87" text-anchor="end" font-family="Arial, sans-serif" font-size="11" fill="#475569">6</text><line x1="58" y1="158.40" x2="540" y2="158.40" stroke="#e2e8f0" stroke-width="1"/><text x="48" y="162.40" text-anchor="end" font-family="Arial, sans-serif" font-size="11" fill="#475569">8</text><line x1="58" y1="122.93" x2="540" y2="122.93" stroke="#e2e8f0" stroke-width="1"/><text x="48" y="126.93" text-anchor="end" font-family="Arial, sans-serif" font-size="11" fill="#475569">10</text><line x1="58" y1="87.47" x2="540" y2="87.47" stroke="#e2e8f0" stroke-width="1"/><text x="48" y="91.47" text-anchor="end" font-family="Arial, sans-serif" font-size="11" fill="#475569">12</text><line x1="58" y1="52.00" x2="540" y2="52.00" stroke="#e2e8f0" stroke-width="1"/><text x="48" y="56.00" text-anchor="end" font-family="Arial, sans-serif" font-size="11" fill="#475569">14</text>
      <line x1="118.25" y1="52" x2="118.25" y2="318" stroke="#0f172a" stroke-width="1.8"/><line x1="58" y1="300.27" x2="540" y2="300.27" stroke="#0f172a" stroke-width="1.8"/>
      <polyline points="58.00,16.53 59.72,18.56 61.44,20.59 63.16,22.61 64.89,24.64 66.61,26.67 68.33,28.69 70.05,30.72 71.77,32.75 73.49,34.77 75.21,36.80 76.94,38.83 78.66,40.85 80.38,42.88 82.10,44.91 83.82,46.93 85.54,48.96 87.26,50.99 88.99,53.01 90.71,55.04 92.43,57.07 94.15,59.09 95.87,61.12 97.59,63.15 99.31,65.17 101.04,67.20 102.76,69.23 104.48,71.25 106.20,73.28 107.92,75.31 109.64,77.33 111.36,79.36 113.09,81.39 114.81,83.41 116.53,85.44 118.25,87.47 119.97,89.49 121.69,91.52 123.41,93.55 125.14,95.57 126.86,97.60 128.58,99.63 130.30,101.65 132.02,103.68 133.74,105.71 135.46,107.73 137.19,109.76 138.91,111.79 140.63,113.81 142.35,115.84 144.07,117.87 145.79,119.89 147.51,121.92 149.24,123.95 150.96,125.97 152.68,128.00 154.40,130.03 156.12,132.05 157.84,134.08 159.56,136.11 161.29,138.13 163.01,140.16 164.73,142.19 166.45,144.21 168.17,146.24 169.89,148.27 171.61,150.29 173.34,152.32 175.06,154.35 176.78,156.37 178.50,158.40 180.22,160.43 181.94,162.45 183.66,164.48 185.39,166.51 187.11,168.53 188.83,170.56 190.55,172.59 192.27,174.61 193.99,176.64 195.71,178.67 197.44,180.69 199.16,182.72 200.88,184.75 202.60,186.77 204.32,188.80 206.04,190.83 207.76,192.85 209.49,194.88 211.21,196.91 212.93,198.93 214.65,200.96 216.37,202.99 218.09,205.01 219.81,207.04 221.54,209.07 223.26,211.09 224.98,213.12 226.70,215.15 228.42,217.17 230.14,219.20 231.86,221.23 233.59,223.25 235.31,225.28 237.03,227.31 238.75,229.33 240.47,231.36 242.19,233.39 243.91,235.41 245.64,237.44 247.36,239.47 249.08,241.49 250.80,243.52 252.52,245.55 254.24,247.57 255.96,249.60 257.69,251.63 259.41,253.65 261.13,255.68 262.85,257.71 264.57,259.73 266.29,261.76 268.01,263.79 269.74,265.81 271.46,267.84 273.18,269.87 274.90,271.89 276.62,273.92 278.34,275.95 280.06,277.97 281.79,280.00 283.51,282.03 285.23,284.05 286.95,286.08 288.67,288.11 290.39,290.13 292.11,292.16 293.84,294.19 295.56,296.21 297.28,298.24 299.00,300.27 300.72,298.24 302.44,296.21 304.16,294.19 305.89,292.16 307.61,290.13 309.33,288.11 311.05,286.08 312.77,284.05 314.49,282.03 316.21,280.00 317.94,277.97 319.66,275.95 321.38,273.92 323.10,271.89 324.82,269.87 326.54,267.84 328.26,265.81 329.99,263.79 331.71,261.76 333.43,259.73 335.15,257.71 336.87,255.68 338.59,253.65 340.31,251.63 342.04,249.60 343.76,247.57 345.48,245.55 347.20,243.52 348.92,241.49 350.64,239.47 352.36,237.44 354.09,235.41 355.81,233.39 357.53,231.36 359.25,229.33 360.97,227.31 362.69,225.28 364.41,223.25 366.14,221.23 367.86,219.20 369.58,217.17 371.30,215.15 373.02,213.12 374.74,211.09 376.46,209.07 378.19,207.04 379.91,205.01 381.63,202.99 383.35,200.96 385.07,198.93 386.79,196.91 388.51,194.88 390.24,192.85 391.96,190.83 393.68,188.80 395.40,186.77 397.12,184.75 398.84,182.72 400.56,180.69 402.29,178.67 404.01,176.64 405.73,174.61 407.45,172.59 409.17,170.56 410.89,168.53 412.61,166.51 414.34,164.48 416.06,162.45 417.78,160.43 419.50,158.40 421.22,156.37 422.94,154.35 424.66,152.32 426.39,150.29 428.11,148.27 429.83,146.24 431.55,144.21 433.27,142.19 434.99,140.16 436.71,138.13 438.44,136.11 440.16,134.08 441.88,132.05 443.60,130.03 445.32,128.00 447.04,125.97 448.76,123.95 450.49,121.92 452.21,119.89 453.93,117.87 455.65,115.84 457.37,113.81 459.09,111.79 460.81,109.76 462.54,107.73 464.26,105.71 465.98,103.68 467.70,101.65 469.42,99.63 471.14,97.60 472.86,95.57 474.59,93.55 476.31,91.52 478.03,89.49 479.75,87.47 481.47,85.44 483.19,83.41 484.91,81.39 486.64,79.36 488.36,77.33 490.08,75.31 491.80,73.28 493.52,71.25 495.24,69.23 496.96,67.20 498.69,65.17 500.41,63.15 502.13,61.12 503.85,59.09 505.57,57.07 507.29,55.04 509.01,53.01 510.74,50.99 512.46,48.96 514.18,46.93 515.90,44.91 517.62,42.88 519.34,40.85 521.06,38.83 522.79,36.80 524.51,34.77 526.23,32.75 527.95,30.72 529.67,28.69 531.39,26.67 533.11,24.64 534.84,22.61 536.56,20.59 538.28,18.56 540.00,16.53" fill="none" stroke="#2563eb" stroke-width="3" />
      <circle cx="299.00" cy="300.27" r="4.5" fill="#dc2626" stroke="#ffffff" stroke-width="2"/><text x="307.00" y="292.27" font-family="Arial, sans-serif" font-size="12" fill="#dc2626">(3, 0)</text>
      
      
    </g>
  </g><g transform="translate(620, 20)">
    <g>
      <rect width="560" height="360" rx="18" fill="#ffffff" stroke="#cbd5e1" stroke-width="2"/>
      <text x="280" y="26" text-anchor="middle" font-family="Arial, sans-serif" font-size="19" font-weight="700" fill="#0f172a">f(x) = |x + 7|</text>
      
      
      <line x1="58.00" y1="52" x2="58.00" y2="318" stroke="#e2e8f0" stroke-width="1"/><text x="58.00" y="346" text-anchor="middle" font-family="Arial, sans-serif" font-size="11" fill="#475569">-12</text><line x1="154.40" y1="52" x2="154.40" y2="318" stroke="#e2e8f0" stroke-width="1"/><text x="154.40" y="346" text-anchor="middle" font-family="Arial, sans-serif" font-size="11" fill="#475569">-10</text><line x1="250.80" y1="52" x2="250.80" y2="318" stroke="#e2e8f0" stroke-width="1"/><text x="250.80" y="346" text-anchor="middle" font-family="Arial, sans-serif" font-size="11" fill="#475569">-8</text><line x1="347.20" y1="52" x2="347.20" y2="318" stroke="#e2e8f0" stroke-width="1"/><text x="347.20" y="346" text-anchor="middle" font-family="Arial, sans-serif" font-size="11" fill="#475569">-6</text><line x1="443.60" y1="52" x2="443.60" y2="318" stroke="#e2e8f0" stroke-width="1"/><text x="443.60" y="346" text-anchor="middle" font-family="Arial, sans-serif" font-size="11" fill="#475569">-4</text><line x1="540.00" y1="52" x2="540.00" y2="318" stroke="#e2e8f0" stroke-width="1"/><text x="540.00" y="346" text-anchor="middle" font-family="Arial, sans-serif" font-size="11" fill="#475569">-2</text><line x1="58" y1="293.82" x2="540" y2="293.82" stroke="#e2e8f0" stroke-width="1"/><line x1="58" y1="245.45" x2="540" y2="245.45" stroke="#e2e8f0" stroke-width="1"/><text x="48" y="249.45" text-anchor="end" font-family="Arial, sans-serif" font-size="11" fill="#475569">2</text><line x1="58" y1="197.09" x2="540" y2="197.09" stroke="#e2e8f0" stroke-width="1"/><text x="48" y="201.09" text-anchor="end" font-family="Arial, sans-serif" font-size="11" fill="#475569">4</text><line x1="58" y1="148.73" x2="540" y2="148.73" stroke="#e2e8f0" stroke-width="1"/><text x="48" y="152.73" text-anchor="end" font-family="Arial, sans-serif" font-size="11" fill="#475569">6</text><line x1="58" y1="100.36" x2="540" y2="100.36" stroke="#e2e8f0" stroke-width="1"/><text x="48" y="104.36" text-anchor="end" font-family="Arial, sans-serif" font-size="11" fill="#475569">8</text><line x1="58" y1="52.00" x2="540" y2="52.00" stroke="#e2e8f0" stroke-width="1"/><text x="48" y="56.00" text-anchor="end" font-family="Arial, sans-serif" font-size="11" fill="#475569">10</text>
      <line x1="58" y1="293.82" x2="540" y2="293.82" stroke="#0f172a" stroke-width="1.8"/>
      <polyline points="58.00,172.91 59.72,173.77 61.44,174.64 63.16,175.50 64.89,176.36 66.61,177.23 68.33,178.09 70.05,178.95 71.77,179.82 73.49,180.68 75.21,181.55 76.94,182.41 78.66,183.27 80.38,184.14 82.10,185.00 83.82,185.86 85.54,186.73 87.26,187.59 88.99,188.45 90.71,189.32 92.43,190.18 94.15,191.05 95.87,191.91 97.59,192.77 99.31,193.64 101.04,194.50 102.76,195.36 104.48,196.23 106.20,197.09 107.92,197.95 109.64,198.82 111.36,199.68 113.09,200.55 114.81,201.41 116.53,202.27 118.25,203.14 119.97,204.00 121.69,204.86 123.41,205.73 125.14,206.59 126.86,207.45 128.58,208.32 130.30,209.18 132.02,210.05 133.74,210.91 135.46,211.77 137.19,212.64 138.91,213.50 140.63,214.36 142.35,215.23 144.07,216.09 145.79,216.95 147.51,217.82 149.24,218.68 150.96,219.55 152.68,220.41 154.40,221.27 156.12,222.14 157.84,223.00 159.56,223.86 161.29,224.73 163.01,225.59 164.73,226.45 166.45,227.32 168.17,228.18 169.89,229.05 171.61,229.91 173.34,230.77 175.06,231.64 176.78,232.50 178.50,233.36 180.22,234.23 181.94,235.09 183.66,235.95 185.39,236.82 187.11,237.68 188.83,238.55 190.55,239.41 192.27,240.27 193.99,241.14 195.71,242.00 197.44,242.86 199.16,243.73 200.88,244.59 202.60,245.45 204.32,246.32 206.04,247.18 207.76,248.05 209.49,248.91 211.21,249.77 212.93,250.64 214.65,251.50 216.37,252.36 218.09,253.23 219.81,254.09 221.54,254.95 223.26,255.82 224.98,256.68 226.70,257.55 228.42,258.41 230.14,259.27 231.86,260.14 233.59,261.00 235.31,261.86 237.03,262.73 238.75,263.59 240.47,264.45 242.19,265.32 243.91,266.18 245.64,267.05 247.36,267.91 249.08,268.77 250.80,269.64 252.52,270.50 254.24,271.36 255.96,272.23 257.69,273.09 259.41,273.95 261.13,274.82 262.85,275.68 264.57,276.55 266.29,277.41 268.01,278.27 269.74,279.14 271.46,280.00 273.18,280.86 274.90,281.73 276.62,282.59 278.34,283.45 280.06,284.32 281.79,285.18 283.51,286.05 285.23,286.91 286.95,287.77 288.67,288.64 290.39,289.50 292.11,290.36 293.84,291.23 295.56,292.09 297.28,292.95 299.00,293.82 300.72,292.95 302.44,292.09 304.16,291.23 305.89,290.36 307.61,289.50 309.33,288.64 311.05,287.77 312.77,286.91 314.49,286.05 316.21,285.18 317.94,284.32 319.66,283.45 321.38,282.59 323.10,281.73 324.82,280.86 326.54,280.00 328.26,279.14 329.99,278.27 331.71,277.41 333.43,276.55 335.15,275.68 336.87,274.82 338.59,273.95 340.31,273.09 342.04,272.23 343.76,271.36 345.48,270.50 347.20,269.64 348.92,268.77 350.64,267.91 352.36,267.05 354.09,266.18 355.81,265.32 357.53,264.45 359.25,263.59 360.97,262.73 362.69,261.86 364.41,261.00 366.14,260.14 367.86,259.27 369.58,258.41 371.30,257.55 373.02,256.68 374.74,255.82 376.46,254.95 378.19,254.09 379.91,253.23 381.63,252.36 383.35,251.50 385.07,250.64 386.79,249.77 388.51,248.91 390.24,248.05 391.96,247.18 393.68,246.32 395.40,245.45 397.12,244.59 398.84,243.73 400.56,242.86 402.29,242.00 404.01,241.14 405.73,240.27 407.45,239.41 409.17,238.55 410.89,237.68 412.61,236.82 414.34,235.95 416.06,235.09 417.78,234.23 419.50,233.36 421.22,232.50 422.94,231.64 424.66,230.77 426.39,229.91 428.11,229.05 429.83,228.18 431.55,227.32 433.27,226.45 434.99,225.59 436.71,224.73 438.44,223.86 440.16,223.00 441.88,222.14 443.60,221.27 445.32,220.41 447.04,219.55 448.76,218.68 450.49,217.82 452.21,216.95 453.93,216.09 455.65,215.23 457.37,214.36 459.09,213.50 460.81,212.64 462.54,211.77 464.26,210.91 465.98,210.05 467.70,209.18 469.42,208.32 471.14,207.45 472.86,206.59 474.59,205.73 476.31,204.86 478.03,204.00 479.75,203.14 481.47,202.27 483.19,201.41 484.91,200.55 486.64,199.68 488.36,198.82 490.08,197.95 491.80,197.09 493.52,196.23 495.24,195.36 496.96,194.50 498.69,193.64 500.41,192.77 502.13,191.91 503.85,191.05 505.57,190.18 507.29,189.32 509.01,188.45 510.74,187.59 512.46,186.73 514.18,185.86 515.90,185.00 517.62,184.14 519.34,183.27 521.06,182.41 522.79,181.55 524.51,180.68 526.23,179.82 527.95,178.95 529.67,178.09 531.39,177.23 533.11,176.36 534.84,175.50 536.56,174.64 538.28,173.77 540.00,172.91" fill="none" stroke="#0f766e" stroke-width="3" />
      <circle cx="299.00" cy="293.82" r="4.5" fill="#dc2626" stroke="#ffffff" stroke-width="2"/><text x="307.00" y="285.82" font-family="Arial, sans-serif" font-size="12" fill="#dc2626">(-7, 0)</text>
      
      
    </g>
  </g><g transform="translate(20, 400)">
    <g>
      <rect width="560" height="360" rx="18" fill="#ffffff" stroke="#cbd5e1" stroke-width="2"/>
      <text x="280" y="26" text-anchor="middle" font-family="Arial, sans-serif" font-size="19" font-weight="700" fill="#0f172a">f(x) = |-x + 6| - 3</text>
      
      
      <line x1="58.00" y1="52" x2="58.00" y2="318" stroke="#e2e8f0" stroke-width="1"/><line x1="138.33" y1="52" x2="138.33" y2="318" stroke="#e2e8f0" stroke-width="1"/><text x="138.33" y="346" text-anchor="middle" font-family="Arial, sans-serif" font-size="11" fill="#475569">2</text><line x1="218.67" y1="52" x2="218.67" y2="318" stroke="#e2e8f0" stroke-width="1"/><text x="218.67" y="346" text-anchor="middle" font-family="Arial, sans-serif" font-size="11" fill="#475569">4</text><line x1="299.00" y1="52" x2="299.00" y2="318" stroke="#e2e8f0" stroke-width="1"/><text x="299.00" y="346" text-anchor="middle" font-family="Arial, sans-serif" font-size="11" fill="#475569">6</text><line x1="379.33" y1="52" x2="379.33" y2="318" stroke="#e2e8f0" stroke-width="1"/><text x="379.33" y="346" text-anchor="middle" font-family="Arial, sans-serif" font-size="11" fill="#475569">8</text><line x1="459.67" y1="52" x2="459.67" y2="318" stroke="#e2e8f0" stroke-width="1"/><text x="459.67" y="346" text-anchor="middle" font-family="Arial, sans-serif" font-size="11" fill="#475569">10</text><line x1="540.00" y1="52" x2="540.00" y2="318" stroke="#e2e8f0" stroke-width="1"/><text x="540.00" y="346" text-anchor="middle" font-family="Arial, sans-serif" font-size="11" fill="#475569">12</text><line x1="58" y1="297.54" x2="540" y2="297.54" stroke="#e2e8f0" stroke-width="1"/><text x="48" y="301.54" text-anchor="end" font-family="Arial, sans-serif" font-size="11" fill="#475569">-4</text><line x1="58" y1="256.62" x2="540" y2="256.62" stroke="#e2e8f0" stroke-width="1"/><text x="48" y="260.62" text-anchor="end" font-family="Arial, sans-serif" font-size="11" fill="#475569">-2</text><line x1="58" y1="215.69" x2="540" y2="215.69" stroke="#e2e8f0" stroke-width="1"/><line x1="58" y1="174.77" x2="540" y2="174.77" stroke="#e2e8f0" stroke-width="1"/><text x="48" y="178.77" text-anchor="end" font-family="Arial, sans-serif" font-size="11" fill="#475569">2</text><line x1="58" y1="133.85" x2="540" y2="133.85" stroke="#e2e8f0" stroke-width="1"/><text x="48" y="137.85" text-anchor="end" font-family="Arial, sans-serif" font-size="11" fill="#475569">4</text><line x1="58" y1="92.92" x2="540" y2="92.92" stroke="#e2e8f0" stroke-width="1"/><text x="48" y="96.92" text-anchor="end" font-family="Arial, sans-serif" font-size="11" fill="#475569">6</text><line x1="58" y1="52.00" x2="540" y2="52.00" stroke="#e2e8f0" stroke-width="1"/><text x="48" y="56.00" text-anchor="end" font-family="Arial, sans-serif" font-size="11" fill="#475569">8</text>
      <line x1="58.00" y1="52" x2="58.00" y2="318" stroke="#0f172a" stroke-width="1.8"/><line x1="58" y1="215.69" x2="540" y2="215.69" stroke="#0f172a" stroke-width="1.8"/>
      <polyline points="58.00,154.31 59.72,155.18 61.44,156.06 63.16,156.94 64.89,157.82 66.61,158.69 68.33,159.57 70.05,160.45 71.77,161.32 73.49,162.20 75.21,163.08 76.94,163.95 78.66,164.83 80.38,165.71 82.10,166.58 83.82,167.46 85.54,168.34 87.26,169.22 88.99,170.09 90.71,170.97 92.43,171.85 94.15,172.72 95.87,173.60 97.59,174.48 99.31,175.35 101.04,176.23 102.76,177.11 104.48,177.98 106.20,178.86 107.92,179.74 109.64,180.62 111.36,181.49 113.09,182.37 114.81,183.25 116.53,184.12 118.25,185.00 119.97,185.88 121.69,186.75 123.41,187.63 125.14,188.51 126.86,189.38 128.58,190.26 130.30,191.14 132.02,192.02 133.74,192.89 135.46,193.77 137.19,194.65 138.91,195.52 140.63,196.40 142.35,197.28 144.07,198.15 145.79,199.03 147.51,199.91 149.24,200.78 150.96,201.66 152.68,202.54 154.40,203.42 156.12,204.29 157.84,205.17 159.56,206.05 161.29,206.92 163.01,207.80 164.73,208.68 166.45,209.55 168.17,210.43 169.89,211.31 171.61,212.18 173.34,213.06 175.06,213.94 176.78,214.82 178.50,215.69 180.22,216.57 181.94,217.45 183.66,218.32 185.39,219.20 187.11,220.08 188.83,220.95 190.55,221.83 192.27,222.71 193.99,223.58 195.71,224.46 197.44,225.34 199.16,226.22 200.88,227.09 202.60,227.97 204.32,228.85 206.04,229.72 207.76,230.60 209.49,231.48 211.21,232.35 212.93,233.23 214.65,234.11 216.37,234.98 218.09,235.86 219.81,236.74 221.54,237.62 223.26,238.49 224.98,239.37 226.70,240.25 228.42,241.12 230.14,242.00 231.86,242.88 233.59,243.75 235.31,244.63 237.03,245.51 238.75,246.38 240.47,247.26 242.19,248.14 243.91,249.02 245.64,249.89 247.36,250.77 249.08,251.65 250.80,252.52 252.52,253.40 254.24,254.28 255.96,255.15 257.69,256.03 259.41,256.91 261.13,257.78 262.85,258.66 264.57,259.54 266.29,260.42 268.01,261.29 269.74,262.17 271.46,263.05 273.18,263.92 274.90,264.80 276.62,265.68 278.34,266.55 280.06,267.43 281.79,268.31 283.51,269.18 285.23,270.06 286.95,270.94 288.67,271.82 290.39,272.69 292.11,273.57 293.84,274.45 295.56,275.32 297.28,276.20 299.00,277.08 300.72,276.20 302.44,275.32 304.16,274.45 305.89,273.57 307.61,272.69 309.33,271.82 311.05,270.94 312.77,270.06 314.49,269.18 316.21,268.31 317.94,267.43 319.66,266.55 321.38,265.68 323.10,264.80 324.82,263.92 326.54,263.05 328.26,262.17 329.99,261.29 331.71,260.42 333.43,259.54 335.15,258.66 336.87,257.78 338.59,256.91 340.31,256.03 342.04,255.15 343.76,254.28 345.48,253.40 347.20,252.52 348.92,251.65 350.64,250.77 352.36,249.89 354.09,249.02 355.81,248.14 357.53,247.26 359.25,246.38 360.97,245.51 362.69,244.63 364.41,243.75 366.14,242.88 367.86,242.00 369.58,241.12 371.30,240.25 373.02,239.37 374.74,238.49 376.46,237.62 378.19,236.74 379.91,235.86 381.63,234.98 383.35,234.11 385.07,233.23 386.79,232.35 388.51,231.48 390.24,230.60 391.96,229.72 393.68,228.85 395.40,227.97 397.12,227.09 398.84,226.22 400.56,225.34 402.29,224.46 404.01,223.58 405.73,222.71 407.45,221.83 409.17,220.95 410.89,220.08 412.61,219.20 414.34,218.32 416.06,217.45 417.78,216.57 419.50,215.69 421.22,214.82 422.94,213.94 424.66,213.06 426.39,212.18 428.11,211.31 429.83,210.43 431.55,209.55 433.27,208.68 434.99,207.80 436.71,206.92 438.44,206.05 440.16,205.17 441.88,204.29 443.60,203.42 445.32,202.54 447.04,201.66 448.76,200.78 450.49,199.91 452.21,199.03 453.93,198.15 455.65,197.28 457.37,196.40 459.09,195.52 460.81,194.65 462.54,193.77 464.26,192.89 465.98,192.02 467.70,191.14 469.42,190.26 471.14,189.38 472.86,188.51 474.59,187.63 476.31,186.75 478.03,185.88 479.75,185.00 481.47,184.12 483.19,183.25 484.91,182.37 486.64,181.49 488.36,180.62 490.08,179.74 491.80,178.86 493.52,177.98 495.24,177.11 496.96,176.23 498.69,175.35 500.41,174.48 502.13,173.60 503.85,172.72 505.57,171.85 507.29,170.97 509.01,170.09 510.74,169.22 512.46,168.34 514.18,167.46 515.90,166.58 517.62,165.71 519.34,164.83 521.06,163.95 522.79,163.08 524.51,162.20 526.23,161.32 527.95,160.45 529.67,159.57 531.39,158.69 533.11,157.82 534.84,156.94 536.56,156.06 538.28,155.18 540.00,154.31" fill="none" stroke="#7c3aed" stroke-width="3" />
      <circle cx="299.00" cy="277.08" r="4.5" fill="#dc2626" stroke="#ffffff" stroke-width="2"/><text x="307.00" y="269.08" font-family="Arial, sans-serif" font-size="12" fill="#dc2626">(6, -3)</text>
      
      
    </g>
  </g><g transform="translate(620, 400)">
    <g>
      <rect width="560" height="360" rx="18" fill="#ffffff" stroke="#cbd5e1" stroke-width="2"/>
      <text x="280" y="26" text-anchor="middle" font-family="Arial, sans-serif" font-size="19" font-weight="700" fill="#0f172a">f(x) = |6x - 8|</text>
      
      
      <line x1="58.00" y1="52" x2="58.00" y2="318" stroke="#e2e8f0" stroke-width="1"/><line x1="178.50" y1="52" x2="178.50" y2="318" stroke="#e2e8f0" stroke-width="1"/><text x="178.50" y="346" text-anchor="middle" font-family="Arial, sans-serif" font-size="11" fill="#475569">1</text><line x1="299.00" y1="52" x2="299.00" y2="318" stroke="#e2e8f0" stroke-width="1"/><text x="299.00" y="346" text-anchor="middle" font-family="Arial, sans-serif" font-size="11" fill="#475569">2</text><line x1="419.50" y1="52" x2="419.50" y2="318" stroke="#e2e8f0" stroke-width="1"/><text x="419.50" y="346" text-anchor="middle" font-family="Arial, sans-serif" font-size="11" fill="#475569">3</text><line x1="540.00" y1="52" x2="540.00" y2="318" stroke="#e2e8f0" stroke-width="1"/><text x="540.00" y="346" text-anchor="middle" font-family="Arial, sans-serif" font-size="11" fill="#475569">4</text><line x1="58" y1="297.54" x2="540" y2="297.54" stroke="#e2e8f0" stroke-width="1"/><line x1="58" y1="256.62" x2="540" y2="256.62" stroke="#e2e8f0" stroke-width="1"/><text x="48" y="260.62" text-anchor="end" font-family="Arial, sans-serif" font-size="11" fill="#475569">2</text><line x1="58" y1="215.69" x2="540" y2="215.69" stroke="#e2e8f0" stroke-width="1"/><text x="48" y="219.69" text-anchor="end" font-family="Arial, sans-serif" font-size="11" fill="#475569">4</text><line x1="58" y1="174.77" x2="540" y2="174.77" stroke="#e2e8f0" stroke-width="1"/><text x="48" y="178.77" text-anchor="end" font-family="Arial, sans-serif" font-size="11" fill="#475569">6</text><line x1="58" y1="133.85" x2="540" y2="133.85" stroke="#e2e8f0" stroke-width="1"/><text x="48" y="137.85" text-anchor="end" font-family="Arial, sans-serif" font-size="11" fill="#475569">8</text><line x1="58" y1="92.92" x2="540" y2="92.92" stroke="#e2e8f0" stroke-width="1"/><text x="48" y="96.92" text-anchor="end" font-family="Arial, sans-serif" font-size="11" fill="#475569">10</text><line x1="58" y1="52.00" x2="540" y2="52.00" stroke="#e2e8f0" stroke-width="1"/><text x="48" y="56.00" text-anchor="end" font-family="Arial, sans-serif" font-size="11" fill="#475569">12</text>
      <line x1="58.00" y1="52" x2="58.00" y2="318" stroke="#0f172a" stroke-width="1.8"/><line x1="58" y1="297.54" x2="540" y2="297.54" stroke="#0f172a" stroke-width="1.8"/>
      <polyline points="58.00,133.85 59.72,135.60 61.44,137.35 63.16,139.11 64.89,140.86 66.61,142.62 68.33,144.37 70.05,146.12 71.77,147.88 73.49,149.63 75.21,151.38 76.94,153.14 78.66,154.89 80.38,156.65 82.10,158.40 83.82,160.15 85.54,161.91 87.26,163.66 88.99,165.42 90.71,167.17 92.43,168.92 94.15,170.68 95.87,172.43 97.59,174.18 99.31,175.94 101.04,177.69 102.76,179.45 104.48,181.20 106.20,182.95 107.92,184.71 109.64,186.46 111.36,188.22 113.09,189.97 114.81,191.72 116.53,193.48 118.25,195.23 119.97,196.98 121.69,198.74 123.41,200.49 125.14,202.25 126.86,204.00 128.58,205.75 130.30,207.51 132.02,209.26 133.74,211.02 135.46,212.77 137.19,214.52 138.91,216.28 140.63,218.03 142.35,219.78 144.07,221.54 145.79,223.29 147.51,225.05 149.24,226.80 150.96,228.55 152.68,230.31 154.40,232.06 156.12,233.82 157.84,235.57 159.56,237.32 161.29,239.08 163.01,240.83 164.73,242.58 166.45,244.34 168.17,246.09 169.89,247.85 171.61,249.60 173.34,251.35 175.06,253.11 176.78,254.86 178.50,256.62 180.22,258.37 181.94,260.12 183.66,261.88 185.39,263.63 187.11,265.38 188.83,267.14 190.55,268.89 192.27,270.65 193.99,272.40 195.71,274.15 197.44,275.91 199.16,277.66 200.88,279.42 202.60,281.17 204.32,282.92 206.04,284.68 207.76,286.43 209.49,288.18 211.21,289.94 212.93,291.69 214.65,293.45 216.37,295.20 218.09,296.95 219.81,296.37 221.54,294.62 223.26,292.86 224.98,291.11 226.70,289.35 228.42,287.60 230.14,285.85 231.86,284.09 233.59,282.34 235.31,280.58 237.03,278.83 238.75,277.08 240.47,275.32 242.19,273.57 243.91,271.82 245.64,270.06 247.36,268.31 249.08,266.55 250.80,264.80 252.52,263.05 254.24,261.29 255.96,259.54 257.69,257.78 259.41,256.03 261.13,254.28 262.85,252.52 264.57,250.77 266.29,249.02 268.01,247.26 269.74,245.51 271.46,243.75 273.18,242.00 274.90,240.25 276.62,238.49 278.34,236.74 280.06,234.98 281.79,233.23 283.51,231.48 285.23,229.72 286.95,227.97 288.67,226.22 290.39,224.46 292.11,222.71 293.84,220.95 295.56,219.20 297.28,217.45 299.00,215.69 300.72,213.94 302.44,212.18 304.16,210.43 305.89,208.68 307.61,206.92 309.33,205.17 311.05,203.42 312.77,201.66 314.49,199.91 316.21,198.15 317.94,196.40 319.66,194.65 321.38,192.89 323.10,191.14 324.82,189.38 326.54,187.63 328.26,185.88 329.99,184.12 331.71,182.37 333.43,180.62 335.15,178.86 336.87,177.11 338.59,175.35 340.31,173.60 342.04,171.85 343.76,170.09 345.48,168.34 347.20,166.58 348.92,164.83 350.64,163.08 352.36,161.32 354.09,159.57 355.81,157.82 357.53,156.06 359.25,154.31 360.97,152.55 362.69,150.80 364.41,149.05 366.14,147.29 367.86,145.54 369.58,143.78 371.30,142.03 373.02,140.28 374.74,138.52 376.46,136.77 378.19,135.02 379.91,133.26 381.63,131.51 383.35,129.75 385.07,128.00 386.79,126.25 388.51,124.49 390.24,122.74 391.96,120.98 393.68,119.23 395.40,117.48 397.12,115.72 398.84,113.97 400.56,112.22 402.29,110.46 404.01,108.71 405.73,106.95 407.45,105.20 409.17,103.45 410.89,101.69 412.61,99.94 414.34,98.18 416.06,96.43 417.78,94.68 419.50,92.92 421.22,91.17 422.94,89.42 424.66,87.66 426.39,85.91 428.11,84.15 429.83,82.40 431.55,80.65 433.27,78.89 434.99,77.14 436.71,75.38 438.44,73.63 440.16,71.88 441.88,70.12 443.60,68.37 445.32,66.62 447.04,64.86 448.76,63.11 450.49,61.35 452.21,59.60 453.93,57.85 455.65,56.09 457.37,54.34 459.09,52.58 460.81,50.83 462.54,49.08 464.26,47.32 465.98,45.57 467.70,43.82 469.42,42.06 471.14,40.31 472.86,38.55 474.59,36.80 476.31,35.05 478.03,33.29 479.75,31.54 481.47,29.78 483.19,28.03 484.91,26.28 486.64,24.52 488.36,22.77 490.08,21.02 491.80,19.26 493.52,17.51 495.24,15.75 496.96,14.00 498.69,12.25 500.41,10.49 502.13,8.74 503.85,6.98 505.57,5.23 507.29,3.48 509.01,1.72 510.74,-0.03" fill="none" stroke="#ea580c" stroke-width="3" />
      <circle cx="218.67" cy="297.54" r="4.5" fill="#dc2626" stroke="#ffffff" stroke-width="2"/><text x="208.67" y="287.54" font-family="Arial, sans-serif" font-size="12" fill="#dc2626">(4/3, 0)</text>
      
      
    </g>
  </g>
</svg>
