<?xml version="1.0" encoding="UTF-8"?>
<svg xmlns="http://www.w3.org/2000/svg" width="1200" height="780" viewBox="0 0 1200 780" fill="none">
<rect width="1200" height="780" fill="#f8fafc"/>
<g transform="translate(20, 20)">
    <g>
      <rect width="560" height="360" rx="18" fill="#ffffff" stroke="#cbd5e1" stroke-width="2"/>
      <text x="280" y="26" text-anchor="middle" font-family="Arial, sans-serif" font-size="19" font-weight="700" fill="#0f172a">f(x) = -5|x + 9|</text>
      
      
      <line x1="58.00" y1="52" x2="58.00" y2="318" stroke="#e2e8f0" stroke-width="1"/><text x="58.00" y="346" text-anchor="middle" font-family="Arial, sans-serif" font-size="11" fill="#475569">-14</text><line x1="154.40" y1="52" x2="154.40" y2="318" stroke="#e2e8f0" stroke-width="1"/><text x="154.40" y="346" text-anchor="middle" font-family="Arial, sans-serif" font-size="11" fill="#475569">-12</text><line x1="250.80" y1="52" x2="250.80" y2="318" stroke="#e2e8f0" stroke-width="1"/><text x="250.80" y="346" text-anchor="middle" font-family="Arial, sans-serif" font-size="11" fill="#475569">-10</text><line x1="347.20" y1="52" x2="347.20" y2="318" stroke="#e2e8f0" stroke-width="1"/><text x="347.20" y="346" text-anchor="middle" font-family="Arial, sans-serif" font-size="11" fill="#475569">-8</text><line x1="443.60" y1="52" x2="443.60" y2="318" stroke="#e2e8f0" stroke-width="1"/><text x="443.60" y="346" text-anchor="middle" font-family="Arial, sans-serif" font-size="11" fill="#475569">-6</text><line x1="540.00" y1="52" x2="540.00" y2="318" stroke="#e2e8f0" stroke-width="1"/><text x="540.00" y="346" text-anchor="middle" font-family="Arial, sans-serif" font-size="11" fill="#475569">-4</text><line x1="58" y1="318.00" x2="540" y2="318.00" stroke="#e2e8f0" stroke-width="1"/><text x="48" y="322.00" text-anchor="end" font-family="Arial, sans-serif" font-size="11" fill="#475569">-30</text><line x1="58" y1="280.00" x2="540" y2="280.00" stroke="#e2e8f0" stroke-width="1"/><text x="48" y="284.00" text-anchor="end" font-family="Arial, sans-serif" font-size="11" fill="#475569">-25</text><line x1="58" y1="242.00" x2="540" y2="242.00" stroke="#e2e8f0" stroke-width="1"/><text x="48" y="246.00" text-anchor="end" font-family="Arial, sans-serif" font-size="11" fill="#475569">-20</text><line x1="58" y1="204.00" x2="540" y2="204.00" stroke="#e2e8f0" stroke-width="1"/><text x="48" y="208.00" text-anchor="end" font-family="Arial, sans-serif" font-size="11" fill="#475569">-15</text><line x1="58" y1="166.00" x2="540" y2="166.00" stroke="#e2e8f0" stroke-width="1"/><text x="48" y="170.00" text-anchor="end" font-family="Arial, sans-serif" font-size="11" fill="#475569">-10</text><line x1="58" y1="128.00" x2="540" y2="128.00" stroke="#e2e8f0" stroke-width="1"/><text x="48" y="132.00" text-anchor="end" font-family="Arial, sans-serif" font-size="11" fill="#475569">-5</text><line x1="58" y1="90.00" x2="540" y2="90.00" stroke="#e2e8f0" stroke-width="1"/><line x1="58" y1="52.00" x2="540" y2="52.00" stroke="#e2e8f0" stroke-width="1"/><text x="48" y="56.00" text-anchor="end" font-family="Arial, sans-serif" font-size="11" fill="#475569">5</text>
      <line x1="58" y1="90.00" x2="540" y2="90.00" stroke="#0f172a" stroke-width="1.8"/>
      <polyline points="58.00,280.00 59.72,278.64 61.44,277.29 63.16,275.93 64.89,274.57 66.61,273.21 68.33,271.86 70.05,270.50 71.77,269.14 73.49,267.79 75.21,266.43 76.94,265.07 78.66,263.71 80.38,262.36 82.10,261.00 83.82,259.64 85.54,258.29 87.26,256.93 88.99,255.57 90.71,254.21 92.43,252.86 94.15,251.50 95.87,250.14 97.59,248.79 99.31,247.43 101.04,246.07 102.76,244.71 104.48,243.36 106.20,242.00 107.92,240.64 109.64,239.29 111.36,237.93 113.09,236.57 114.81,235.21 116.53,233.86 118.25,232.50 119.97,231.14 121.69,229.79 123.41,228.43 125.14,227.07 126.86,225.71 128.58,224.36 130.30,223.00 132.02,221.64 133.74,220.29 135.46,218.93 137.19,217.57 138.91,216.21 140.63,214.86 142.35,213.50 144.07,212.14 145.79,210.79 147.51,209.43 149.24,208.07 150.96,206.71 152.68,205.36 154.40,204.00 156.12,202.64 157.84,201.29 159.56,199.93 161.29,198.57 163.01,197.21 164.73,195.86 166.45,194.50 168.17,193.14 169.89,191.79 171.61,190.43 173.34,189.07 175.06,187.71 176.78,186.36 178.50,185.00 180.22,183.64 181.94,182.29 183.66,180.93 185.39,179.57 187.11,178.21 188.83,176.86 190.55,175.50 192.27,174.14 193.99,172.79 195.71,171.43 197.44,170.07 199.16,168.71 200.88,167.36 202.60,166.00 204.32,164.64 206.04,163.29 207.76,161.93 209.49,160.57 211.21,159.21 212.93,157.86 214.65,156.50 216.37,155.14 218.09,153.79 219.81,152.43 221.54,151.07 223.26,149.71 224.98,148.36 226.70,147.00 228.42,145.64 230.14,144.29 231.86,142.93 233.59,141.57 235.31,140.21 237.03,138.86 238.75,137.50 240.47,136.14 242.19,134.79 243.91,133.43 245.64,132.07 247.36,130.71 249.08,129.36 250.80,128.00 252.52,126.64 254.24,125.29 255.96,123.93 257.69,122.57 259.41,121.21 261.13,119.86 262.85,118.50 264.57,117.14 266.29,115.79 268.01,114.43 269.74,113.07 271.46,111.71 273.18,110.36 274.90,109.00 276.62,107.64 278.34,106.29 280.06,104.93 281.79,103.57 283.51,102.21 285.23,100.86 286.95,99.50 288.67,98.14 290.39,96.79 292.11,95.43 293.84,94.07 295.56,92.71 297.28,91.36 299.00,90.00 300.72,91.36 302.44,92.71 304.16,94.07 305.89,95.43 307.61,96.79 309.33,98.14 311.05,99.50 312.77,100.86 314.49,102.21 316.21,103.57 317.94,104.93 319.66,106.29 321.38,107.64 323.10,109.00 324.82,110.36 326.54,111.71 328.26,113.07 329.99,114.43 331.71,115.79 333.43,117.14 335.15,118.50 336.87,119.86 338.59,121.21 340.31,122.57 342.04,123.93 343.76,125.29 345.48,126.64 347.20,128.00 348.92,129.36 350.64,130.71 352.36,132.07 354.09,133.43 355.81,134.79 357.53,136.14 359.25,137.50 360.97,138.86 362.69,140.21 364.41,141.57 366.14,142.93 367.86,144.29 369.58,145.64 371.30,147.00 373.02,148.36 374.74,149.71 376.46,151.07 378.19,152.43 379.91,153.79 381.63,155.14 383.35,156.50 385.07,157.86 386.79,159.21 388.51,160.57 390.24,161.93 391.96,163.29 393.68,164.64 395.40,166.00 397.12,167.36 398.84,168.71 400.56,170.07 402.29,171.43 404.01,172.79 405.73,174.14 407.45,175.50 409.17,176.86 410.89,178.21 412.61,179.57 414.34,180.93 416.06,182.29 417.78,183.64 419.50,185.00 421.22,186.36 422.94,187.71 424.66,189.07 426.39,190.43 428.11,191.79 429.83,193.14 431.55,194.50 433.27,195.86 434.99,197.21 436.71,198.57 438.44,199.93 440.16,201.29 441.88,202.64 443.60,204.00 445.32,205.36 447.04,206.71 448.76,208.07 450.49,209.43 452.21,210.79 453.93,212.14 455.65,213.50 457.37,214.86 459.09,216.21 460.81,217.57 462.54,218.93 464.26,220.29 465.98,221.64 467.70,223.00 469.42,224.36 471.14,225.71 472.86,227.07 474.59,228.43 476.31,229.79 478.03,231.14 479.75,232.50 481.47,233.86 483.19,235.21 484.91,236.57 486.64,237.93 488.36,239.29 490.08,240.64 491.80,242.00 493.52,243.36 495.24,244.71 496.96,246.07 498.69,247.43 500.41,248.79 502.13,250.14 503.85,251.50 505.57,252.86 507.29,254.21 509.01,255.57 510.74,256.93 512.46,258.29 514.18,259.64 515.90,261.00 517.62,262.36 519.34,263.71 521.06,265.07 522.79,266.43 524.51,267.79 526.23,269.14 527.95,270.50 529.67,271.86 531.39,273.21 533.11,274.57 534.84,275.93 536.56,277.29 538.28,278.64 540.00,280.00" fill="none" stroke="#2563eb" stroke-width="3" />
      <circle cx="299.00" cy="90.00" r="4.5" fill="#dc2626" stroke="#ffffff" stroke-width="2"/><text x="307.00" y="82.00" font-family="Arial, sans-serif" font-size="12" fill="#dc2626">(-9, 0)</text>
      
      
    </g>
  </g><g transform="translate(620, 20)">
    <g>
      <rect width="560" height="360" rx="18" fill="#ffffff" stroke="#cbd5e1" stroke-width="2"/>
      <text x="280" y="26" text-anchor="middle" font-family="Arial, sans-serif" font-size="19" font-weight="700" fill="#0f172a">f(x) = |x| - 2</text>
      
      
      <line x1="58.00" y1="52" x2="58.00" y2="318" stroke="#e2e8f0" stroke-width="1"/><text x="58.00" y="346" text-anchor="middle" font-family="Arial, sans-serif" font-size="11" fill="#475569">-6</text><line x1="138.33" y1="52" x2="138.33" y2="318" stroke="#e2e8f0" stroke-width="1"/><text x="138.33" y="346" text-anchor="middle" font-family="Arial, sans-serif" font-size="11" fill="#475569">-4</text><line x1="218.67" y1="52" x2="218.67" y2="318" stroke="#e2e8f0" stroke-width="1"/><text x="218.67" y="346" text-anchor="middle" font-family="Arial, sans-serif" font-size="11" fill="#475569">-2</text><line x1="299.00" y1="52" x2="299.00" y2="318" stroke="#e2e8f0" stroke-width="1"/><line x1="379.33" y1="52" x2="379.33" y2="318" stroke="#e2e8f0" stroke-width="1"/><text x="379.33" y="346" text-anchor="middle" font-family="Arial, sans-serif" font-size="11" fill="#475569">2</text><line x1="459.67" y1="52" x2="459.67" y2="318" stroke="#e2e8f0" stroke-width="1"/><text x="459.67" y="346" text-anchor="middle" font-family="Arial, sans-serif" font-size="11" fill="#475569">4</text><line x1="540.00" y1="52" x2="540.00" y2="318" stroke="#e2e8f0" stroke-width="1"/><text x="540.00" y="346" text-anchor="middle" font-family="Arial, sans-serif" font-size="11" fill="#475569">6</text><line x1="58" y1="318.00" x2="540" y2="318.00" stroke="#e2e8f0" stroke-width="1"/><text x="48" y="322.00" text-anchor="end" font-family="Arial, sans-serif" font-size="11" fill="#475569">-4</text><line x1="58" y1="264.80" x2="540" y2="264.80" stroke="#e2e8f0" stroke-width="1"/><text x="48" y="268.80" text-anchor="end" font-family="Arial, sans-serif" font-size="11" fill="#475569">-2</text><line x1="58" y1="211.60" x2="540" y2="211.60" stroke="#e2e8f0" stroke-width="1"/><line x1="58" y1="158.40" x2="540" y2="158.40" stroke="#e2e8f0" stroke-width="1"/><text x="48" y="162.40" text-anchor="end" font-family="Arial, sans-serif" font-size="11" fill="#475569">2</text><line x1="58" y1="105.20" x2="540" y2="105.20" stroke="#e2e8f0" stroke-width="1"/><text x="48" y="109.20" text-anchor="end" font-family="Arial, sans-serif" font-size="11" fill="#475569">4</text><line x1="58" y1="52.00" x2="540" y2="52.00" stroke="#e2e8f0" stroke-width="1"/><text x="48" y="56.00" text-anchor="end" font-family="Arial, sans-serif" font-size="11" fill="#475569">6</text>
      <line x1="299.00" y1="52" x2="299.00" y2="318" stroke="#0f172a" stroke-width="1.8"/><line x1="58" y1="211.60" x2="540" y2="211.60" stroke="#0f172a" stroke-width="1.8"/>
      <polyline points="58.00,105.20 59.72,106.34 61.44,107.48 63.16,108.62 64.89,109.76 66.61,110.90 68.33,112.04 70.05,113.18 71.77,114.32 73.49,115.46 75.21,116.60 76.94,117.74 78.66,118.88 80.38,120.02 82.10,121.16 83.82,122.30 85.54,123.44 87.26,124.58 88.99,125.72 90.71,126.86 92.43,128.00 94.15,129.14 95.87,130.28 97.59,131.42 99.31,132.56 101.04,133.70 102.76,134.84 104.48,135.98 106.20,137.12 107.92,138.26 109.64,139.40 111.36,140.54 113.09,141.68 114.81,142.82 116.53,143.96 118.25,145.10 119.97,146.24 121.69,147.38 123.41,148.52 125.14,149.66 126.86,150.80 128.58,151.94 130.30,153.08 132.02,154.22 133.74,155.36 135.46,156.50 137.19,157.64 138.91,158.78 140.63,159.92 142.35,161.06 144.07,162.20 145.79,163.34 147.51,164.48 149.24,165.62 150.96,166.76 152.68,167.90 154.40,169.04 156.12,170.18 157.84,171.32 159.56,172.46 161.29,173.60 163.01,174.74 164.73,175.88 166.45,177.02 168.17,178.16 169.89,179.30 171.61,180.44 173.34,181.58 175.06,182.72 176.78,183.86 178.50,185.00 180.22,186.14 181.94,187.28 183.66,188.42 185.39,189.56 187.11,190.70 188.83,191.84 190.55,192.98 192.27,194.12 193.99,195.26 195.71,196.40 197.44,197.54 199.16,198.68 200.88,199.82 202.60,200.96 204.32,202.10 206.04,203.24 207.76,204.38 209.49,205.52 211.21,206.66 212.93,207.80 214.65,208.94 216.37,210.08 218.09,211.22 219.81,212.36 221.54,213.50 223.26,214.64 224.98,215.78 226.70,216.92 228.42,218.06 230.14,219.20 231.86,220.34 233.59,221.48 235.31,222.62 237.03,223.76 238.75,224.90 240.47,226.04 242.19,227.18 243.91,228.32 245.64,229.46 247.36,230.60 249.08,231.74 250.80,232.88 252.52,234.02 254.24,235.16 255.96,236.30 257.69,237.44 259.41,238.58 261.13,239.72 262.85,240.86 264.57,242.00 266.29,243.14 268.01,244.28 269.74,245.42 271.46,246.56 273.18,247.70 274.90,248.84 276.62,249.98 278.34,251.12 280.06,252.26 281.79,253.40 283.51,254.54 285.23,255.68 286.95,256.82 288.67,257.96 290.39,259.10 292.11,260.24 293.84,261.38 295.56,262.52 297.28,263.66 299.00,264.80 300.72,263.66 302.44,262.52 304.16,261.38 305.89,260.24 307.61,259.10 309.33,257.96 311.05,256.82 312.77,255.68 314.49,254.54 316.21,253.40 317.94,252.26 319.66,251.12 321.38,249.98 323.10,248.84 324.82,247.70 326.54,246.56 328.26,245.42 329.99,244.28 331.71,243.14 333.43,242.00 335.15,240.86 336.87,239.72 338.59,238.58 340.31,237.44 342.04,236.30 343.76,235.16 345.48,234.02 347.20,232.88 348.92,231.74 350.64,230.60 352.36,229.46 354.09,228.32 355.81,227.18 357.53,226.04 359.25,224.90 360.97,223.76 362.69,222.62 364.41,221.48 366.14,220.34 367.86,219.20 369.58,218.06 371.30,216.92 373.02,215.78 374.74,214.64 376.46,213.50 378.19,212.36 379.91,211.22 381.63,210.08 383.35,208.94 385.07,207.80 386.79,206.66 388.51,205.52 390.24,204.38 391.96,203.24 393.68,202.10 395.40,200.96 397.12,199.82 398.84,198.68 400.56,197.54 402.29,196.40 404.01,195.26 405.73,194.12 407.45,192.98 409.17,191.84 410.89,190.70 412.61,189.56 414.34,188.42 416.06,187.28 417.78,186.14 419.50,185.00 421.22,183.86 422.94,182.72 424.66,181.58 426.39,180.44 428.11,179.30 429.83,178.16 431.55,177.02 433.27,175.88 434.99,174.74 436.71,173.60 438.44,172.46 440.16,171.32 441.88,170.18 443.60,169.04 445.32,167.90 447.04,166.76 448.76,165.62 450.49,164.48 452.21,163.34 453.93,162.20 455.65,161.06 457.37,159.92 459.09,158.78 460.81,157.64 462.54,156.50 464.26,155.36 465.98,154.22 467.70,153.08 469.42,151.94 471.14,150.80 472.86,149.66 474.59,148.52 476.31,147.38 478.03,146.24 479.75,145.10 481.47,143.96 483.19,142.82 484.91,141.68 486.64,140.54 488.36,139.40 490.08,138.26 491.80,137.12 493.52,135.98 495.24,134.84 496.96,133.70 498.69,132.56 500.41,131.42 502.13,130.28 503.85,129.14 505.57,128.00 507.29,126.86 509.01,125.72 510.74,124.58 512.46,123.44 514.18,122.30 515.90,121.16 517.62,120.02 519.34,118.88 521.06,117.74 522.79,116.60 524.51,115.46 526.23,114.32 527.95,113.18 529.67,112.04 531.39,110.90 533.11,109.76 534.84,108.62 536.56,107.48 538.28,106.34 540.00,105.20" fill="none" stroke="#0f766e" stroke-width="3" />
      <circle cx="299.00" cy="264.80" r="4.5" fill="#dc2626" stroke="#ffffff" stroke-width="2"/><text x="307.00" y="256.80" font-family="Arial, sans-serif" font-size="12" fill="#dc2626">(0, -2)</text>
      
      
    </g>
  </g><g transform="translate(20, 400)">
    <g>
      <rect width="560" height="360" rx="18" fill="#ffffff" stroke="#cbd5e1" stroke-width="2"/>
      <text x="280" y="26" text-anchor="middle" font-family="Arial, sans-serif" font-size="19" font-weight="700" fill="#0f172a">f(x) = -|0.5x + 5| + 4</text>
      
      
      <line x1="58.00" y1="52" x2="58.00" y2="318" stroke="#e2e8f0" stroke-width="1"/><text x="58.00" y="346" text-anchor="middle" font-family="Arial, sans-serif" font-size="11" fill="#475569">-14</text><line x1="111.56" y1="52" x2="111.56" y2="318" stroke="#e2e8f0" stroke-width="1"/><text x="111.56" y="346" text-anchor="middle" font-family="Arial, sans-serif" font-size="11" fill="#475569">-12</text><line x1="165.11" y1="52" x2="165.11" y2="318" stroke="#e2e8f0" stroke-width="1"/><text x="165.11" y="346" text-anchor="middle" font-family="Arial, sans-serif" font-size="11" fill="#475569">-10</text><line x1="218.67" y1="52" x2="218.67" y2="318" stroke="#e2e8f0" stroke-width="1"/><text x="218.67" y="346" text-anchor="middle" font-family="Arial, sans-serif" font-size="11" fill="#475569">-8</text><line x1="272.22" y1="52" x2="272.22" y2="318" stroke="#e2e8f0" stroke-width="1"/><text x="272.22" y="346" text-anchor="middle" font-family="Arial, sans-serif" font-size="11" fill="#475569">-6</text><line x1="325.78" y1="52" x2="325.78" y2="318" stroke="#e2e8f0" stroke-width="1"/><text x="325.78" y="346" text-anchor="middle" font-family="Arial, sans-serif" font-size="11" fill="#475569">-4</text><line x1="379.33" y1="52" x2="379.33" y2="318" stroke="#e2e8f0" stroke-width="1"/><text x="379.33" y="346" text-anchor="middle" font-family="Arial, sans-serif" font-size="11" fill="#475569">-2</text><line x1="432.89" y1="52" x2="432.89" y2="318" stroke="#e2e8f0" stroke-width="1"/><line x1="486.44" y1="52" x2="486.44" y2="318" stroke="#e2e8f0" stroke-width="1"/><text x="486.44" y="346" text-anchor="middle" font-family="Arial, sans-serif" font-size="11" fill="#475569">2</text><line x1="540.00" y1="52" x2="540.00" y2="318" stroke="#e2e8f0" stroke-width="1"/><text x="540.00" y="346" text-anchor="middle" font-family="Arial, sans-serif" font-size="11" fill="#475569">4</text><line x1="58" y1="318.00" x2="540" y2="318.00" stroke="#e2e8f0" stroke-width="1"/><text x="48" y="322.00" text-anchor="end" font-family="Arial, sans-serif" font-size="11" fill="#475569">-8</text><line x1="58" y1="280.00" x2="540" y2="280.00" stroke="#e2e8f0" stroke-width="1"/><text x="48" y="284.00" text-anchor="end" font-family="Arial, sans-serif" font-size="11" fill="#475569">-6</text><line x1="58" y1="242.00" x2="540" y2="242.00" stroke="#e2e8f0" stroke-width="1"/><text x="48" y="246.00" text-anchor="end" font-family="Arial, sans-serif" font-size="11" fill="#475569">-4</text><line x1="58" y1="204.00" x2="540" y2="204.00" stroke="#e2e8f0" stroke-width="1"/><text x="48" y="208.00" text-anchor="end" font-family="Arial, sans-serif" font-size="11" fill="#475569">-2</text><line x1="58" y1="166.00" x2="540" y2="166.00" stroke="#e2e8f0" stroke-width="1"/><line x1="58" y1="128.00" x2="540" y2="128.00" stroke="#e2e8f0" stroke-width="1"/><text x="48" y="132.00" text-anchor="end" font-family="Arial, sans-serif" font-size="11" fill="#475569">2</text><line x1="58" y1="90.00" x2="540" y2="90.00" stroke="#e2e8f0" stroke-width="1"/><text x="48" y="94.00" text-anchor="end" font-family="Arial, sans-serif" font-size="11" fill="#475569">4</text><line x1="58" y1="52.00" x2="540" y2="52.00" stroke="#e2e8f0" stroke-width="1"/><text x="48" y="56.00" text-anchor="end" font-family="Arial, sans-serif" font-size="11" fill="#475569">6</text>
      <line x1="432.89" y1="52" x2="432.89" y2="318" stroke="#0f172a" stroke-width="1.8"/><line x1="58" y1="166.00" x2="540" y2="166.00" stroke="#0f172a" stroke-width="1.8"/>
      <polyline points="58.00,128.00 59.72,127.39 61.44,126.78 63.16,126.17 64.89,125.56 66.61,124.95 68.33,124.34 70.05,123.73 71.77,123.11 73.49,122.50 75.21,121.89 76.94,121.28 78.66,120.67 80.38,120.06 82.10,119.45 83.82,118.84 85.54,118.23 87.26,117.62 88.99,117.01 90.71,116.40 92.43,115.79 94.15,115.17 95.87,114.56 97.59,113.95 99.31,113.34 101.04,112.73 102.76,112.12 104.48,111.51 106.20,110.90 107.92,110.29 109.64,109.68 111.36,109.07 113.09,108.46 114.81,107.85 116.53,107.24 118.25,106.63 119.97,106.01 121.69,105.40 123.41,104.79 125.14,104.18 126.86,103.57 128.58,102.96 130.30,102.35 132.02,101.74 133.74,101.13 135.46,100.52 137.19,99.91 138.91,99.30 140.63,98.69 142.35,98.08 144.07,97.46 145.79,96.85 147.51,96.24 149.24,95.63 150.96,95.02 152.68,94.41 154.40,93.80 156.12,93.19 157.84,92.58 159.56,91.97 161.29,91.36 163.01,90.75 164.73,90.14 166.45,90.48 168.17,91.09 169.89,91.70 171.61,92.31 173.34,92.92 175.06,93.53 176.78,94.14 178.50,94.75 180.22,95.36 181.94,95.97 183.66,96.58 185.39,97.19 187.11,97.80 188.83,98.41 190.55,99.02 192.27,99.64 193.99,100.25 195.71,100.86 197.44,101.47 199.16,102.08 200.88,102.69 202.60,103.30 204.32,103.91 206.04,104.52 207.76,105.13 209.49,105.74 211.21,106.35 212.93,106.96 214.65,107.58 216.37,108.19 218.09,108.80 219.81,109.41 221.54,110.02 223.26,110.63 224.98,111.24 226.70,111.85 228.42,112.46 230.14,113.07 231.86,113.68 233.59,114.29 235.31,114.90 237.03,115.51 238.75,116.13 240.47,116.74 242.19,117.35 243.91,117.96 245.64,118.57 247.36,119.18 249.08,119.79 250.80,120.40 252.52,121.01 254.24,121.62 255.96,122.23 257.69,122.84 259.41,123.45 261.13,124.06 262.85,124.67 264.57,125.29 266.29,125.90 268.01,126.51 269.74,127.12 271.46,127.73 273.18,128.34 274.90,128.95 276.62,129.56 278.34,130.17 280.06,130.78 281.79,131.39 283.51,132.00 285.23,132.61 286.95,133.22 288.67,133.84 290.39,134.45 292.11,135.06 293.84,135.67 295.56,136.28 297.28,136.89 299.00,137.50 300.72,138.11 302.44,138.72 304.16,139.33 305.89,139.94 307.61,140.55 309.33,141.16 311.05,141.78 312.77,142.39 314.49,143.00 316.21,143.61 317.94,144.22 319.66,144.83 321.38,145.44 323.10,146.05 324.82,146.66 326.54,147.27 328.26,147.88 329.99,148.49 331.71,149.10 333.43,149.71 335.15,150.33 336.87,150.94 338.59,151.55 340.31,152.16 342.04,152.77 343.76,153.38 345.48,153.99 347.20,154.60 348.92,155.21 350.64,155.82 352.36,156.43 354.09,157.04 355.81,157.65 357.53,158.26 359.25,158.88 360.97,159.49 362.69,160.10 364.41,160.71 366.14,161.32 367.86,161.93 369.58,162.54 371.30,163.15 373.02,163.76 374.74,164.37 376.46,164.98 378.19,165.59 379.91,166.20 381.63,166.81 383.35,167.43 385.07,168.04 386.79,168.65 388.51,169.26 390.24,169.87 391.96,170.48 393.68,171.09 395.40,171.70 397.12,172.31 398.84,172.92 400.56,173.53 402.29,174.14 404.01,174.75 405.73,175.36 407.45,175.97 409.17,176.59 410.89,177.20 412.61,177.81 414.34,178.42 416.06,179.03 417.78,179.64 419.50,180.25 421.22,180.86 422.94,181.47 424.66,182.08 426.39,182.69 428.11,183.30 429.83,183.91 431.55,184.53 433.27,185.14 434.99,185.75 436.71,186.36 438.44,186.97 440.16,187.58 441.88,188.19 443.60,188.80 445.32,189.41 447.04,190.02 448.76,190.63 450.49,191.24 452.21,191.85 453.93,192.46 455.65,193.07 457.37,193.69 459.09,194.30 460.81,194.91 462.54,195.52 464.26,196.13 465.98,196.74 467.70,197.35 469.42,197.96 471.14,198.57 472.86,199.18 474.59,199.79 476.31,200.40 478.03,201.01 479.75,201.63 481.47,202.24 483.19,202.85 484.91,203.46 486.64,204.07 488.36,204.68 490.08,205.29 491.80,205.90 493.52,206.51 495.24,207.12 496.96,207.73 498.69,208.34 500.41,208.95 502.13,209.56 503.85,210.18 505.57,210.79 507.29,211.40 509.01,212.01 510.74,212.62 512.46,213.23 514.18,213.84 515.90,214.45 517.62,215.06 519.34,215.67 521.06,216.28 522.79,216.89 524.51,217.50 526.23,218.11 527.95,218.73 529.67,219.34 531.39,219.95 533.11,220.56 534.84,221.17 536.56,221.78 538.28,222.39 540.00,223.00" fill="none" stroke="#7c3aed" stroke-width="3" />
      <circle cx="165.11" cy="90.00" r="4.5" fill="#dc2626" stroke="#ffffff" stroke-width="2"/><text x="173.11" y="82.00" font-family="Arial, sans-serif" font-size="12" fill="#dc2626">(-10, 4)</text>
      
      
    </g>
  </g><g transform="translate(620, 400)">
    <g>
      <rect width="560" height="360" rx="18" fill="#ffffff" stroke="#cbd5e1" stroke-width="2"/>
      <text x="280" y="26" text-anchor="middle" font-family="Arial, sans-serif" font-size="19" font-weight="700" fill="#0f172a">f(x) = |0.25x| + 3</text>
      
      
      <line x1="58.00" y1="52" x2="58.00" y2="318" stroke="#e2e8f0" stroke-width="1"/><text x="58.00" y="346" text-anchor="middle" font-family="Arial, sans-serif" font-size="11" fill="#475569">-12</text><line x1="138.33" y1="52" x2="138.33" y2="318" stroke="#e2e8f0" stroke-width="1"/><text x="138.33" y="346" text-anchor="middle" font-family="Arial, sans-serif" font-size="11" fill="#475569">-8</text><line x1="218.67" y1="52" x2="218.67" y2="318" stroke="#e2e8f0" stroke-width="1"/><text x="218.67" y="346" text-anchor="middle" font-family="Arial, sans-serif" font-size="11" fill="#475569">-4</text><line x1="299.00" y1="52" x2="299.00" y2="318" stroke="#e2e8f0" stroke-width="1"/><line x1="379.33" y1="52" x2="379.33" y2="318" stroke="#e2e8f0" stroke-width="1"/><text x="379.33" y="346" text-anchor="middle" font-family="Arial, sans-serif" font-size="11" fill="#475569">4</text><line x1="459.67" y1="52" x2="459.67" y2="318" stroke="#e2e8f0" stroke-width="1"/><text x="459.67" y="346" text-anchor="middle" font-family="Arial, sans-serif" font-size="11" fill="#475569">8</text><line x1="540.00" y1="52" x2="540.00" y2="318" stroke="#e2e8f0" stroke-width="1"/><text x="540.00" y="346" text-anchor="middle" font-family="Arial, sans-serif" font-size="11" fill="#475569">12</text><line x1="58" y1="318.00" x2="540" y2="318.00" stroke="#e2e8f0" stroke-width="1"/><line x1="58" y1="284.75" x2="540" y2="284.75" stroke="#e2e8f0" stroke-width="1"/><text x="48" y="288.75" text-anchor="end" font-family="Arial, sans-serif" font-size="11" fill="#475569">1</text><line x1="58" y1="251.50" x2="540" y2="251.50" stroke="#e2e8f0" stroke-width="1"/><text x="48" y="255.50" text-anchor="end" font-family="Arial, sans-serif" font-size="11" fill="#475569">2</text><line x1="58" y1="218.25" x2="540" y2="218.25" stroke="#e2e8f0" stroke-width="1"/><text x="48" y="222.25" text-anchor="end" font-family="Arial, sans-serif" font-size="11" fill="#475569">3</text><line x1="58" y1="185.00" x2="540" y2="185.00" stroke="#e2e8f0" stroke-width="1"/><text x="48" y="189.00" text-anchor="end" font-family="Arial, sans-serif" font-size="11" fill="#475569">4</text><line x1="58" y1="151.75" x2="540" y2="151.75" stroke="#e2e8f0" stroke-width="1"/><text x="48" y="155.75" text-anchor="end" font-family="Arial, sans-serif" font-size="11" fill="#475569">5</text><line x1="58" y1="118.50" x2="540" y2="118.50" stroke="#e2e8f0" stroke-width="1"/><text x="48" y="122.50" text-anchor="end" font-family="Arial, sans-serif" font-size="11" fill="#475569">6</text><line x1="58" y1="85.25" x2="540" y2="85.25" stroke="#e2e8f0" stroke-width="1"/><text x="48" y="89.25" text-anchor="end" font-family="Arial, sans-serif" font-size="11" fill="#475569">7</text><line x1="58" y1="52.00" x2="540" y2="52.00" stroke="#e2e8f0" stroke-width="1"/><text x="48" y="56.00" text-anchor="end" font-family="Arial, sans-serif" font-size="11" fill="#475569">8</text>
      <line x1="299.00" y1="52" x2="299.00" y2="318" stroke="#0f172a" stroke-width="1.8"/><line x1="58" y1="318.00" x2="540" y2="318.00" stroke="#0f172a" stroke-width="1.8"/>
      <polyline points="58.00,118.50 59.72,119.21 61.44,119.92 63.16,120.64 64.89,121.35 66.61,122.06 68.33,122.77 70.05,123.49 71.77,124.20 73.49,124.91 75.21,125.63 76.94,126.34 78.66,127.05 80.38,127.76 82.10,128.47 83.82,129.19 85.54,129.90 87.26,130.61 88.99,131.33 90.71,132.04 92.43,132.75 94.15,133.46 95.87,134.18 97.59,134.89 99.31,135.60 101.04,136.31 102.76,137.03 104.48,137.74 106.20,138.45 107.92,139.16 109.64,139.87 111.36,140.59 113.09,141.30 114.81,142.01 116.53,142.72 118.25,143.44 119.97,144.15 121.69,144.86 123.41,145.57 125.14,146.29 126.86,147.00 128.58,147.71 130.30,148.43 132.02,149.14 133.74,149.85 135.46,150.56 137.19,151.28 138.91,151.99 140.63,152.70 142.35,153.41 144.07,154.13 145.79,154.84 147.51,155.55 149.24,156.26 150.96,156.98 152.68,157.69 154.40,158.40 156.12,159.11 157.84,159.82 159.56,160.54 161.29,161.25 163.01,161.96 164.73,162.67 166.45,163.39 168.17,164.10 169.89,164.81 171.61,165.53 173.34,166.24 175.06,166.95 176.78,167.66 178.50,168.38 180.22,169.09 181.94,169.80 183.66,170.51 185.39,171.22 187.11,171.94 188.83,172.65 190.55,173.36 192.27,174.08 193.99,174.79 195.71,175.50 197.44,176.21 199.16,176.93 200.88,177.64 202.60,178.35 204.32,179.06 206.04,179.78 207.76,180.49 209.49,181.20 211.21,181.91 212.93,182.63 214.65,183.34 216.37,184.05 218.09,184.76 219.81,185.47 221.54,186.19 223.26,186.90 224.98,187.61 226.70,188.32 228.42,189.04 230.14,189.75 231.86,190.46 233.59,191.18 235.31,191.89 237.03,192.60 238.75,193.31 240.47,194.02 242.19,194.74 243.91,195.45 245.64,196.16 247.36,196.88 249.08,197.59 250.80,198.30 252.52,199.01 254.24,199.73 255.96,200.44 257.69,201.15 259.41,201.86 261.13,202.57 262.85,203.29 264.57,204.00 266.29,204.71 268.01,205.43 269.74,206.14 271.46,206.85 273.18,207.56 274.90,208.28 276.62,208.99 278.34,209.70 280.06,210.41 281.79,211.13 283.51,211.84 285.23,212.55 286.95,213.26 288.67,213.97 290.39,214.69 292.11,215.40 293.84,216.11 295.56,216.82 297.28,217.54 299.00,218.25 300.72,217.54 302.44,216.82 304.16,216.11 305.89,215.40 307.61,214.69 309.33,213.97 311.05,213.26 312.77,212.55 314.49,211.84 316.21,211.13 317.94,210.41 319.66,209.70 321.38,208.99 323.10,208.27 324.82,207.56 326.54,206.85 328.26,206.14 329.99,205.43 331.71,204.71 333.43,204.00 335.15,203.29 336.87,202.57 338.59,201.86 340.31,201.15 342.04,200.44 343.76,199.73 345.48,199.01 347.20,198.30 348.92,197.59 350.64,196.88 352.36,196.16 354.09,195.45 355.81,194.74 357.53,194.02 359.25,193.31 360.97,192.60 362.69,191.89 364.41,191.18 366.14,190.46 367.86,189.75 369.58,189.04 371.30,188.32 373.02,187.61 374.74,186.90 376.46,186.19 378.19,185.47 379.91,184.76 381.63,184.05 383.35,183.34 385.07,182.63 386.79,181.91 388.51,181.20 390.24,180.49 391.96,179.78 393.68,179.06 395.40,178.35 397.12,177.64 398.84,176.93 400.56,176.21 402.29,175.50 404.01,174.79 405.73,174.08 407.45,173.36 409.17,172.65 410.89,171.94 412.61,171.22 414.34,170.51 416.06,169.80 417.78,169.09 419.50,168.38 421.22,167.66 422.94,166.95 424.66,166.24 426.39,165.53 428.11,164.81 429.83,164.10 431.55,163.39 433.27,162.67 434.99,161.96 436.71,161.25 438.44,160.54 440.16,159.82 441.88,159.11 443.60,158.40 445.32,157.69 447.04,156.97 448.76,156.26 450.49,155.55 452.21,154.84 453.93,154.13 455.65,153.41 457.37,152.70 459.09,151.99 460.81,151.28 462.54,150.56 464.26,149.85 465.98,149.14 467.70,148.43 469.42,147.71 471.14,147.00 472.86,146.29 474.59,145.57 476.31,144.86 478.03,144.15 479.75,143.44 481.47,142.72 483.19,142.01 484.91,141.30 486.64,140.59 488.36,139.87 490.08,139.16 491.80,138.45 493.52,137.74 495.24,137.03 496.96,136.31 498.69,135.60 500.41,134.89 502.13,134.18 503.85,133.46 505.57,132.75 507.29,132.04 509.01,131.33 510.74,130.61 512.46,129.90 514.18,129.19 515.90,128.48 517.62,127.76 519.34,127.05 521.06,126.34 522.79,125.63 524.51,124.91 526.23,124.20 527.95,123.49 529.67,122.78 531.39,122.06 533.11,121.35 534.84,120.64 536.56,119.92 538.28,119.21 540.00,118.50" fill="none" stroke="#ea580c" stroke-width="3" />
      <circle cx="299.00" cy="218.25" r="4.5" fill="#dc2626" stroke="#ffffff" stroke-width="2"/><text x="307.00" y="210.25" font-family="Arial, sans-serif" font-size="12" fill="#dc2626">(0, 3)</text>
      
      
    </g>
  </g>
</svg>
