<?xml version="1.0" encoding="UTF-8"?>
<svg xmlns="http://www.w3.org/2000/svg" width="1180" height="560" viewBox="0 0 1180 560" fill="none">
<rect width="1180" height="560" fill="#f8fafc"/>
<g transform="translate(15, 15)">
    <g>
      <rect width="370" height="250" rx="18" fill="#ffffff" stroke="#cbd5e1" stroke-width="2"/>
      <text x="185" y="26" text-anchor="middle" font-family="Arial, sans-serif" font-size="19" font-weight="700" fill="#0f172a">g(x) = 3^x</text>
      
      
      <line x1="58.00" y1="52" x2="58.00" y2="208" stroke="#e2e8f0" stroke-width="1"/><text x="58.00" y="236" text-anchor="middle" font-family="Arial, sans-serif" font-size="11" fill="#475569">-3</text><line x1="106.67" y1="52" x2="106.67" y2="208" stroke="#e2e8f0" stroke-width="1"/><text x="106.67" y="236" text-anchor="middle" font-family="Arial, sans-serif" font-size="11" fill="#475569">-2</text><line x1="155.33" y1="52" x2="155.33" y2="208" stroke="#e2e8f0" stroke-width="1"/><text x="155.33" y="236" text-anchor="middle" font-family="Arial, sans-serif" font-size="11" fill="#475569">-1</text><line x1="204.00" y1="52" x2="204.00" y2="208" stroke="#e2e8f0" stroke-width="1"/><line x1="252.67" y1="52" x2="252.67" y2="208" stroke="#e2e8f0" stroke-width="1"/><text x="252.67" y="236" text-anchor="middle" font-family="Arial, sans-serif" font-size="11" fill="#475569">1</text><line x1="301.33" y1="52" x2="301.33" y2="208" stroke="#e2e8f0" stroke-width="1"/><text x="301.33" y="236" text-anchor="middle" font-family="Arial, sans-serif" font-size="11" fill="#475569">2</text><line x1="350.00" y1="52" x2="350.00" y2="208" stroke="#e2e8f0" stroke-width="1"/><text x="350.00" y="236" text-anchor="middle" font-family="Arial, sans-serif" font-size="11" fill="#475569">3</text><line x1="58" y1="208.00" x2="350" y2="208.00" stroke="#e2e8f0" stroke-width="1"/><line x1="58" y1="182.00" x2="350" y2="182.00" stroke="#e2e8f0" stroke-width="1"/><text x="48" y="186.00" text-anchor="end" font-family="Arial, sans-serif" font-size="11" fill="#475569">5</text><line x1="58" y1="156.00" x2="350" y2="156.00" stroke="#e2e8f0" stroke-width="1"/><text x="48" y="160.00" text-anchor="end" font-family="Arial, sans-serif" font-size="11" fill="#475569">10</text><line x1="58" y1="130.00" x2="350" y2="130.00" stroke="#e2e8f0" stroke-width="1"/><text x="48" y="134.00" text-anchor="end" font-family="Arial, sans-serif" font-size="11" fill="#475569">15</text><line x1="58" y1="104.00" x2="350" y2="104.00" stroke="#e2e8f0" stroke-width="1"/><text x="48" y="108.00" text-anchor="end" font-family="Arial, sans-serif" font-size="11" fill="#475569">20</text><line x1="58" y1="78.00" x2="350" y2="78.00" stroke="#e2e8f0" stroke-width="1"/><text x="48" y="82.00" text-anchor="end" font-family="Arial, sans-serif" font-size="11" fill="#475569">25</text><line x1="58" y1="52.00" x2="350" y2="52.00" stroke="#e2e8f0" stroke-width="1"/><text x="48" y="56.00" text-anchor="end" font-family="Arial, sans-serif" font-size="11" fill="#475569">30</text>
      <line x1="204.00" y1="52" x2="204.00" y2="208" stroke="#0f172a" stroke-width="1.8"/><line x1="58" y1="208.00" x2="350" y2="208.00" stroke="#0f172a" stroke-width="1.8"/>
      <polyline points="58.00,207.81 59.04,207.80 60.09,207.80 61.13,207.79 62.17,207.79 63.21,207.78 64.26,207.78 65.30,207.77 66.34,207.77 67.39,207.76 68.43,207.76 69.47,207.75 70.51,207.74 71.56,207.74 72.60,207.73 73.64,207.73 74.69,207.72 75.73,207.71 76.77,207.71 77.81,207.70 78.86,207.69 79.90,207.68 80.94,207.68 81.99,207.67 83.03,207.66 84.07,207.65 85.11,207.64 86.16,207.64 87.20,207.63 88.24,207.62 89.29,207.61 90.33,207.60 91.37,207.59 92.41,207.58 93.46,207.57 94.50,207.56 95.54,207.55 96.59,207.54 97.63,207.53 98.67,207.52 99.71,207.51 100.76,207.49 101.80,207.48 102.84,207.47 103.89,207.46 104.93,207.44 105.97,207.43 107.01,207.42 108.06,207.40 109.10,207.39 110.14,207.38 111.19,207.36 112.23,207.34 113.27,207.33 114.31,207.31 115.36,207.30 116.40,207.28 117.44,207.26 118.49,207.25 119.53,207.23 120.57,207.21 121.61,207.19 122.66,207.17 123.70,207.15 124.74,207.13 125.79,207.11 126.83,207.09 127.87,207.07 128.91,207.05 129.96,207.02 131.00,207.00 132.04,206.98 133.09,206.95 134.13,206.93 135.17,206.90 136.21,206.87 137.26,206.85 138.30,206.82 139.34,206.79 140.39,206.76 141.43,206.73 142.47,206.70 143.51,206.67 144.56,206.64 145.60,206.61 146.64,206.58 147.69,206.54 148.73,206.51 149.77,206.47 150.81,206.43 151.86,206.40 152.90,206.36 153.94,206.32 154.99,206.28 156.03,206.24 157.07,206.20 158.11,206.15 159.16,206.11 160.20,206.07 161.24,206.02 162.29,205.97 163.33,205.92 164.37,205.87 165.41,205.82 166.46,205.77 167.50,205.72 168.54,205.66 169.59,205.61 170.63,205.55 171.67,205.49 172.71,205.43 173.76,205.37 174.80,205.31 175.84,205.25 176.89,205.18 177.93,205.11 178.97,205.04 180.01,204.97 181.06,204.90 182.10,204.83 183.14,204.75 184.19,204.68 185.23,204.60 186.27,204.52 187.31,204.43 188.36,204.35 189.40,204.26 190.44,204.17 191.49,204.08 192.53,203.99 193.57,203.89 194.61,203.79 195.66,203.69 196.70,203.59 197.74,203.48 198.79,203.38 199.83,203.27 200.87,203.15 201.91,203.04 202.96,202.92 204.00,202.80 205.04,202.68 206.09,202.55 207.13,202.42 208.17,202.29 209.21,202.15 210.26,202.01 211.30,201.87 212.34,201.72 213.39,201.57 214.43,201.42 215.47,201.26 216.51,201.10 217.56,200.94 218.60,200.77 219.64,200.60 220.69,200.42 221.73,200.24 222.77,200.06 223.81,199.87 224.86,199.67 225.90,199.47 226.94,199.27 227.99,199.06 229.03,198.85 230.07,198.63 231.11,198.41 232.16,198.18 233.20,197.95 234.24,197.71 235.29,197.46 236.33,197.21 237.37,196.95 238.41,196.69 239.46,196.42 240.50,196.15 241.54,195.86 242.59,195.58 243.63,195.28 244.67,194.98 245.71,194.67 246.76,194.35 247.80,194.02 248.84,193.69 249.89,193.35 250.93,193.00 251.97,192.64 253.01,192.28 254.06,191.90 255.10,191.52 256.14,191.13 257.19,190.72 258.23,190.31 259.27,189.89 260.31,189.46 261.36,189.02 262.40,188.57 263.44,188.10 264.49,187.63 265.53,187.14 266.57,186.65 267.61,186.14 268.66,185.62 269.70,185.09 270.74,184.54 271.79,183.98 272.83,183.41 273.87,182.82 274.91,182.22 275.96,181.61 277.00,180.98 278.04,180.34 279.09,179.68 280.13,179.00 281.17,178.31 282.21,177.60 283.26,176.88 284.30,176.14 285.34,175.38 286.39,174.60 287.43,173.81 288.47,172.99 289.51,172.16 290.56,171.31 291.60,170.43 292.64,169.54 293.69,168.62 294.73,167.68 295.77,166.72 296.81,165.74 297.86,164.73 298.90,163.70 299.94,162.65 300.99,161.57 302.03,160.46 303.07,159.33 304.11,158.17 305.16,156.98 306.20,155.77 307.24,154.52 308.29,153.25 309.33,151.94 310.37,150.61 311.41,149.24 312.46,147.84 313.50,146.41 314.54,144.94 315.59,143.44 316.63,141.90 317.67,140.33 318.71,138.71 319.76,137.06 320.80,135.37 321.84,133.64 322.89,131.87 323.93,130.06 324.97,128.20 326.01,126.30 327.06,124.36 328.10,122.36 329.14,120.32 330.19,118.23 331.23,116.10 332.27,113.91 333.31,111.67 334.36,109.37 335.40,107.02 336.44,104.62 337.49,102.15 338.53,99.63 339.57,97.05 340.61,94.41 341.66,91.70 342.70,88.93 343.74,86.09 344.79,83.19 345.83,80.22 346.87,77.17 347.91,74.06 348.96,70.87 350.00,67.60" fill="none" stroke="#2563eb" stroke-width="3" />
      
      
      
    </g>
  </g><g transform="translate(405, 15)">
    <g>
      <rect width="370" height="250" rx="18" fill="#ffffff" stroke="#cbd5e1" stroke-width="2"/>
      <text x="185" y="26" text-anchor="middle" font-family="Arial, sans-serif" font-size="19" font-weight="700" fill="#0f172a">g(x) = 2 · 6^x</text>
      
      
      <line x1="58.00" y1="52" x2="58.00" y2="208" stroke="#e2e8f0" stroke-width="1"/><text x="58.00" y="236" text-anchor="middle" font-family="Arial, sans-serif" font-size="11" fill="#475569">-2</text><line x1="131.00" y1="52" x2="131.00" y2="208" stroke="#e2e8f0" stroke-width="1"/><text x="131.00" y="236" text-anchor="middle" font-family="Arial, sans-serif" font-size="11" fill="#475569">-1</text><line x1="204.00" y1="52" x2="204.00" y2="208" stroke="#e2e8f0" stroke-width="1"/><line x1="277.00" y1="52" x2="277.00" y2="208" stroke="#e2e8f0" stroke-width="1"/><text x="277.00" y="236" text-anchor="middle" font-family="Arial, sans-serif" font-size="11" fill="#475569">1</text><line x1="350.00" y1="52" x2="350.00" y2="208" stroke="#e2e8f0" stroke-width="1"/><text x="350.00" y="236" text-anchor="middle" font-family="Arial, sans-serif" font-size="11" fill="#475569">2</text><line x1="58" y1="208.00" x2="350" y2="208.00" stroke="#e2e8f0" stroke-width="1"/><line x1="58" y1="169.00" x2="350" y2="169.00" stroke="#e2e8f0" stroke-width="1"/><text x="48" y="173.00" text-anchor="end" font-family="Arial, sans-serif" font-size="11" fill="#475569">20</text><line x1="58" y1="130.00" x2="350" y2="130.00" stroke="#e2e8f0" stroke-width="1"/><text x="48" y="134.00" text-anchor="end" font-family="Arial, sans-serif" font-size="11" fill="#475569">40</text><line x1="58" y1="91.00" x2="350" y2="91.00" stroke="#e2e8f0" stroke-width="1"/><text x="48" y="95.00" text-anchor="end" font-family="Arial, sans-serif" font-size="11" fill="#475569">60</text><line x1="58" y1="52.00" x2="350" y2="52.00" stroke="#e2e8f0" stroke-width="1"/><text x="48" y="56.00" text-anchor="end" font-family="Arial, sans-serif" font-size="11" fill="#475569">80</text>
      <line x1="204.00" y1="52" x2="204.00" y2="208" stroke="#0f172a" stroke-width="1.8"/><line x1="58" y1="208.00" x2="350" y2="208.00" stroke="#0f172a" stroke-width="1.8"/>
      <polyline points="58.00,207.89 59.04,207.89 60.09,207.89 61.13,207.88 62.17,207.88 63.21,207.88 64.26,207.87 65.30,207.87 66.34,207.87 67.39,207.86 68.43,207.86 69.47,207.86 70.51,207.85 71.56,207.85 72.60,207.84 73.64,207.84 74.69,207.84 75.73,207.83 76.77,207.83 77.81,207.82 78.86,207.82 79.90,207.81 80.94,207.81 81.99,207.80 83.03,207.80 84.07,207.79 85.11,207.79 86.16,207.78 87.20,207.78 88.24,207.77 89.29,207.77 90.33,207.76 91.37,207.75 92.41,207.75 93.46,207.74 94.50,207.73 95.54,207.73 96.59,207.72 97.63,207.71 98.67,207.71 99.71,207.70 100.76,207.69 101.80,207.68 102.84,207.67 103.89,207.67 104.93,207.66 105.97,207.65 107.01,207.64 108.06,207.63 109.10,207.62 110.14,207.61 111.19,207.60 112.23,207.59 113.27,207.58 114.31,207.57 115.36,207.56 116.40,207.55 117.44,207.53 118.49,207.52 119.53,207.51 120.57,207.50 121.61,207.48 122.66,207.47 123.70,207.46 124.74,207.44 125.79,207.43 126.83,207.41 127.87,207.40 128.91,207.38 129.96,207.37 131.00,207.35 132.04,207.33 133.09,207.32 134.13,207.30 135.17,207.28 136.21,207.26 137.26,207.24 138.30,207.22 139.34,207.20 140.39,207.18 141.43,207.16 142.47,207.14 143.51,207.12 144.56,207.09 145.60,207.07 146.64,207.05 147.69,207.02 148.73,207.00 149.77,206.97 150.81,206.94 151.86,206.92 152.90,206.89 153.94,206.86 154.99,206.83 156.03,206.80 157.07,206.77 158.11,206.74 159.16,206.70 160.20,206.67 161.24,206.63 162.29,206.60 163.33,206.56 164.37,206.53 165.41,206.49 166.46,206.45 167.50,206.41 168.54,206.37 169.59,206.32 170.63,206.28 171.67,206.24 172.71,206.19 173.76,206.14 174.80,206.10 175.84,206.05 176.89,206.00 177.93,205.94 178.97,205.89 180.01,205.84 181.06,205.78 182.10,205.72 183.14,205.66 184.19,205.60 185.23,205.54 186.27,205.48 187.31,205.41 188.36,205.34 189.40,205.27 190.44,205.20 191.49,205.13 192.53,205.06 193.57,204.98 194.61,204.90 195.66,204.82 196.70,204.74 197.74,204.66 198.79,204.57 199.83,204.48 200.87,204.39 201.91,204.29 202.96,204.20 204.00,204.10 205.04,204.00 206.09,203.90 207.13,203.79 208.17,203.68 209.21,203.57 210.26,203.45 211.30,203.33 212.34,203.21 213.39,203.09 214.43,202.96 215.47,202.83 216.51,202.70 217.56,202.56 218.60,202.42 219.64,202.27 220.69,202.13 221.73,201.97 222.77,201.82 223.81,201.66 224.86,201.49 225.90,201.32 226.94,201.15 227.99,200.97 229.03,200.79 230.07,200.60 231.11,200.41 232.16,200.22 233.20,200.01 234.24,199.81 235.29,199.59 236.33,199.38 237.37,199.15 238.41,198.92 239.46,198.69 240.50,198.45 241.54,198.20 242.59,197.95 243.63,197.68 244.67,197.42 245.71,197.14 246.76,196.86 247.80,196.57 248.84,196.28 249.89,195.97 250.93,195.66 251.97,195.34 253.01,195.01 254.06,194.68 255.10,194.33 256.14,193.98 257.19,193.61 258.23,193.24 259.27,192.86 260.31,192.46 261.36,192.06 262.40,191.65 263.44,191.22 264.49,190.79 265.53,190.34 266.57,189.88 267.61,189.41 268.66,188.93 269.70,188.44 270.74,187.93 271.79,187.41 272.83,186.88 273.87,186.33 274.91,185.77 275.96,185.19 277.00,184.60 278.04,183.99 279.09,183.37 280.13,182.73 281.17,182.08 282.21,181.41 283.26,180.72 284.30,180.01 285.34,179.28 286.39,178.54 287.43,177.77 288.47,176.99 289.51,176.19 290.56,175.36 291.60,174.52 292.64,173.65 293.69,172.76 294.73,171.84 295.77,170.91 296.81,169.94 297.86,168.96 298.90,167.94 299.94,166.91 300.99,165.84 302.03,164.75 303.07,163.63 304.11,162.48 305.16,161.30 306.20,160.08 307.24,158.84 308.29,157.57 309.33,156.26 310.37,154.92 311.41,153.54 312.46,152.13 313.50,150.68 314.54,149.20 315.59,147.67 316.63,146.11 317.67,144.50 318.71,142.86 319.76,141.17 320.80,139.43 321.84,137.66 322.89,135.83 323.93,133.96 324.97,132.04 326.01,130.07 327.06,128.05 328.10,125.98 329.14,123.85 330.19,121.67 331.23,119.43 332.27,117.14 333.31,114.78 334.36,112.36 335.40,109.88 336.44,107.34 337.49,104.73 338.53,102.05 339.57,99.31 340.61,96.49 341.66,93.60 342.70,90.63 343.74,87.59 344.79,84.47 345.83,81.26 346.87,77.98 347.91,74.61 348.96,71.15 350.00,67.60" fill="none" stroke="#0f766e" stroke-width="3" />
      
      
      
    </g>
  </g><g transform="translate(795, 15)">
    <g>
      <rect width="370" height="250" rx="18" fill="#ffffff" stroke="#cbd5e1" stroke-width="2"/>
      <text x="185" y="26" text-anchor="middle" font-family="Arial, sans-serif" font-size="19" font-weight="700" fill="#0f172a">g(x) = -(5^x) - 2</text>
      
      
      <line x1="58.00" y1="52" x2="58.00" y2="208" stroke="#e2e8f0" stroke-width="1"/><text x="58.00" y="236" text-anchor="middle" font-family="Arial, sans-serif" font-size="11" fill="#475569">-2</text><line x1="131.00" y1="52" x2="131.00" y2="208" stroke="#e2e8f0" stroke-width="1"/><text x="131.00" y="236" text-anchor="middle" font-family="Arial, sans-serif" font-size="11" fill="#475569">-1</text><line x1="204.00" y1="52" x2="204.00" y2="208" stroke="#e2e8f0" stroke-width="1"/><line x1="277.00" y1="52" x2="277.00" y2="208" stroke="#e2e8f0" stroke-width="1"/><text x="277.00" y="236" text-anchor="middle" font-family="Arial, sans-serif" font-size="11" fill="#475569">1</text><line x1="350.00" y1="52" x2="350.00" y2="208" stroke="#e2e8f0" stroke-width="1"/><text x="350.00" y="236" text-anchor="middle" font-family="Arial, sans-serif" font-size="11" fill="#475569">2</text><line x1="58" y1="208.00" x2="350" y2="208.00" stroke="#e2e8f0" stroke-width="1"/><text x="48" y="212.00" text-anchor="end" font-family="Arial, sans-serif" font-size="11" fill="#475569">-30</text><line x1="58" y1="183.63" x2="350" y2="183.63" stroke="#e2e8f0" stroke-width="1"/><text x="48" y="187.63" text-anchor="end" font-family="Arial, sans-serif" font-size="11" fill="#475569">-25</text><line x1="58" y1="159.25" x2="350" y2="159.25" stroke="#e2e8f0" stroke-width="1"/><text x="48" y="163.25" text-anchor="end" font-family="Arial, sans-serif" font-size="11" fill="#475569">-20</text><line x1="58" y1="134.88" x2="350" y2="134.88" stroke="#e2e8f0" stroke-width="1"/><text x="48" y="138.88" text-anchor="end" font-family="Arial, sans-serif" font-size="11" fill="#475569">-15</text><line x1="58" y1="110.50" x2="350" y2="110.50" stroke="#e2e8f0" stroke-width="1"/><text x="48" y="114.50" text-anchor="end" font-family="Arial, sans-serif" font-size="11" fill="#475569">-10</text><line x1="58" y1="86.13" x2="350" y2="86.13" stroke="#e2e8f0" stroke-width="1"/><text x="48" y="90.13" text-anchor="end" font-family="Arial, sans-serif" font-size="11" fill="#475569">-5</text><line x1="58" y1="61.75" x2="350" y2="61.75" stroke="#e2e8f0" stroke-width="1"/>
      <line x1="204.00" y1="52" x2="204.00" y2="208" stroke="#0f172a" stroke-width="1.8"/><line x1="58" y1="61.75" x2="350" y2="61.75" stroke="#0f172a" stroke-width="1.8"/>
      <polyline points="58.00,71.69 59.04,71.70 60.09,71.70 61.13,71.71 62.17,71.71 63.21,71.72 64.26,71.72 65.30,71.73 66.34,71.73 67.39,71.74 68.43,71.75 69.47,71.75 70.51,71.76 71.56,71.76 72.60,71.77 73.64,71.78 74.69,71.78 75.73,71.79 76.77,71.79 77.81,71.80 78.86,71.81 79.90,71.82 80.94,71.82 81.99,71.83 83.03,71.84 84.07,71.85 85.11,71.85 86.16,71.86 87.20,71.87 88.24,71.88 89.29,71.89 90.33,71.90 91.37,71.91 92.41,71.92 93.46,71.93 94.50,71.94 95.54,71.95 96.59,71.96 97.63,71.97 98.67,71.98 99.71,71.99 100.76,72.00 101.80,72.01 102.84,72.02 103.89,72.04 104.93,72.05 105.97,72.06 107.01,72.07 108.06,72.09 109.10,72.10 110.14,72.12 111.19,72.13 112.23,72.14 113.27,72.16 114.31,72.17 115.36,72.19 116.40,72.21 117.44,72.22 118.49,72.24 119.53,72.26 120.57,72.27 121.61,72.29 122.66,72.31 123.70,72.33 124.74,72.35 125.79,72.37 126.83,72.39 127.87,72.41 128.91,72.43 129.96,72.45 131.00,72.47 132.04,72.50 133.09,72.52 134.13,72.54 135.17,72.57 136.21,72.59 137.26,72.62 138.30,72.65 139.34,72.67 140.39,72.70 141.43,72.73 142.47,72.76 143.51,72.78 144.56,72.81 145.60,72.85 146.64,72.88 147.69,72.91 148.73,72.94 149.77,72.97 150.81,73.01 151.86,73.04 152.90,73.08 153.94,73.12 154.99,73.15 156.03,73.19 157.07,73.23 158.11,73.27 159.16,73.31 160.20,73.36 161.24,73.40 162.29,73.44 163.33,73.49 164.37,73.53 165.41,73.58 166.46,73.63 167.50,73.68 168.54,73.73 169.59,73.78 170.63,73.84 171.67,73.89 172.71,73.95 173.76,74.00 174.80,74.06 175.84,74.12 176.89,74.18 177.93,74.24 178.97,74.31 180.01,74.37 181.06,74.44 182.10,74.51 183.14,74.58 184.19,74.65 185.23,74.72 186.27,74.80 187.31,74.87 188.36,74.95 189.40,75.03 190.44,75.12 191.49,75.20 192.53,75.29 193.57,75.37 194.61,75.46 195.66,75.56 196.70,75.65 197.74,75.75 198.79,75.85 199.83,75.95 200.87,76.05 201.91,76.16 202.96,76.26 204.00,76.38 205.04,76.49 206.09,76.60 207.13,76.72 208.17,76.84 209.21,76.97 210.26,77.10 211.30,77.23 212.34,77.36 213.39,77.50 214.43,77.64 215.47,77.78 216.51,77.92 217.56,78.07 218.60,78.23 219.64,78.38 220.69,78.54 221.73,78.71 222.77,78.87 223.81,79.05 224.86,79.22 225.90,79.40 226.94,79.58 227.99,79.77 229.03,79.96 230.07,80.16 231.11,80.36 232.16,80.57 233.20,80.78 234.24,81.00 235.29,81.22 236.33,81.44 237.37,81.67 238.41,81.91 239.46,82.15 240.50,82.40 241.54,82.65 242.59,82.91 243.63,83.18 244.67,83.45 245.71,83.73 246.76,84.01 247.80,84.30 248.84,84.60 249.89,84.91 250.93,85.22 251.97,85.54 253.01,85.86 254.06,86.20 255.10,86.54 256.14,86.89 257.19,87.25 258.23,87.61 259.27,87.99 260.31,88.37 261.36,88.76 262.40,89.17 263.44,89.58 264.49,90.00 265.53,90.43 266.57,90.87 267.61,91.32 268.66,91.78 269.70,92.25 270.74,92.73 271.79,93.23 272.83,93.73 273.87,94.25 274.91,94.78 275.96,95.32 277.00,95.88 278.04,96.44 279.09,97.02 280.13,97.62 281.17,98.22 282.21,98.84 283.26,99.48 284.30,100.13 285.34,100.80 286.39,101.48 287.43,102.18 288.47,102.89 289.51,103.62 290.56,104.37 291.60,105.13 292.64,105.91 293.69,106.71 294.73,107.53 295.77,108.37 296.81,109.23 297.86,110.11 298.90,111.00 299.94,111.92 300.99,112.86 302.03,113.82 303.07,114.81 304.11,115.82 305.16,116.85 306.20,117.90 307.24,118.98 308.29,120.09 309.33,121.22 310.37,122.37 311.41,123.55 312.46,124.77 313.50,126.00 314.54,127.27 315.59,128.57 316.63,129.90 317.67,131.25 318.71,132.64 319.76,134.07 320.80,135.52 321.84,137.01 322.89,138.53 323.93,140.09 324.97,141.69 326.01,143.32 327.06,144.99 328.10,146.70 329.14,148.45 330.19,150.24 331.23,152.07 332.27,153.95 333.31,155.86 334.36,157.82 335.40,159.83 336.44,161.89 337.49,163.99 338.53,166.14 339.57,168.34 340.61,170.59 341.66,172.90 342.70,175.26 343.74,177.67 344.79,180.14 345.83,182.67 346.87,185.25 347.91,187.90 348.96,190.60 350.00,193.38" fill="none" stroke="#7c3aed" stroke-width="3" />
      
      
      
    </g>
  </g><g transform="translate(15, 290)">
    <g>
      <rect width="370" height="250" rx="18" fill="#ffffff" stroke="#cbd5e1" stroke-width="2"/>
      <text x="185" y="26" text-anchor="middle" font-family="Arial, sans-serif" font-size="19" font-weight="700" fill="#0f172a">g(x) = 4^x + 3</text>
      
      
      <line x1="58.00" y1="52" x2="58.00" y2="208" stroke="#e2e8f0" stroke-width="1"/><text x="58.00" y="236" text-anchor="middle" font-family="Arial, sans-serif" font-size="11" fill="#475569">-2</text><line x1="131.00" y1="52" x2="131.00" y2="208" stroke="#e2e8f0" stroke-width="1"/><text x="131.00" y="236" text-anchor="middle" font-family="Arial, sans-serif" font-size="11" fill="#475569">-1</text><line x1="204.00" y1="52" x2="204.00" y2="208" stroke="#e2e8f0" stroke-width="1"/><line x1="277.00" y1="52" x2="277.00" y2="208" stroke="#e2e8f0" stroke-width="1"/><text x="277.00" y="236" text-anchor="middle" font-family="Arial, sans-serif" font-size="11" fill="#475569">1</text><line x1="350.00" y1="52" x2="350.00" y2="208" stroke="#e2e8f0" stroke-width="1"/><text x="350.00" y="236" text-anchor="middle" font-family="Arial, sans-serif" font-size="11" fill="#475569">2</text><line x1="58" y1="208.00" x2="350" y2="208.00" stroke="#e2e8f0" stroke-width="1"/><line x1="58" y1="179.64" x2="350" y2="179.64" stroke="#e2e8f0" stroke-width="1"/><text x="48" y="183.64" text-anchor="end" font-family="Arial, sans-serif" font-size="11" fill="#475569">4</text><line x1="58" y1="151.27" x2="350" y2="151.27" stroke="#e2e8f0" stroke-width="1"/><text x="48" y="155.27" text-anchor="end" font-family="Arial, sans-serif" font-size="11" fill="#475569">8</text><line x1="58" y1="122.91" x2="350" y2="122.91" stroke="#e2e8f0" stroke-width="1"/><text x="48" y="126.91" text-anchor="end" font-family="Arial, sans-serif" font-size="11" fill="#475569">12</text><line x1="58" y1="94.55" x2="350" y2="94.55" stroke="#e2e8f0" stroke-width="1"/><text x="48" y="98.55" text-anchor="end" font-family="Arial, sans-serif" font-size="11" fill="#475569">16</text><line x1="58" y1="66.18" x2="350" y2="66.18" stroke="#e2e8f0" stroke-width="1"/><text x="48" y="70.18" text-anchor="end" font-family="Arial, sans-serif" font-size="11" fill="#475569">20</text>
      <line x1="204.00" y1="52" x2="204.00" y2="208" stroke="#0f172a" stroke-width="1.8"/><line x1="58" y1="208.00" x2="350" y2="208.00" stroke="#0f172a" stroke-width="1.8"/>
      <polyline points="58.00,186.28 59.04,186.28 60.09,186.27 61.13,186.26 62.17,186.25 63.21,186.24 64.26,186.23 65.30,186.22 66.34,186.21 67.39,186.20 68.43,186.19 69.47,186.18 70.51,186.17 71.56,186.15 72.60,186.14 73.64,186.13 74.69,186.12 75.73,186.11 76.77,186.09 77.81,186.08 78.86,186.07 79.90,186.06 80.94,186.04 81.99,186.03 83.03,186.01 84.07,186.00 85.11,185.99 86.16,185.97 87.20,185.96 88.24,185.94 89.29,185.92 90.33,185.91 91.37,185.89 92.41,185.88 93.46,185.86 94.50,185.84 95.54,185.82 96.59,185.81 97.63,185.79 98.67,185.77 99.71,185.75 100.76,185.73 101.80,185.71 102.84,185.69 103.89,185.67 104.93,185.65 105.97,185.63 107.01,185.60 108.06,185.58 109.10,185.56 110.14,185.53 111.19,185.51 112.23,185.49 113.27,185.46 114.31,185.44 115.36,185.41 116.40,185.38 117.44,185.36 118.49,185.33 119.53,185.30 120.57,185.27 121.61,185.24 122.66,185.21 123.70,185.18 124.74,185.15 125.79,185.12 126.83,185.09 127.87,185.06 128.91,185.02 129.96,184.99 131.00,184.95 132.04,184.92 133.09,184.88 134.13,184.85 135.17,184.81 136.21,184.77 137.26,184.73 138.30,184.69 139.34,184.65 140.39,184.61 141.43,184.57 142.47,184.52 143.51,184.48 144.56,184.43 145.60,184.39 146.64,184.34 147.69,184.29 148.73,184.24 149.77,184.20 150.81,184.14 151.86,184.09 152.90,184.04 153.94,183.99 154.99,183.93 156.03,183.88 157.07,183.82 158.11,183.76 159.16,183.70 160.20,183.64 161.24,183.58 162.29,183.52 163.33,183.45 164.37,183.39 165.41,183.32 166.46,183.25 167.50,183.18 168.54,183.11 169.59,183.04 170.63,182.96 171.67,182.89 172.71,182.81 173.76,182.73 174.80,182.65 175.84,182.57 176.89,182.49 177.93,182.41 178.97,182.32 180.01,182.23 181.06,182.14 182.10,182.05 183.14,181.96 184.19,181.86 185.23,181.76 186.27,181.66 187.31,181.56 188.36,181.46 189.40,181.35 190.44,181.25 191.49,181.14 192.53,181.02 193.57,180.91 194.61,180.79 195.66,180.68 196.70,180.55 197.74,180.43 198.79,180.30 199.83,180.18 200.87,180.05 201.91,179.91 202.96,179.78 204.00,179.64 205.04,179.49 206.09,179.35 207.13,179.20 208.17,179.05 209.21,178.90 210.26,178.74 211.30,178.58 212.34,178.42 213.39,178.25 214.43,178.08 215.47,177.91 216.51,177.73 217.56,177.55 218.60,177.37 219.64,177.18 220.69,176.99 221.73,176.80 222.77,176.60 223.81,176.40 224.86,176.19 225.90,175.98 226.94,175.76 227.99,175.55 229.03,175.32 230.07,175.09 231.11,174.86 232.16,174.62 233.20,174.38 234.24,174.13 235.29,173.88 236.33,173.63 237.37,173.36 238.41,173.10 239.46,172.82 240.50,172.55 241.54,172.26 242.59,171.97 243.63,171.68 244.67,171.38 245.71,171.07 246.76,170.76 247.80,170.44 248.84,170.11 249.89,169.78 250.93,169.44 251.97,169.09 253.01,168.74 254.06,168.38 255.10,168.01 256.14,167.64 257.19,167.26 258.23,166.87 259.27,166.47 260.31,166.07 261.36,165.65 262.40,165.23 263.44,164.80 264.49,164.36 265.53,163.92 266.57,163.46 267.61,162.99 268.66,162.52 269.70,162.04 270.74,161.54 271.79,161.04 272.83,160.52 273.87,160.00 274.91,159.47 275.96,158.92 277.00,158.36 278.04,157.80 279.09,157.22 280.13,156.63 281.17,156.03 282.21,155.41 283.26,154.78 284.30,154.15 285.34,153.49 286.39,152.83 287.43,152.15 288.47,151.46 289.51,150.75 290.56,150.04 291.60,149.30 292.64,148.55 293.69,147.79 294.73,147.01 295.77,146.22 296.81,145.41 297.86,144.58 298.90,143.74 299.94,142.88 300.99,142.00 302.03,141.10 303.07,140.19 304.11,139.26 305.16,138.31 306.20,137.34 307.24,136.36 308.29,135.35 309.33,134.32 310.37,133.27 311.41,132.20 312.46,131.11 313.50,130.00 314.54,128.87 315.59,127.71 316.63,126.53 317.67,125.32 318.71,124.10 319.76,122.84 320.80,121.56 321.84,120.26 322.89,118.93 323.93,117.58 324.97,116.19 326.01,114.78 327.06,113.34 328.10,111.88 329.14,110.38 330.19,108.85 331.23,107.29 332.27,105.70 333.31,104.08 334.36,102.43 335.40,100.74 336.44,99.03 337.49,97.27 338.53,95.48 339.57,93.66 340.61,91.79 341.66,89.90 342.70,87.96 343.74,85.98 344.79,83.97 345.83,81.91 346.87,79.82 347.91,77.68 348.96,75.50 350.00,73.27" fill="none" stroke="#ea580c" stroke-width="3" />
      
      
      
    </g>
  </g><g transform="translate(405, 290)">
    <g>
      <rect width="370" height="250" rx="18" fill="#ffffff" stroke="#cbd5e1" stroke-width="2"/>
      <text x="185" y="26" text-anchor="middle" font-family="Arial, sans-serif" font-size="19" font-weight="700" fill="#0f172a">g(x) = 7 · 1^x + 5</text>
      
      
      <line x1="58.00" y1="52" x2="58.00" y2="208" stroke="#e2e8f0" stroke-width="1"/><text x="58.00" y="236" text-anchor="middle" font-family="Arial, sans-serif" font-size="11" fill="#475569">-4</text><line x1="131.00" y1="52" x2="131.00" y2="208" stroke="#e2e8f0" stroke-width="1"/><text x="131.00" y="236" text-anchor="middle" font-family="Arial, sans-serif" font-size="11" fill="#475569">-2</text><line x1="204.00" y1="52" x2="204.00" y2="208" stroke="#e2e8f0" stroke-width="1"/><line x1="277.00" y1="52" x2="277.00" y2="208" stroke="#e2e8f0" stroke-width="1"/><text x="277.00" y="236" text-anchor="middle" font-family="Arial, sans-serif" font-size="11" fill="#475569">2</text><line x1="350.00" y1="52" x2="350.00" y2="208" stroke="#e2e8f0" stroke-width="1"/><text x="350.00" y="236" text-anchor="middle" font-family="Arial, sans-serif" font-size="11" fill="#475569">4</text><line x1="58" y1="208.00" x2="350" y2="208.00" stroke="#e2e8f0" stroke-width="1"/><line x1="58" y1="176.80" x2="350" y2="176.80" stroke="#e2e8f0" stroke-width="1"/><text x="48" y="180.80" text-anchor="end" font-family="Arial, sans-serif" font-size="11" fill="#475569">3</text><line x1="58" y1="145.60" x2="350" y2="145.60" stroke="#e2e8f0" stroke-width="1"/><text x="48" y="149.60" text-anchor="end" font-family="Arial, sans-serif" font-size="11" fill="#475569">6</text><line x1="58" y1="114.40" x2="350" y2="114.40" stroke="#e2e8f0" stroke-width="1"/><text x="48" y="118.40" text-anchor="end" font-family="Arial, sans-serif" font-size="11" fill="#475569">9</text><line x1="58" y1="83.20" x2="350" y2="83.20" stroke="#e2e8f0" stroke-width="1"/><text x="48" y="87.20" text-anchor="end" font-family="Arial, sans-serif" font-size="11" fill="#475569">12</text><line x1="58" y1="52.00" x2="350" y2="52.00" stroke="#e2e8f0" stroke-width="1"/><text x="48" y="56.00" text-anchor="end" font-family="Arial, sans-serif" font-size="11" fill="#475569">15</text>
      <line x1="204.00" y1="52" x2="204.00" y2="208" stroke="#0f172a" stroke-width="1.8"/><line x1="58" y1="208.00" x2="350" y2="208.00" stroke="#0f172a" stroke-width="1.8"/>
      <polyline points="58.00,83.20 59.04,83.20 60.09,83.20 61.13,83.20 62.17,83.20 63.21,83.20 64.26,83.20 65.30,83.20 66.34,83.20 67.39,83.20 68.43,83.20 69.47,83.20 70.51,83.20 71.56,83.20 72.60,83.20 73.64,83.20 74.69,83.20 75.73,83.20 76.77,83.20 77.81,83.20 78.86,83.20 79.90,83.20 80.94,83.20 81.99,83.20 83.03,83.20 84.07,83.20 85.11,83.20 86.16,83.20 87.20,83.20 88.24,83.20 89.29,83.20 90.33,83.20 91.37,83.20 92.41,83.20 93.46,83.20 94.50,83.20 95.54,83.20 96.59,83.20 97.63,83.20 98.67,83.20 99.71,83.20 100.76,83.20 101.80,83.20 102.84,83.20 103.89,83.20 104.93,83.20 105.97,83.20 107.01,83.20 108.06,83.20 109.10,83.20 110.14,83.20 111.19,83.20 112.23,83.20 113.27,83.20 114.31,83.20 115.36,83.20 116.40,83.20 117.44,83.20 118.49,83.20 119.53,83.20 120.57,83.20 121.61,83.20 122.66,83.20 123.70,83.20 124.74,83.20 125.79,83.20 126.83,83.20 127.87,83.20 128.91,83.20 129.96,83.20 131.00,83.20 132.04,83.20 133.09,83.20 134.13,83.20 135.17,83.20 136.21,83.20 137.26,83.20 138.30,83.20 139.34,83.20 140.39,83.20 141.43,83.20 142.47,83.20 143.51,83.20 144.56,83.20 145.60,83.20 146.64,83.20 147.69,83.20 148.73,83.20 149.77,83.20 150.81,83.20 151.86,83.20 152.90,83.20 153.94,83.20 154.99,83.20 156.03,83.20 157.07,83.20 158.11,83.20 159.16,83.20 160.20,83.20 161.24,83.20 162.29,83.20 163.33,83.20 164.37,83.20 165.41,83.20 166.46,83.20 167.50,83.20 168.54,83.20 169.59,83.20 170.63,83.20 171.67,83.20 172.71,83.20 173.76,83.20 174.80,83.20 175.84,83.20 176.89,83.20 177.93,83.20 178.97,83.20 180.01,83.20 181.06,83.20 182.10,83.20 183.14,83.20 184.19,83.20 185.23,83.20 186.27,83.20 187.31,83.20 188.36,83.20 189.40,83.20 190.44,83.20 191.49,83.20 192.53,83.20 193.57,83.20 194.61,83.20 195.66,83.20 196.70,83.20 197.74,83.20 198.79,83.20 199.83,83.20 200.87,83.20 201.91,83.20 202.96,83.20 204.00,83.20 205.04,83.20 206.09,83.20 207.13,83.20 208.17,83.20 209.21,83.20 210.26,83.20 211.30,83.20 212.34,83.20 213.39,83.20 214.43,83.20 215.47,83.20 216.51,83.20 217.56,83.20 218.60,83.20 219.64,83.20 220.69,83.20 221.73,83.20 222.77,83.20 223.81,83.20 224.86,83.20 225.90,83.20 226.94,83.20 227.99,83.20 229.03,83.20 230.07,83.20 231.11,83.20 232.16,83.20 233.20,83.20 234.24,83.20 235.29,83.20 236.33,83.20 237.37,83.20 238.41,83.20 239.46,83.20 240.50,83.20 241.54,83.20 242.59,83.20 243.63,83.20 244.67,83.20 245.71,83.20 246.76,83.20 247.80,83.20 248.84,83.20 249.89,83.20 250.93,83.20 251.97,83.20 253.01,83.20 254.06,83.20 255.10,83.20 256.14,83.20 257.19,83.20 258.23,83.20 259.27,83.20 260.31,83.20 261.36,83.20 262.40,83.20 263.44,83.20 264.49,83.20 265.53,83.20 266.57,83.20 267.61,83.20 268.66,83.20 269.70,83.20 270.74,83.20 271.79,83.20 272.83,83.20 273.87,83.20 274.91,83.20 275.96,83.20 277.00,83.20 278.04,83.20 279.09,83.20 280.13,83.20 281.17,83.20 282.21,83.20 283.26,83.20 284.30,83.20 285.34,83.20 286.39,83.20 287.43,83.20 288.47,83.20 289.51,83.20 290.56,83.20 291.60,83.20 292.64,83.20 293.69,83.20 294.73,83.20 295.77,83.20 296.81,83.20 297.86,83.20 298.90,83.20 299.94,83.20 300.99,83.20 302.03,83.20 303.07,83.20 304.11,83.20 305.16,83.20 306.20,83.20 307.24,83.20 308.29,83.20 309.33,83.20 310.37,83.20 311.41,83.20 312.46,83.20 313.50,83.20 314.54,83.20 315.59,83.20 316.63,83.20 317.67,83.20 318.71,83.20 319.76,83.20 320.80,83.20 321.84,83.20 322.89,83.20 323.93,83.20 324.97,83.20 326.01,83.20 327.06,83.20 328.10,83.20 329.14,83.20 330.19,83.20 331.23,83.20 332.27,83.20 333.31,83.20 334.36,83.20 335.40,83.20 336.44,83.20 337.49,83.20 338.53,83.20 339.57,83.20 340.61,83.20 341.66,83.20 342.70,83.20 343.74,83.20 344.79,83.20 345.83,83.20 346.87,83.20 347.91,83.20 348.96,83.20 350.00,83.20" fill="none" stroke="#0891b2" stroke-width="3" />
      
      
      
    </g>
  </g><g transform="translate(795, 290)">
    <g>
      <rect width="370" height="250" rx="18" fill="#ffffff" stroke="#cbd5e1" stroke-width="2"/>
      <text x="185" y="26" text-anchor="middle" font-family="Arial, sans-serif" font-size="19" font-weight="700" fill="#0f172a">g(x) = 3 · 2^x - 4</text>
      
      
      <line x1="58.00" y1="52" x2="58.00" y2="208" stroke="#e2e8f0" stroke-width="1"/><text x="58.00" y="236" text-anchor="middle" font-family="Arial, sans-serif" font-size="11" fill="#475569">-2</text><line x1="106.67" y1="52" x2="106.67" y2="208" stroke="#e2e8f0" stroke-width="1"/><text x="106.67" y="236" text-anchor="middle" font-family="Arial, sans-serif" font-size="11" fill="#475569">-1</text><line x1="155.33" y1="52" x2="155.33" y2="208" stroke="#e2e8f0" stroke-width="1"/><line x1="204.00" y1="52" x2="204.00" y2="208" stroke="#e2e8f0" stroke-width="1"/><text x="204.00" y="236" text-anchor="middle" font-family="Arial, sans-serif" font-size="11" fill="#475569">1</text><line x1="252.67" y1="52" x2="252.67" y2="208" stroke="#e2e8f0" stroke-width="1"/><text x="252.67" y="236" text-anchor="middle" font-family="Arial, sans-serif" font-size="11" fill="#475569">2</text><line x1="301.33" y1="52" x2="301.33" y2="208" stroke="#e2e8f0" stroke-width="1"/><text x="301.33" y="236" text-anchor="middle" font-family="Arial, sans-serif" font-size="11" fill="#475569">3</text><line x1="350.00" y1="52" x2="350.00" y2="208" stroke="#e2e8f0" stroke-width="1"/><text x="350.00" y="236" text-anchor="middle" font-family="Arial, sans-serif" font-size="11" fill="#475569">4</text><line x1="58" y1="196.00" x2="350" y2="196.00" stroke="#e2e8f0" stroke-width="1"/><line x1="58" y1="172.00" x2="350" y2="172.00" stroke="#e2e8f0" stroke-width="1"/><text x="48" y="176.00" text-anchor="end" font-family="Arial, sans-serif" font-size="11" fill="#475569">8</text><line x1="58" y1="148.00" x2="350" y2="148.00" stroke="#e2e8f0" stroke-width="1"/><text x="48" y="152.00" text-anchor="end" font-family="Arial, sans-serif" font-size="11" fill="#475569">16</text><line x1="58" y1="124.00" x2="350" y2="124.00" stroke="#e2e8f0" stroke-width="1"/><text x="48" y="128.00" text-anchor="end" font-family="Arial, sans-serif" font-size="11" fill="#475569">24</text><line x1="58" y1="100.00" x2="350" y2="100.00" stroke="#e2e8f0" stroke-width="1"/><text x="48" y="104.00" text-anchor="end" font-family="Arial, sans-serif" font-size="11" fill="#475569">32</text><line x1="58" y1="76.00" x2="350" y2="76.00" stroke="#e2e8f0" stroke-width="1"/><text x="48" y="80.00" text-anchor="end" font-family="Arial, sans-serif" font-size="11" fill="#475569">40</text><line x1="58" y1="52.00" x2="350" y2="52.00" stroke="#e2e8f0" stroke-width="1"/><text x="48" y="56.00" text-anchor="end" font-family="Arial, sans-serif" font-size="11" fill="#475569">48</text>
      <line x1="155.33" y1="52" x2="155.33" y2="208" stroke="#0f172a" stroke-width="1.8"/><line x1="58" y1="196.00" x2="350" y2="196.00" stroke="#0f172a" stroke-width="1.8"/>
      <polyline points="58.00,205.75 59.04,205.72 60.09,205.68 61.13,205.65 62.17,205.61 63.21,205.58 64.26,205.54 65.30,205.50 66.34,205.47 67.39,205.43 68.43,205.39 69.47,205.35 70.51,205.31 71.56,205.27 72.60,205.23 73.64,205.19 74.69,205.15 75.73,205.10 76.77,205.06 77.81,205.02 78.86,204.97 79.90,204.93 80.94,204.88 81.99,204.83 83.03,204.79 84.07,204.74 85.11,204.69 86.16,204.64 87.20,204.59 88.24,204.54 89.29,204.49 90.33,204.43 91.37,204.38 92.41,204.33 93.46,204.27 94.50,204.22 95.54,204.16 96.59,204.10 97.63,204.04 98.67,203.98 99.71,203.92 100.76,203.86 101.80,203.80 102.84,203.74 103.89,203.67 104.93,203.61 105.97,203.54 107.01,203.48 108.06,203.41 109.10,203.34 110.14,203.27 111.19,203.20 112.23,203.13 113.27,203.06 114.31,202.98 115.36,202.91 116.40,202.83 117.44,202.75 118.49,202.67 119.53,202.60 120.57,202.51 121.61,202.43 122.66,202.35 123.70,202.26 124.74,202.18 125.79,202.09 126.83,202.00 127.87,201.91 128.91,201.82 129.96,201.73 131.00,201.64 132.04,201.54 133.09,201.44 134.13,201.35 135.17,201.25 136.21,201.15 137.26,201.04 138.30,200.94 139.34,200.83 140.39,200.73 141.43,200.62 142.47,200.51 143.51,200.39 144.56,200.28 145.60,200.17 146.64,200.05 147.69,199.93 148.73,199.81 149.77,199.69 150.81,199.56 151.86,199.43 152.90,199.31 153.94,199.18 154.99,199.04 156.03,198.91 157.07,198.77 158.11,198.64 159.16,198.50 160.20,198.35 161.24,198.21 162.29,198.06 163.33,197.91 164.37,197.76 165.41,197.61 166.46,197.45 167.50,197.30 168.54,197.14 169.59,196.97 170.63,196.81 171.67,196.64 172.71,196.47 173.76,196.30 174.80,196.12 175.84,195.95 176.89,195.77 177.93,195.58 178.97,195.40 180.01,195.21 181.06,195.02 182.10,194.82 183.14,194.63 184.19,194.43 185.23,194.22 186.27,194.02 187.31,193.81 188.36,193.60 189.40,193.38 190.44,193.16 191.49,192.94 192.53,192.71 193.57,192.48 194.61,192.25 195.66,192.02 196.70,191.78 197.74,191.53 198.79,191.29 199.83,191.04 200.87,190.78 201.91,190.53 202.96,190.27 204.00,190.00 205.04,189.73 206.09,189.46 207.13,189.18 208.17,188.90 209.21,188.61 210.26,188.32 211.30,188.03 212.34,187.73 213.39,187.43 214.43,187.12 215.47,186.81 216.51,186.49 217.56,186.17 218.60,185.84 219.64,185.51 220.69,185.17 221.73,184.83 222.77,184.48 223.81,184.13 224.86,183.77 225.90,183.41 226.94,183.04 227.99,182.67 229.03,182.29 230.07,181.91 231.11,181.52 232.16,181.12 233.20,180.72 234.24,180.31 235.29,179.89 236.33,179.47 237.37,179.05 238.41,178.61 239.46,178.17 240.50,177.73 241.54,177.27 242.59,176.81 243.63,176.35 244.67,175.87 245.71,175.39 246.76,174.91 247.80,174.41 248.84,173.91 249.89,173.40 250.93,172.88 251.97,172.35 253.01,171.82 254.06,171.28 255.10,170.73 256.14,170.17 257.19,169.61 258.23,169.03 259.27,168.45 260.31,167.86 261.36,167.26 262.40,166.65 263.44,166.03 264.49,165.40 265.53,164.76 266.57,164.12 267.61,163.46 268.66,162.79 269.70,162.12 270.74,161.43 271.79,160.73 272.83,160.03 273.87,159.31 274.91,158.58 275.96,157.84 277.00,157.09 278.04,156.33 279.09,155.55 280.13,154.77 281.17,153.97 282.21,153.16 283.26,152.34 284.30,151.51 285.34,150.66 286.39,149.81 287.43,148.94 288.47,148.05 289.51,147.15 290.56,146.24 291.60,145.32 292.64,144.38 293.69,143.43 294.73,142.46 295.77,141.48 296.81,140.49 297.86,139.48 298.90,138.45 299.94,137.41 300.99,136.36 302.03,135.28 303.07,134.20 304.11,133.09 305.16,131.97 306.20,130.83 307.24,129.68 308.29,128.51 309.33,127.32 310.37,126.11 311.41,124.88 312.46,123.64 313.50,122.38 314.54,121.10 315.59,119.80 316.63,118.48 317.67,117.14 318.71,115.78 319.76,114.40 320.80,113.00 321.84,111.57 322.89,110.13 323.93,108.67 324.97,107.18 326.01,105.67 327.06,104.14 328.10,102.59 329.14,101.01 330.19,99.41 331.23,97.78 332.27,96.13 333.31,94.46 334.36,92.76 335.40,91.04 336.44,89.29 337.49,87.51 338.53,85.71 339.57,83.88 340.61,82.02 341.66,80.13 342.70,78.22 343.74,76.28 344.79,74.31 345.83,72.31 346.87,70.28 347.91,68.21 348.96,66.12 350.00,64.00" fill="none" stroke="#be123c" stroke-width="3" />
      
      
      
    </g>
  </g>
</svg>
