<?xml version="1.0" encoding="UTF-8"?>
<svg xmlns="http://www.w3.org/2000/svg" width="1200" height="600" viewBox="0 0 1200 600" fill="none">
<rect width="1200" height="600" fill="#f8fafc"/>
<g transform="translate(20, 20)">
    <g>
      <rect width="1160" height="560" rx="18" fill="#ffffff" stroke="#cbd5e1" stroke-width="2"/>
      <text x="580" y="26" text-anchor="middle" font-family="Arial, sans-serif" font-size="19" font-weight="700" fill="#0f172a">f(x) = |x + 3| + |x - 2|</text>
      <text x="580" y="44" text-anchor="middle" font-family="Arial, sans-serif" font-size="12" fill="#475569">Piecewise linear with a flat minimum segment</text>
      
      <line x1="58.00" y1="52" x2="58.00" y2="518" stroke="#e2e8f0" stroke-width="1"/><text x="58.00" y="546" text-anchor="middle" font-family="Arial, sans-serif" font-size="11" fill="#475569">-8</text><line x1="193.25" y1="52" x2="193.25" y2="518" stroke="#e2e8f0" stroke-width="1"/><text x="193.25" y="546" text-anchor="middle" font-family="Arial, sans-serif" font-size="11" fill="#475569">-6</text><line x1="328.50" y1="52" x2="328.50" y2="518" stroke="#e2e8f0" stroke-width="1"/><text x="328.50" y="546" text-anchor="middle" font-family="Arial, sans-serif" font-size="11" fill="#475569">-4</text><line x1="463.75" y1="52" x2="463.75" y2="518" stroke="#e2e8f0" stroke-width="1"/><text x="463.75" y="546" text-anchor="middle" font-family="Arial, sans-serif" font-size="11" fill="#475569">-2</text><line x1="599.00" y1="52" x2="599.00" y2="518" stroke="#e2e8f0" stroke-width="1"/><line x1="734.25" y1="52" x2="734.25" y2="518" stroke="#e2e8f0" stroke-width="1"/><text x="734.25" y="546" text-anchor="middle" font-family="Arial, sans-serif" font-size="11" fill="#475569">2</text><line x1="869.50" y1="52" x2="869.50" y2="518" stroke="#e2e8f0" stroke-width="1"/><text x="869.50" y="546" text-anchor="middle" font-family="Arial, sans-serif" font-size="11" fill="#475569">4</text><line x1="1004.75" y1="52" x2="1004.75" y2="518" stroke="#e2e8f0" stroke-width="1"/><text x="1004.75" y="546" text-anchor="middle" font-family="Arial, sans-serif" font-size="11" fill="#475569">6</text><line x1="1140.00" y1="52" x2="1140.00" y2="518" stroke="#e2e8f0" stroke-width="1"/><text x="1140.00" y="546" text-anchor="middle" font-family="Arial, sans-serif" font-size="11" fill="#475569">8</text><line x1="58" y1="518.00" x2="1140" y2="518.00" stroke="#e2e8f0" stroke-width="1"/><line x1="58" y1="451.43" x2="1140" y2="451.43" stroke="#e2e8f0" stroke-width="1"/><text x="48" y="455.43" text-anchor="end" font-family="Arial, sans-serif" font-size="11" fill="#475569">2</text><line x1="58" y1="384.86" x2="1140" y2="384.86" stroke="#e2e8f0" stroke-width="1"/><text x="48" y="388.86" text-anchor="end" font-family="Arial, sans-serif" font-size="11" fill="#475569">4</text><line x1="58" y1="318.29" x2="1140" y2="318.29" stroke="#e2e8f0" stroke-width="1"/><text x="48" y="322.29" text-anchor="end" font-family="Arial, sans-serif" font-size="11" fill="#475569">6</text><line x1="58" y1="251.71" x2="1140" y2="251.71" stroke="#e2e8f0" stroke-width="1"/><text x="48" y="255.71" text-anchor="end" font-family="Arial, sans-serif" font-size="11" fill="#475569">8</text><line x1="58" y1="185.14" x2="1140" y2="185.14" stroke="#e2e8f0" stroke-width="1"/><text x="48" y="189.14" text-anchor="end" font-family="Arial, sans-serif" font-size="11" fill="#475569">10</text><line x1="58" y1="118.57" x2="1140" y2="118.57" stroke="#e2e8f0" stroke-width="1"/><text x="48" y="122.57" text-anchor="end" font-family="Arial, sans-serif" font-size="11" fill="#475569">12</text><line x1="58" y1="52.00" x2="1140" y2="52.00" stroke="#e2e8f0" stroke-width="1"/><text x="48" y="56.00" text-anchor="end" font-family="Arial, sans-serif" font-size="11" fill="#475569">14</text>
      <line x1="599.00" y1="52" x2="599.00" y2="518" stroke="#0f172a" stroke-width="1.8"/><line x1="58" y1="518.00" x2="1140" y2="518.00" stroke="#0f172a" stroke-width="1.8"/>
      <polyline points="58.00,18.71 61.86,22.52 65.73,26.32 69.59,30.13 73.46,33.93 77.32,37.73 81.19,41.54 85.05,45.34 88.91,49.15 92.78,52.95 96.64,56.76 100.51,60.56 104.37,64.36 108.24,68.17 112.10,71.97 115.96,75.78 119.83,79.58 123.69,83.38 127.56,87.19 131.42,90.99 135.29,94.80 139.15,98.60 143.01,102.40 146.88,106.21 150.74,110.01 154.61,113.82 158.47,117.62 162.34,121.42 166.20,125.23 170.06,129.03 173.93,132.84 177.79,136.64 181.66,140.44 185.52,144.25 189.39,148.05 193.25,151.86 197.11,155.66 200.98,159.47 204.84,163.27 208.71,167.07 212.57,170.88 216.44,174.68 220.30,178.49 224.16,182.29 228.03,186.09 231.89,189.90 235.76,193.70 239.62,197.51 243.49,201.31 247.35,205.11 251.21,208.92 255.08,212.72 258.94,216.53 262.81,220.33 266.67,224.13 270.54,227.94 274.40,231.74 278.26,235.55 282.13,239.35 285.99,243.16 289.86,246.96 293.72,250.76 297.59,254.57 301.45,258.37 305.31,262.18 309.18,265.98 313.04,269.78 316.91,273.59 320.77,277.39 324.64,281.20 328.50,285.00 332.36,288.80 336.23,292.61 340.09,296.41 343.96,300.22 347.82,304.02 351.69,307.82 355.55,311.63 359.41,315.43 363.28,319.24 367.14,323.04 371.01,326.84 374.87,330.65 378.74,334.45 382.60,338.26 386.46,342.06 390.33,345.87 394.19,349.67 398.06,351.57 401.92,351.57 405.79,351.57 409.65,351.57 413.51,351.57 417.38,351.57 421.24,351.57 425.11,351.57 428.97,351.57 432.84,351.57 436.70,351.57 440.56,351.57 444.43,351.57 448.29,351.57 452.16,351.57 456.02,351.57 459.89,351.57 463.75,351.57 467.61,351.57 471.48,351.57 475.34,351.57 479.21,351.57 483.07,351.57 486.94,351.57 490.80,351.57 494.66,351.57 498.53,351.57 502.39,351.57 506.26,351.57 510.12,351.57 513.99,351.57 517.85,351.57 521.71,351.57 525.58,351.57 529.44,351.57 533.31,351.57 537.17,351.57 541.04,351.57 544.90,351.57 548.76,351.57 552.63,351.57 556.49,351.57 560.36,351.57 564.22,351.57 568.09,351.57 571.95,351.57 575.81,351.57 579.68,351.57 583.54,351.57 587.41,351.57 591.27,351.57 595.14,351.57 599.00,351.57 602.86,351.57 606.73,351.57 610.59,351.57 614.46,351.57 618.32,351.57 622.19,351.57 626.05,351.57 629.91,351.57 633.78,351.57 637.64,351.57 641.51,351.57 645.37,351.57 649.24,351.57 653.10,351.57 656.96,351.57 660.83,351.57 664.69,351.57 668.56,351.57 672.42,351.57 676.29,351.57 680.15,351.57 684.01,351.57 687.88,351.57 691.74,351.57 695.61,351.57 699.47,351.57 703.34,351.57 707.20,351.57 711.06,351.57 714.93,351.57 718.79,351.57 722.66,351.57 726.52,351.57 730.39,351.57 734.25,351.57 738.11,347.77 741.98,343.96 745.84,340.16 749.71,336.36 753.57,332.55 757.44,328.75 761.30,324.94 765.16,321.14 769.03,317.33 772.89,313.53 776.76,309.73 780.62,305.92 784.49,302.12 788.35,298.31 792.21,294.51 796.08,290.71 799.94,286.90 803.81,283.10 807.67,279.29 811.54,275.49 815.40,271.69 819.26,267.88 823.13,264.08 826.99,260.27 830.86,256.47 834.72,252.67 838.59,248.86 842.45,245.06 846.31,241.25 850.18,237.45 854.04,233.64 857.91,229.84 861.77,226.04 865.64,222.23 869.50,218.43 873.36,214.62 877.23,210.82 881.09,207.02 884.96,203.21 888.82,199.41 892.69,195.60 896.55,191.80 900.41,188.00 904.28,184.19 908.14,180.39 912.01,176.58 915.87,172.78 919.74,168.98 923.60,165.17 927.46,161.37 931.33,157.56 935.19,153.76 939.06,149.96 942.92,146.15 946.79,142.35 950.65,138.54 954.51,134.74 958.38,130.93 962.24,127.13 966.11,123.33 969.97,119.52 973.84,115.72 977.70,111.91 981.56,108.11 985.43,104.31 989.29,100.50 993.16,96.70 997.02,92.89 1000.89,89.09 1004.75,85.29 1008.61,81.48 1012.48,77.68 1016.34,73.87 1020.21,70.07 1024.07,66.27 1027.94,62.46 1031.80,58.66 1035.66,54.85 1039.53,51.05 1043.39,47.24 1047.26,43.44 1051.12,39.64 1054.99,35.83 1058.85,32.03 1062.71,28.22 1066.58,24.42 1070.44,20.62 1074.31,16.81 1078.17,13.01 1082.04,9.20 1085.90,5.40 1089.76,1.60 1093.63,-2.21 1097.49,-6.01 1101.36,-9.82 1105.22,-13.62 1109.09,-17.42 1112.95,-21.23 1116.81,-25.03 1120.68,-28.84 1124.54,-32.64 1128.41,-36.44 1132.27,-40.25" fill="none" stroke="#2563eb" stroke-width="3" />
      <circle cx="193.25" cy="151.86" r="4.5" fill="#dc2626" stroke="#ffffff" stroke-width="2"/><circle cx="328.50" cy="285.00" r="4.5" fill="#dc2626" stroke="#ffffff" stroke-width="2"/><circle cx="396.13" cy="351.57" r="4.5" fill="#dc2626" stroke="#ffffff" stroke-width="2"/><circle cx="463.75" cy="351.57" r="4.5" fill="#dc2626" stroke="#ffffff" stroke-width="2"/><circle cx="599.00" cy="351.57" r="4.5" fill="#dc2626" stroke="#ffffff" stroke-width="2"/><circle cx="734.25" cy="351.57" r="4.5" fill="#dc2626" stroke="#ffffff" stroke-width="2"/><circle cx="801.88" cy="285.00" r="4.5" fill="#dc2626" stroke="#ffffff" stroke-width="2"/><circle cx="937.13" cy="151.86" r="4.5" fill="#dc2626" stroke="#ffffff" stroke-width="2"/><circle cx="1004.75" cy="85.29" r="4.5" fill="#dc2626" stroke="#ffffff" stroke-width="2"/>
      
      <text x="580" y="548" text-anchor="middle" font-family="Arial, sans-serif" font-size="12" fill="#475569">Minimum value 5 occurs for every x in the interval [-3, 2].</text>
    </g>
  </g>
</svg>
