<?xml version="1.0" encoding="UTF-8"?>
<svg xmlns="http://www.w3.org/2000/svg" width="1200" height="620" viewBox="0 0 1200 620" fill="none">
<rect width="1200" height="620" fill="#f8fafc"/>
<g transform="translate(20, 20)">
    <g>
      <rect width="1160" height="580" rx="18" fill="#ffffff" stroke="#cbd5e1" stroke-width="2"/>
      <text x="580" y="26" text-anchor="middle" font-family="Arial, sans-serif" font-size="19" font-weight="700" fill="#0f172a">Cost of Living Trend Example</text>
      <text x="580" y="44" text-anchor="middle" font-family="Arial, sans-serif" font-size="12" fill="#475569">Line of best fit: y = 50x + 950, where x is years after 2010</text>
      <line x1="64" y1="24" x2="84" y2="24" stroke="#2563eb" stroke-width="3" /><text x="92" y="28" font-family="Arial, sans-serif" font-size="12" fill="#334155">predicted trend</text>
      <line x1="58.00" y1="52" x2="58.00" y2="538" stroke="#e2e8f0" stroke-width="1"/><line x1="193.25" y1="52" x2="193.25" y2="538" stroke="#e2e8f0" stroke-width="1"/><text x="193.25" y="566" text-anchor="middle" font-family="Arial, sans-serif" font-size="11" fill="#475569">1</text><line x1="328.50" y1="52" x2="328.50" y2="538" stroke="#e2e8f0" stroke-width="1"/><text x="328.50" y="566" text-anchor="middle" font-family="Arial, sans-serif" font-size="11" fill="#475569">2</text><line x1="463.75" y1="52" x2="463.75" y2="538" stroke="#e2e8f0" stroke-width="1"/><text x="463.75" y="566" text-anchor="middle" font-family="Arial, sans-serif" font-size="11" fill="#475569">3</text><line x1="599.00" y1="52" x2="599.00" y2="538" stroke="#e2e8f0" stroke-width="1"/><text x="599.00" y="566" text-anchor="middle" font-family="Arial, sans-serif" font-size="11" fill="#475569">4</text><line x1="734.25" y1="52" x2="734.25" y2="538" stroke="#e2e8f0" stroke-width="1"/><text x="734.25" y="566" text-anchor="middle" font-family="Arial, sans-serif" font-size="11" fill="#475569">5</text><line x1="869.50" y1="52" x2="869.50" y2="538" stroke="#e2e8f0" stroke-width="1"/><text x="869.50" y="566" text-anchor="middle" font-family="Arial, sans-serif" font-size="11" fill="#475569">6</text><line x1="1004.75" y1="52" x2="1004.75" y2="538" stroke="#e2e8f0" stroke-width="1"/><text x="1004.75" y="566" text-anchor="middle" font-family="Arial, sans-serif" font-size="11" fill="#475569">7</text><line x1="1140.00" y1="52" x2="1140.00" y2="538" stroke="#e2e8f0" stroke-width="1"/><text x="1140.00" y="566" text-anchor="middle" font-family="Arial, sans-serif" font-size="11" fill="#475569">8</text><line x1="58" y1="538.00" x2="1140" y2="538.00" stroke="#e2e8f0" stroke-width="1"/><text x="48" y="542.00" text-anchor="end" font-family="Arial, sans-serif" font-size="11" fill="#475569">900</text><line x1="58" y1="489.40" x2="1140" y2="489.40" stroke="#e2e8f0" stroke-width="1"/><text x="48" y="493.40" text-anchor="end" font-family="Arial, sans-serif" font-size="11" fill="#475569">950</text><line x1="58" y1="440.80" x2="1140" y2="440.80" stroke="#e2e8f0" stroke-width="1"/><text x="48" y="444.80" text-anchor="end" font-family="Arial, sans-serif" font-size="11" fill="#475569">1000</text><line x1="58" y1="392.20" x2="1140" y2="392.20" stroke="#e2e8f0" stroke-width="1"/><text x="48" y="396.20" text-anchor="end" font-family="Arial, sans-serif" font-size="11" fill="#475569">1050</text><line x1="58" y1="343.60" x2="1140" y2="343.60" stroke="#e2e8f0" stroke-width="1"/><text x="48" y="347.60" text-anchor="end" font-family="Arial, sans-serif" font-size="11" fill="#475569">1100</text><line x1="58" y1="295.00" x2="1140" y2="295.00" stroke="#e2e8f0" stroke-width="1"/><text x="48" y="299.00" text-anchor="end" font-family="Arial, sans-serif" font-size="11" fill="#475569">1150</text><line x1="58" y1="246.40" x2="1140" y2="246.40" stroke="#e2e8f0" stroke-width="1"/><text x="48" y="250.40" text-anchor="end" font-family="Arial, sans-serif" font-size="11" fill="#475569">1200</text><line x1="58" y1="197.80" x2="1140" y2="197.80" stroke="#e2e8f0" stroke-width="1"/><text x="48" y="201.80" text-anchor="end" font-family="Arial, sans-serif" font-size="11" fill="#475569">1250</text><line x1="58" y1="149.20" x2="1140" y2="149.20" stroke="#e2e8f0" stroke-width="1"/><text x="48" y="153.20" text-anchor="end" font-family="Arial, sans-serif" font-size="11" fill="#475569">1300</text><line x1="58" y1="100.60" x2="1140" y2="100.60" stroke="#e2e8f0" stroke-width="1"/><text x="48" y="104.60" text-anchor="end" font-family="Arial, sans-serif" font-size="11" fill="#475569">1350</text><line x1="58" y1="52.00" x2="1140" y2="52.00" stroke="#e2e8f0" stroke-width="1"/><text x="48" y="56.00" text-anchor="end" font-family="Arial, sans-serif" font-size="11" fill="#475569">1400</text>
      <line x1="58.00" y1="52" x2="58.00" y2="538" stroke="#0f172a" stroke-width="1.8"/>
      <polyline points="58.00,489.40 61.86,488.01 65.73,486.62 69.59,485.23 73.46,483.85 77.32,482.46 81.19,481.07 85.05,479.68 88.91,478.29 92.78,476.90 96.64,475.51 100.51,474.13 104.37,472.74 108.24,471.35 112.10,469.96 115.96,468.57 119.83,467.18 123.69,465.79 127.56,464.41 131.42,463.02 135.29,461.63 139.15,460.24 143.01,458.85 146.88,457.46 150.74,456.07 154.61,454.69 158.47,453.30 162.34,451.91 166.20,450.52 170.06,449.13 173.93,447.74 177.79,446.35 181.66,444.97 185.52,443.58 189.39,442.19 193.25,440.80 197.11,439.41 200.98,438.02 204.84,436.63 208.71,435.25 212.57,433.86 216.44,432.47 220.30,431.08 224.16,429.69 228.03,428.30 231.89,426.91 235.76,425.53 239.62,424.14 243.49,422.75 247.35,421.36 251.21,419.97 255.08,418.58 258.94,417.19 262.81,415.81 266.67,414.42 270.54,413.03 274.40,411.64 278.26,410.25 282.13,408.86 285.99,407.47 289.86,406.09 293.72,404.70 297.59,403.31 301.45,401.92 305.31,400.53 309.18,399.14 313.04,397.75 316.91,396.37 320.77,394.98 324.64,393.59 328.50,392.20 332.36,390.81 336.23,389.42 340.09,388.03 343.96,386.65 347.82,385.26 351.69,383.87 355.55,382.48 359.41,381.09 363.28,379.70 367.14,378.31 371.01,376.93 374.87,375.54 378.74,374.15 382.60,372.76 386.46,371.37 390.33,369.98 394.19,368.59 398.06,367.21 401.92,365.82 405.79,364.43 409.65,363.04 413.51,361.65 417.38,360.26 421.24,358.87 425.11,357.49 428.97,356.10 432.84,354.71 436.70,353.32 440.56,351.93 444.43,350.54 448.29,349.15 452.16,347.77 456.02,346.38 459.89,344.99 463.75,343.60 467.61,342.21 471.48,340.82 475.34,339.43 479.21,338.05 483.07,336.66 486.94,335.27 490.80,333.88 494.66,332.49 498.53,331.10 502.39,329.71 506.26,328.33 510.12,326.94 513.99,325.55 517.85,324.16 521.71,322.77 525.58,321.38 529.44,319.99 533.31,318.61 537.17,317.22 541.04,315.83 544.90,314.44 548.76,313.05 552.63,311.66 556.49,310.27 560.36,308.89 564.22,307.50 568.09,306.11 571.95,304.72 575.81,303.33 579.68,301.94 583.54,300.55 587.41,299.17 591.27,297.78 595.14,296.39 599.00,295.00 602.86,293.61 606.73,292.22 610.59,290.83 614.46,289.45 618.32,288.06 622.19,286.67 626.05,285.28 629.91,283.89 633.78,282.50 637.64,281.11 641.51,279.73 645.37,278.34 649.24,276.95 653.10,275.56 656.96,274.17 660.83,272.78 664.69,271.39 668.56,270.01 672.42,268.62 676.29,267.23 680.15,265.84 684.01,264.45 687.88,263.06 691.74,261.67 695.61,260.29 699.47,258.90 703.34,257.51 707.20,256.12 711.06,254.73 714.93,253.34 718.79,251.95 722.66,250.57 726.52,249.18 730.39,247.79 734.25,246.40 738.11,245.01 741.98,243.62 745.84,242.23 749.71,240.85 753.57,239.46 757.44,238.07 761.30,236.68 765.16,235.29 769.03,233.90 772.89,232.51 776.76,231.13 780.62,229.74 784.49,228.35 788.35,226.96 792.21,225.57 796.08,224.18 799.94,222.79 803.81,221.41 807.67,220.02 811.54,218.63 815.40,217.24 819.26,215.85 823.13,214.46 826.99,213.07 830.86,211.69 834.72,210.30 838.59,208.91 842.45,207.52 846.31,206.13 850.18,204.74 854.04,203.35 857.91,201.97 861.77,200.58 865.64,199.19 869.50,197.80 873.36,196.41 877.23,195.02 881.09,193.63 884.96,192.25 888.82,190.86 892.69,189.47 896.55,188.08 900.41,186.69 904.28,185.30 908.14,183.91 912.01,182.53 915.87,181.14 919.74,179.75 923.60,178.36 927.46,176.97 931.33,175.58 935.19,174.19 939.06,172.81 942.92,171.42 946.79,170.03 950.65,168.64 954.51,167.25 958.38,165.86 962.24,164.47 966.11,163.09 969.97,161.70 973.84,160.31 977.70,158.92 981.56,157.53 985.43,156.14 989.29,154.75 993.16,153.37 997.02,151.98 1000.89,150.59 1004.75,149.20 1008.61,147.81 1012.48,146.42 1016.34,145.03 1020.21,143.65 1024.07,142.26 1027.94,140.87 1031.80,139.48 1035.66,138.09 1039.53,136.70 1043.39,135.31 1047.26,133.93 1051.12,132.54 1054.99,131.15 1058.85,129.76 1062.71,128.37 1066.58,126.98 1070.44,125.59 1074.31,124.21 1078.17,122.82 1082.04,121.43 1085.90,120.04 1089.76,118.65 1093.63,117.26 1097.49,115.87 1101.36,114.49 1105.22,113.10 1109.09,111.71 1112.95,110.32 1116.81,108.93 1120.68,107.54 1124.54,106.15 1128.41,104.77 1132.27,103.38 1136.14,101.99 1140.00,100.60" fill="none" stroke="#2563eb" stroke-width="3" />
      <circle cx="58.00" cy="489.40" r="4.5" fill="#dc2626" stroke="#ffffff" stroke-width="2"/><text x="66.00" y="481.40" font-family="Arial, sans-serif" font-size="12" fill="#dc2626">(0, 950)</text><circle cx="1004.75" cy="149.20" r="4.5" fill="#0f766e" stroke="#ffffff" stroke-width="2"/><text x="926.75" y="139.20" font-family="Arial, sans-serif" font-size="12" fill="#0f766e">predicted 2017</text><circle cx="1004.75" cy="100.60" r="4.5" fill="#ea580c" stroke="#ffffff" stroke-width="2"/><text x="1014.75" y="90.60" font-family="Arial, sans-serif" font-size="12" fill="#ea580c">actual 2017</text>
      
      <text x="580" y="568" text-anchor="middle" font-family="Arial, sans-serif" font-size="12" fill="#475569">Residual for 2017 = actual - predicted = 1350 - 1300 = 50.</text>
    </g>
  </g>
</svg>
