<?xml version="1.0" encoding="UTF-8"?>
<svg xmlns="http://www.w3.org/2000/svg" width="1200" height="620" viewBox="0 0 1200 620" fill="none">
<rect width="1200" height="620" fill="#f8fafc"/>
<g transform="translate(20, 20)">
    <g>
      <rect width="1160" height="580" rx="18" fill="#ffffff" stroke="#cbd5e1" stroke-width="2"/>
      <text x="580" y="26" text-anchor="middle" font-family="Arial, sans-serif" font-size="19" font-weight="700" fill="#0f172a">Photon Counts Across the Sensor</text>
      <text x="580" y="44" text-anchor="middle" font-family="Arial, sans-serif" font-size="12" fill="#475569">Integer positions use the provided counts; half-step positions are filled with 0 for the second connected line.</text>
      <line x1="64" y1="24" x2="84" y2="24" stroke="#2563eb" stroke-width="3" /><text x="92" y="28" font-family="Arial, sans-serif" font-size="12" fill="#334155">measured counts</text><line x1="64" y1="44" x2="84" y2="44" stroke="#f97316" stroke-width="3" stroke-dasharray="10 6"/><text x="92" y="48" font-family="Arial, sans-serif" font-size="12" fill="#334155">zero-filled line</text>
      <line x1="118.11" y1="52" x2="118.11" y2="538" stroke="#e2e8f0" stroke-width="1"/><text x="118.11" y="566" text-anchor="middle" font-family="Arial, sans-serif" font-size="11" fill="#475569">-4</text><line x1="238.33" y1="52" x2="238.33" y2="538" stroke="#e2e8f0" stroke-width="1"/><text x="238.33" y="566" text-anchor="middle" font-family="Arial, sans-serif" font-size="11" fill="#475569">-3</text><line x1="358.56" y1="52" x2="358.56" y2="538" stroke="#e2e8f0" stroke-width="1"/><text x="358.56" y="566" text-anchor="middle" font-family="Arial, sans-serif" font-size="11" fill="#475569">-2</text><line x1="478.78" y1="52" x2="478.78" y2="538" stroke="#e2e8f0" stroke-width="1"/><text x="478.78" y="566" text-anchor="middle" font-family="Arial, sans-serif" font-size="11" fill="#475569">-1</text><line x1="599.00" y1="52" x2="599.00" y2="538" stroke="#e2e8f0" stroke-width="1"/><line x1="719.22" y1="52" x2="719.22" y2="538" stroke="#e2e8f0" stroke-width="1"/><text x="719.22" y="566" text-anchor="middle" font-family="Arial, sans-serif" font-size="11" fill="#475569">1</text><line x1="839.44" y1="52" x2="839.44" y2="538" stroke="#e2e8f0" stroke-width="1"/><text x="839.44" y="566" text-anchor="middle" font-family="Arial, sans-serif" font-size="11" fill="#475569">2</text><line x1="959.67" y1="52" x2="959.67" y2="538" stroke="#e2e8f0" stroke-width="1"/><text x="959.67" y="566" text-anchor="middle" font-family="Arial, sans-serif" font-size="11" fill="#475569">3</text><line x1="1079.89" y1="52" x2="1079.89" y2="538" stroke="#e2e8f0" stroke-width="1"/><text x="1079.89" y="566" text-anchor="middle" font-family="Arial, sans-serif" font-size="11" fill="#475569">4</text><line x1="58" y1="538.00" x2="1140" y2="538.00" stroke="#e2e8f0" stroke-width="1"/><line x1="58" y1="480.82" x2="1140" y2="480.82" stroke="#e2e8f0" stroke-width="1"/><text x="48" y="484.82" text-anchor="end" font-family="Arial, sans-serif" font-size="11" fill="#475569">100</text><line x1="58" y1="423.65" x2="1140" y2="423.65" stroke="#e2e8f0" stroke-width="1"/><text x="48" y="427.65" text-anchor="end" font-family="Arial, sans-serif" font-size="11" fill="#475569">200</text><line x1="58" y1="366.47" x2="1140" y2="366.47" stroke="#e2e8f0" stroke-width="1"/><text x="48" y="370.47" text-anchor="end" font-family="Arial, sans-serif" font-size="11" fill="#475569">300</text><line x1="58" y1="309.29" x2="1140" y2="309.29" stroke="#e2e8f0" stroke-width="1"/><text x="48" y="313.29" text-anchor="end" font-family="Arial, sans-serif" font-size="11" fill="#475569">400</text><line x1="58" y1="252.12" x2="1140" y2="252.12" stroke="#e2e8f0" stroke-width="1"/><text x="48" y="256.12" text-anchor="end" font-family="Arial, sans-serif" font-size="11" fill="#475569">500</text><line x1="58" y1="194.94" x2="1140" y2="194.94" stroke="#e2e8f0" stroke-width="1"/><text x="48" y="198.94" text-anchor="end" font-family="Arial, sans-serif" font-size="11" fill="#475569">600</text><line x1="58" y1="137.76" x2="1140" y2="137.76" stroke="#e2e8f0" stroke-width="1"/><text x="48" y="141.76" text-anchor="end" font-family="Arial, sans-serif" font-size="11" fill="#475569">700</text><line x1="58" y1="80.59" x2="1140" y2="80.59" stroke="#e2e8f0" stroke-width="1"/><text x="48" y="84.59" text-anchor="end" font-family="Arial, sans-serif" font-size="11" fill="#475569">800</text>
      <line x1="599.00" y1="52" x2="599.00" y2="538" stroke="#0f172a" stroke-width="1.8"/><line x1="58" y1="538.00" x2="1140" y2="538.00" stroke="#0f172a" stroke-width="1.8"/>
      <polyline points="599.00,80.59" fill="none" stroke="#2563eb" stroke-width="4" /><polyline points="599.00,80.59" fill="none" stroke="#f97316" stroke-width="3" stroke-dasharray="10 6"/>
      <circle cx="118.11" cy="520.85" r="4.5" fill="#1d4ed8" stroke="#ffffff" stroke-width="2"/><circle cx="238.33" cy="503.69" r="4.5" fill="#1d4ed8" stroke="#ffffff" stroke-width="2"/><circle cx="358.56" cy="469.39" r="4.5" fill="#1d4ed8" stroke="#ffffff" stroke-width="2"/><circle cx="478.78" cy="309.29" r="4.5" fill="#1d4ed8" stroke="#ffffff" stroke-width="2"/><circle cx="599.00" cy="80.59" r="4.5" fill="#1d4ed8" stroke="#ffffff" stroke-width="2"/><circle cx="719.22" cy="292.14" r="4.5" fill="#1d4ed8" stroke="#ffffff" stroke-width="2"/><circle cx="839.44" cy="463.67" r="4.5" fill="#1d4ed8" stroke="#ffffff" stroke-width="2"/><circle cx="959.67" cy="506.55" r="4.5" fill="#1d4ed8" stroke="#ffffff" stroke-width="2"/><circle cx="1079.89" cy="521.42" r="4.5" fill="#1d4ed8" stroke="#ffffff" stroke-width="2"/>
      
      <text x="580" y="568" text-anchor="middle" font-family="Arial, sans-serif" font-size="12" fill="#475569">Highest measured count occurs at x = 0; the inserted half-step positions show gaps in the interference pattern.</text>
    </g>
  </g>
</svg>
