<?xml version="1.0" encoding="UTF-8"?>
<svg xmlns="http://www.w3.org/2000/svg" width="1200" height="620" viewBox="0 0 1200 620" fill="none">
<rect width="1200" height="620" fill="#f8fafc"/>
<g transform="translate(20, 20)">
    <g>
      <rect width="1160" height="580" rx="18" fill="#ffffff" stroke="#cbd5e1" stroke-width="2"/>
      <text x="580" y="26" text-anchor="middle" font-family="Arial, sans-serif" font-size="19" font-weight="700" fill="#0f172a">Earth Canopy vs. Space Canopy</text>
      <text x="580" y="44" text-anchor="middle" font-family="Arial, sans-serif" font-size="12" fill="#475569">Earth: y = -(x - 4)^2 + 7     Space: y = -2(x - 7)^2 + 14</text>
      <line x1="64" y1="24" x2="84" y2="24" stroke="#2563eb" stroke-width="3" /><text x="92" y="28" font-family="Arial, sans-serif" font-size="12" fill="#334155">earth canopy</text><line x1="64" y1="44" x2="84" y2="44" stroke="#059669" stroke-width="3" /><text x="92" y="48" font-family="Arial, sans-serif" font-size="12" fill="#334155">space canopy</text>
      <line x1="58.00" y1="52" x2="58.00" y2="538" stroke="#e2e8f0" stroke-width="1"/><line x1="156.36" y1="52" x2="156.36" y2="538" stroke="#e2e8f0" stroke-width="1"/><text x="156.36" y="566" text-anchor="middle" font-family="Arial, sans-serif" font-size="11" fill="#475569">1</text><line x1="254.73" y1="52" x2="254.73" y2="538" stroke="#e2e8f0" stroke-width="1"/><text x="254.73" y="566" text-anchor="middle" font-family="Arial, sans-serif" font-size="11" fill="#475569">2</text><line x1="353.09" y1="52" x2="353.09" y2="538" stroke="#e2e8f0" stroke-width="1"/><text x="353.09" y="566" text-anchor="middle" font-family="Arial, sans-serif" font-size="11" fill="#475569">3</text><line x1="451.45" y1="52" x2="451.45" y2="538" stroke="#e2e8f0" stroke-width="1"/><text x="451.45" y="566" text-anchor="middle" font-family="Arial, sans-serif" font-size="11" fill="#475569">4</text><line x1="549.82" y1="52" x2="549.82" y2="538" stroke="#e2e8f0" stroke-width="1"/><text x="549.82" y="566" text-anchor="middle" font-family="Arial, sans-serif" font-size="11" fill="#475569">5</text><line x1="648.18" y1="52" x2="648.18" y2="538" stroke="#e2e8f0" stroke-width="1"/><text x="648.18" y="566" text-anchor="middle" font-family="Arial, sans-serif" font-size="11" fill="#475569">6</text><line x1="746.55" y1="52" x2="746.55" y2="538" stroke="#e2e8f0" stroke-width="1"/><text x="746.55" y="566" text-anchor="middle" font-family="Arial, sans-serif" font-size="11" fill="#475569">7</text><line x1="844.91" y1="52" x2="844.91" y2="538" stroke="#e2e8f0" stroke-width="1"/><text x="844.91" y="566" text-anchor="middle" font-family="Arial, sans-serif" font-size="11" fill="#475569">8</text><line x1="943.27" y1="52" x2="943.27" y2="538" stroke="#e2e8f0" stroke-width="1"/><text x="943.27" y="566" text-anchor="middle" font-family="Arial, sans-serif" font-size="11" fill="#475569">9</text><line x1="1041.64" y1="52" x2="1041.64" y2="538" stroke="#e2e8f0" stroke-width="1"/><text x="1041.64" y="566" text-anchor="middle" font-family="Arial, sans-serif" font-size="11" fill="#475569">10</text><line x1="1140.00" y1="52" x2="1140.00" y2="538" stroke="#e2e8f0" stroke-width="1"/><text x="1140.00" y="566" text-anchor="middle" font-family="Arial, sans-serif" font-size="11" fill="#475569">11</text><line x1="58" y1="538.00" x2="1140" y2="538.00" stroke="#e2e8f0" stroke-width="1"/><line x1="58" y1="473.20" x2="1140" y2="473.20" stroke="#e2e8f0" stroke-width="1"/><text x="48" y="477.20" text-anchor="end" font-family="Arial, sans-serif" font-size="11" fill="#475569">2</text><line x1="58" y1="408.40" x2="1140" y2="408.40" stroke="#e2e8f0" stroke-width="1"/><text x="48" y="412.40" text-anchor="end" font-family="Arial, sans-serif" font-size="11" fill="#475569">4</text><line x1="58" y1="343.60" x2="1140" y2="343.60" stroke="#e2e8f0" stroke-width="1"/><text x="48" y="347.60" text-anchor="end" font-family="Arial, sans-serif" font-size="11" fill="#475569">6</text><line x1="58" y1="278.80" x2="1140" y2="278.80" stroke="#e2e8f0" stroke-width="1"/><text x="48" y="282.80" text-anchor="end" font-family="Arial, sans-serif" font-size="11" fill="#475569">8</text><line x1="58" y1="214.00" x2="1140" y2="214.00" stroke="#e2e8f0" stroke-width="1"/><text x="48" y="218.00" text-anchor="end" font-family="Arial, sans-serif" font-size="11" fill="#475569">10</text><line x1="58" y1="149.20" x2="1140" y2="149.20" stroke="#e2e8f0" stroke-width="1"/><text x="48" y="153.20" text-anchor="end" font-family="Arial, sans-serif" font-size="11" fill="#475569">12</text><line x1="58" y1="84.40" x2="1140" y2="84.40" stroke="#e2e8f0" stroke-width="1"/><text x="48" y="88.40" text-anchor="end" font-family="Arial, sans-serif" font-size="11" fill="#475569">14</text>
      <line x1="58.00" y1="52" x2="58.00" y2="538" stroke="#0f172a" stroke-width="1.8"/><line x1="58" y1="538.00" x2="1140" y2="538.00" stroke="#0f172a" stroke-width="1.8"/>
      <polyline points="143.01,629.78 146.88,621.85 150.74,614.01 154.61,606.28 158.47,598.65 162.34,591.12 166.20,583.68 170.06,576.35 173.93,569.12 177.79,561.99 181.66,554.95 185.52,548.02 189.39,541.19 193.25,534.46 197.11,527.82 200.98,521.29 204.84,514.86 208.71,508.53 212.57,502.29 216.44,496.16 220.30,490.13 224.16,484.20 228.03,478.36 231.89,472.63 235.76,467.00 239.62,461.47 243.49,456.03 247.35,450.70 251.21,445.47 255.08,440.34 258.94,435.31 262.81,430.37 266.67,425.54 270.54,420.81 274.40,416.18 278.26,411.64 282.13,407.21 285.99,402.88 289.86,398.65 293.72,394.51 297.59,390.48 301.45,386.55 305.31,382.72 309.18,378.99 313.04,375.35 316.91,371.82 320.77,368.39 324.64,365.06 328.50,361.83 332.36,358.69 336.23,355.66 340.09,352.73 343.96,349.90 347.82,347.16 351.69,344.53 355.55,342.00 359.41,339.57 363.28,337.24 367.14,335.00 371.01,332.87 374.87,330.84 378.74,328.91 382.60,327.08 386.46,325.34 390.33,323.71 394.19,322.18 398.06,320.75 401.92,319.42 405.79,318.18 409.65,317.05 413.51,316.02 417.38,315.09 421.24,314.26 425.11,313.52 428.97,312.89 432.84,312.36 436.70,311.93 440.56,311.60 444.43,311.37 448.29,311.23 452.16,311.20 456.02,311.27 459.89,311.44 463.75,311.71 467.61,312.07 471.48,312.54 475.34,313.11 479.21,313.78 483.07,314.55 486.94,315.42 490.80,316.38 494.66,317.45 498.53,318.62 502.39,319.89 506.26,321.26 510.12,322.73 513.99,324.29 517.85,325.96 521.71,327.73 525.58,329.60 529.44,331.57 533.31,333.64 537.17,335.80 541.04,338.07 544.90,340.44 548.76,342.91 552.63,345.48 556.49,348.15 560.36,350.91 564.22,353.78 568.09,356.75 571.95,359.82 575.81,362.99 579.68,366.26 583.54,369.63 587.41,373.09 591.27,376.66 595.14,380.33 599.00,384.10 602.86,387.97 606.73,391.94 610.59,396.01 614.46,400.17 618.32,404.44 622.19,408.81 626.05,413.28 629.91,417.85 633.78,422.52 637.64,427.29 641.51,432.15 645.37,437.12 649.24,442.19 653.10,447.36 656.96,452.63 660.83,458.00 664.69,463.47 668.56,469.04 672.42,474.70 676.29,480.47 680.15,486.34 684.01,492.31 687.88,498.38 691.74,504.55 695.61,510.82 699.47,517.19 703.34,523.66 707.20,530.22 711.06,536.89 714.93,543.66 718.79,550.53 722.66,557.50 726.52,564.57 730.39,571.74 734.25,579.01 738.11,586.38 741.98,593.84 745.84,601.41 749.71,609.08 753.57,616.85 757.44,624.72 761.30,632.69" fill="none" stroke="#2563eb" stroke-width="3" /><polyline points="459.89,634.75 463.75,620.01 467.61,605.47 471.48,591.14 475.34,577.00 479.21,563.06 483.07,549.32 486.94,535.79 490.80,522.45 494.66,509.31 498.53,496.37 502.39,483.63 506.26,471.10 510.12,458.76 513.99,446.62 517.85,434.68 521.71,422.95 525.58,411.41 529.44,400.07 533.31,388.93 537.17,378.00 541.04,367.26 544.90,356.72 548.76,346.38 552.63,336.25 556.49,326.31 560.36,316.57 564.22,307.04 568.09,297.70 571.95,288.56 575.81,279.62 579.68,270.89 583.54,262.35 587.41,254.01 591.27,245.87 595.14,237.94 599.00,230.20 602.86,222.66 606.73,215.33 610.59,208.19 614.46,201.25 618.32,194.51 622.19,187.98 626.05,181.64 629.91,175.50 633.78,169.57 637.64,163.83 641.51,158.29 645.37,152.96 649.24,147.82 653.10,142.88 656.96,138.15 660.83,133.61 664.69,129.27 668.56,125.13 672.42,121.20 676.29,117.46 680.15,113.92 684.01,110.59 687.88,107.45 691.74,104.51 695.61,101.78 699.47,99.24 703.34,96.90 707.20,94.77 711.06,92.83 714.93,91.09 718.79,89.56 722.66,88.22 726.52,87.09 730.39,86.15 734.25,85.41 738.11,84.88 741.98,84.54 745.84,84.40 749.71,84.47 753.57,84.73 757.44,85.19 761.30,85.86 765.16,86.72 769.03,87.79 772.89,89.05 776.76,90.51 780.62,92.18 784.49,94.04 788.35,96.10 792.21,98.37 796.08,100.83 799.94,103.50 803.81,106.36 807.67,109.42 811.54,112.69 815.40,116.15 819.26,119.82 823.13,123.68 826.99,127.74 830.86,132.01 834.72,136.47 838.59,141.14 842.45,146.00 846.31,151.06 850.18,156.33 854.04,161.79 857.91,167.46 861.77,173.32 865.64,179.39 869.50,185.65 873.36,192.11 877.23,198.78 881.09,205.64 884.96,212.71 888.82,219.97 892.69,227.44 896.55,235.10 900.41,242.96 904.28,251.03 908.14,259.29 912.01,267.76 915.87,276.42 919.74,285.29 923.60,294.35 927.46,303.62 931.33,313.08 935.19,322.75 939.06,332.61 942.92,342.68 946.79,352.94 950.65,363.40 954.51,374.07 958.38,384.93 962.24,396.00 966.11,407.26 969.97,418.73 973.84,430.39 977.70,442.26 981.56,454.32 985.43,466.59 989.29,479.05 993.16,491.72 997.02,504.58 1000.89,517.65 1004.75,530.91 1008.61,544.38 1012.48,558.04 1016.34,571.91 1020.21,585.97 1024.07,600.24 1027.94,614.70 1031.80,629.37" fill="none" stroke="#059669" stroke-width="3" />
      <circle cx="451.45" cy="311.20" r="4.5" fill="#2563eb" stroke="#ffffff" stroke-width="2"/><text x="459.45" y="303.20" font-family="Arial, sans-serif" font-size="12" fill="#2563eb">(4, 7)</text><circle cx="746.55" cy="84.40" r="4.5" fill="#059669" stroke="#ffffff" stroke-width="2"/><text x="754.55" y="76.40" font-family="Arial, sans-serif" font-size="12" fill="#059669">(7, 14)</text><circle cx="191.21" cy="538.00" r="4.5" fill="#2563eb" stroke="#ffffff" stroke-width="2"/><circle cx="711.70" cy="538.00" r="4.5" fill="#2563eb" stroke="#ffffff" stroke-width="2"/><circle cx="486.30" cy="538.00" r="4.5" fill="#059669" stroke="#ffffff" stroke-width="2"/><circle cx="1006.79" cy="538.00" r="4.5" fill="#059669" stroke="#ffffff" stroke-width="2"/>
      
      <text x="580" y="568" text-anchor="middle" font-family="Arial, sans-serif" font-size="12" fill="#475569">The space canopy is shifted right 3 units and stretched vertically by a factor of 2.</text>
    </g>
  </g>
</svg>
