<?xml version="1.0" encoding="UTF-8"?>
<svg xmlns="http://www.w3.org/2000/svg" width="1200" height="620" viewBox="0 0 1200 620" fill="none">
<rect width="1200" height="620" fill="#f8fafc"/>
<g transform="translate(20, 20)">
    <g>
      <rect width="1160" height="580" rx="18" fill="#ffffff" stroke="#cbd5e1" stroke-width="2"/>
      <text x="580" y="26" text-anchor="middle" font-family="Arial, sans-serif" font-size="19" font-weight="700" fill="#0f172a">Check-in #2: y = -(1/4)x²</text>
      <text x="580" y="44" text-anchor="middle" font-family="Arial, sans-serif" font-size="12" fill="#475569">Five representative points for graphing the parabola</text>
      
      <line x1="58.00" y1="52" x2="58.00" y2="538" stroke="#e2e8f0" stroke-width="1"/><text x="58.00" y="566" text-anchor="middle" font-family="Arial, sans-serif" font-size="11" fill="#475569">-8</text><line x1="193.25" y1="52" x2="193.25" y2="538" stroke="#e2e8f0" stroke-width="1"/><text x="193.25" y="566" text-anchor="middle" font-family="Arial, sans-serif" font-size="11" fill="#475569">-6</text><line x1="328.50" y1="52" x2="328.50" y2="538" stroke="#e2e8f0" stroke-width="1"/><text x="328.50" y="566" text-anchor="middle" font-family="Arial, sans-serif" font-size="11" fill="#475569">-4</text><line x1="463.75" y1="52" x2="463.75" y2="538" stroke="#e2e8f0" stroke-width="1"/><text x="463.75" y="566" text-anchor="middle" font-family="Arial, sans-serif" font-size="11" fill="#475569">-2</text><line x1="599.00" y1="52" x2="599.00" y2="538" stroke="#e2e8f0" stroke-width="1"/><line x1="734.25" y1="52" x2="734.25" y2="538" stroke="#e2e8f0" stroke-width="1"/><text x="734.25" y="566" text-anchor="middle" font-family="Arial, sans-serif" font-size="11" fill="#475569">2</text><line x1="869.50" y1="52" x2="869.50" y2="538" stroke="#e2e8f0" stroke-width="1"/><text x="869.50" y="566" text-anchor="middle" font-family="Arial, sans-serif" font-size="11" fill="#475569">4</text><line x1="1004.75" y1="52" x2="1004.75" y2="538" stroke="#e2e8f0" stroke-width="1"/><text x="1004.75" y="566" text-anchor="middle" font-family="Arial, sans-serif" font-size="11" fill="#475569">6</text><line x1="1140.00" y1="52" x2="1140.00" y2="538" stroke="#e2e8f0" stroke-width="1"/><text x="1140.00" y="566" text-anchor="middle" font-family="Arial, sans-serif" font-size="11" fill="#475569">8</text><line x1="58" y1="538.00" x2="1140" y2="538.00" stroke="#e2e8f0" stroke-width="1"/><text x="48" y="542.00" text-anchor="end" font-family="Arial, sans-serif" font-size="11" fill="#475569">-18</text><line x1="58" y1="489.40" x2="1140" y2="489.40" stroke="#e2e8f0" stroke-width="1"/><text x="48" y="493.40" text-anchor="end" font-family="Arial, sans-serif" font-size="11" fill="#475569">-16</text><line x1="58" y1="440.80" x2="1140" y2="440.80" stroke="#e2e8f0" stroke-width="1"/><text x="48" y="444.80" text-anchor="end" font-family="Arial, sans-serif" font-size="11" fill="#475569">-14</text><line x1="58" y1="392.20" x2="1140" y2="392.20" stroke="#e2e8f0" stroke-width="1"/><text x="48" y="396.20" text-anchor="end" font-family="Arial, sans-serif" font-size="11" fill="#475569">-12</text><line x1="58" y1="343.60" x2="1140" y2="343.60" stroke="#e2e8f0" stroke-width="1"/><text x="48" y="347.60" text-anchor="end" font-family="Arial, sans-serif" font-size="11" fill="#475569">-10</text><line x1="58" y1="295.00" x2="1140" y2="295.00" stroke="#e2e8f0" stroke-width="1"/><text x="48" y="299.00" text-anchor="end" font-family="Arial, sans-serif" font-size="11" fill="#475569">-8</text><line x1="58" y1="246.40" x2="1140" y2="246.40" stroke="#e2e8f0" stroke-width="1"/><text x="48" y="250.40" text-anchor="end" font-family="Arial, sans-serif" font-size="11" fill="#475569">-6</text><line x1="58" y1="197.80" x2="1140" y2="197.80" stroke="#e2e8f0" stroke-width="1"/><text x="48" y="201.80" text-anchor="end" font-family="Arial, sans-serif" font-size="11" fill="#475569">-4</text><line x1="58" y1="149.20" x2="1140" y2="149.20" stroke="#e2e8f0" stroke-width="1"/><text x="48" y="153.20" text-anchor="end" font-family="Arial, sans-serif" font-size="11" fill="#475569">-2</text><line x1="58" y1="100.60" x2="1140" y2="100.60" stroke="#e2e8f0" stroke-width="1"/><line x1="58" y1="52.00" x2="1140" y2="52.00" stroke="#e2e8f0" stroke-width="1"/><text x="48" y="56.00" text-anchor="end" font-family="Arial, sans-serif" font-size="11" fill="#475569">2</text>
      <line x1="599.00" y1="52" x2="599.00" y2="538" stroke="#0f172a" stroke-width="1.8"/><line x1="58" y1="100.60" x2="1140" y2="100.60" stroke="#0f172a" stroke-width="1.8"/>
      <polyline points="58.00,489.40 61.86,483.87 65.73,478.37 69.59,472.92 73.46,467.50 77.32,462.12 81.19,456.79 85.05,451.49 88.91,446.24 92.78,441.02 96.64,435.84 100.51,430.70 104.37,425.61 108.24,420.55 112.10,415.53 115.96,410.55 119.83,405.61 123.69,400.71 127.56,395.85 131.42,391.03 135.29,386.25 139.15,381.51 143.01,376.81 146.88,372.15 150.74,367.52 154.61,362.94 158.47,358.40 162.34,353.90 166.20,349.43 170.06,345.01 173.93,340.62 177.79,336.28 181.66,331.98 185.52,327.71 189.39,323.49 193.25,319.30 197.11,315.15 200.98,311.05 204.84,306.98 208.71,302.95 212.57,298.97 216.44,295.02 220.30,291.11 224.16,287.24 228.03,283.42 231.89,279.63 235.76,275.88 239.62,272.17 243.49,268.50 247.35,264.87 251.21,261.28 255.08,257.73 258.94,254.22 262.81,250.74 266.67,247.31 270.54,243.92 274.40,240.57 278.26,237.26 282.13,233.98 285.99,230.75 289.86,227.56 293.72,224.40 297.59,221.29 301.45,218.21 305.31,215.18 309.18,212.18 313.04,209.23 316.91,206.31 320.77,203.43 324.64,200.60 328.50,197.80 332.36,195.04 336.23,192.33 340.09,189.65 343.96,187.01 347.82,184.41 351.69,181.85 355.55,179.33 359.41,176.85 363.28,174.41 367.14,172.01 371.01,169.65 374.87,167.33 378.74,165.05 382.60,162.81 386.46,160.61 390.33,158.44 394.19,156.32 398.06,154.24 401.92,152.20 405.79,150.19 409.65,148.23 413.51,146.30 417.38,144.42 421.24,142.57 425.11,140.77 428.97,139.00 432.84,137.28 436.70,135.59 440.56,133.95 444.43,132.34 448.29,130.77 452.16,129.24 456.02,127.76 459.89,126.31 463.75,124.90 467.61,123.53 471.48,122.20 475.34,120.91 479.21,119.66 483.07,118.45 486.94,117.28 490.80,116.15 494.66,115.06 498.53,114.01 502.39,113.00 506.26,112.03 510.12,111.09 513.99,110.20 517.85,109.35 521.71,108.53 525.58,107.76 529.44,107.03 533.31,106.33 537.17,105.68 541.04,105.06 544.90,104.49 548.76,103.95 552.63,103.46 556.49,103.00 560.36,102.58 564.22,102.21 568.09,101.87 571.95,101.57 575.81,101.31 579.68,101.10 583.54,100.92 587.41,100.78 591.27,100.68 595.14,100.62 599.00,100.60 602.86,100.62 606.73,100.68 610.59,100.78 614.46,100.92 618.32,101.10 622.19,101.31 626.05,101.57 629.91,101.87 633.78,102.21 637.64,102.58 641.51,103.00 645.37,103.46 649.24,103.95 653.10,104.49 656.96,105.06 660.83,105.68 664.69,106.33 668.56,107.03 672.42,107.76 676.29,108.53 680.15,109.35 684.01,110.20 687.88,111.09 691.74,112.03 695.61,113.00 699.47,114.01 703.34,115.06 707.20,116.15 711.06,117.28 714.93,118.45 718.79,119.66 722.66,120.91 726.52,122.20 730.39,123.53 734.25,124.90 738.11,126.31 741.98,127.76 745.84,129.24 749.71,130.77 753.57,132.34 757.44,133.95 761.30,135.59 765.16,137.28 769.03,139.00 772.89,140.77 776.76,142.57 780.62,144.42 784.49,146.30 788.35,148.23 792.21,150.19 796.08,152.20 799.94,154.24 803.81,156.32 807.67,158.44 811.54,160.61 815.40,162.81 819.26,165.05 823.13,167.33 826.99,169.65 830.86,172.01 834.72,174.41 838.59,176.85 842.45,179.33 846.31,181.85 850.18,184.41 854.04,187.01 857.91,189.65 861.77,192.33 865.64,195.04 869.50,197.80 873.36,200.60 877.23,203.43 881.09,206.31 884.96,209.23 888.82,212.18 892.69,215.18 896.55,218.21 900.41,221.29 904.28,224.40 908.14,227.56 912.01,230.75 915.87,233.98 919.74,237.26 923.60,240.57 927.46,243.92 931.33,247.31 935.19,250.74 939.06,254.22 942.92,257.73 946.79,261.28 950.65,264.87 954.51,268.50 958.38,272.17 962.24,275.88 966.11,279.63 969.97,283.42 973.84,287.24 977.70,291.11 981.56,295.02 985.43,298.97 989.29,302.95 993.16,306.98 997.02,311.05 1000.89,315.15 1004.75,319.30 1008.61,323.49 1012.48,327.71 1016.34,331.98 1020.21,336.28 1024.07,340.62 1027.94,345.01 1031.80,349.43 1035.66,353.90 1039.53,358.40 1043.39,362.94 1047.26,367.52 1051.12,372.15 1054.99,376.81 1058.85,381.51 1062.71,386.25 1066.58,391.03 1070.44,395.85 1074.31,400.71 1078.17,405.61 1082.04,410.55 1085.90,415.53 1089.76,420.55 1093.63,425.61 1097.49,430.70 1101.36,435.84 1105.22,441.02 1109.09,446.24 1112.95,451.49 1116.81,456.79 1120.68,462.12 1124.54,467.50 1128.41,472.92 1132.27,478.37 1136.14,483.87 1140.00,489.40" fill="none" stroke="#2563eb" stroke-width="3" />
      <circle cx="58.00" cy="489.40" r="4.5" fill="#dc2626" stroke="#ffffff" stroke-width="2"/><text x="68.00" y="479.40" font-family="Arial, sans-serif" font-size="12" fill="#dc2626">(-8, -16)</text><circle cx="328.50" cy="197.80" r="4.5" fill="#dc2626" stroke="#ffffff" stroke-width="2"/><text x="338.50" y="187.80" font-family="Arial, sans-serif" font-size="12" fill="#dc2626">(-4, -4)</text><circle cx="599.00" cy="100.60" r="4.5" fill="#dc2626" stroke="#ffffff" stroke-width="2"/><text x="525.00" y="90.60" font-family="Arial, sans-serif" font-size="12" fill="#dc2626">(0, 0)</text><circle cx="869.50" cy="197.80" r="4.5" fill="#dc2626" stroke="#ffffff" stroke-width="2"/><text x="795.50" y="187.80" font-family="Arial, sans-serif" font-size="12" fill="#dc2626">(4, -4)</text><circle cx="1140.00" cy="489.40" r="4.5" fill="#dc2626" stroke="#ffffff" stroke-width="2"/><text x="1066.00" y="479.40" font-family="Arial, sans-serif" font-size="12" fill="#dc2626">(8, -16)</text>
      
      <text x="580" y="568" text-anchor="middle" font-family="Arial, sans-serif" font-size="12" fill="#475569">Axis of symmetry: x = 0. Vertex: (0, 0).</text>
    </g>
  </g>
</svg>
