<?xml version="1.0" encoding="UTF-8"?>
<svg xmlns="http://www.w3.org/2000/svg" width="1200" height="620" viewBox="0 0 1200 620" fill="none">
<rect width="1200" height="620" fill="#f8fafc"/>
<g transform="translate(20, 20)">
    <g>
      <rect width="1160" height="580" rx="18" fill="#ffffff" stroke="#cbd5e1" stroke-width="2"/>
      <text x="580" y="26" text-anchor="middle" font-family="Arial, sans-serif" font-size="19" font-weight="700" fill="#0f172a">Check-in #2: f(x) = 0.5(x - 3)²</text>
      <text x="580" y="44" text-anchor="middle" font-family="Arial, sans-serif" font-size="12" fill="#475569">Sample points from the source table</text>
      
      <line x1="58.00" y1="52" x2="58.00" y2="538" stroke="#e2e8f0" stroke-width="1"/><text x="58.00" y="566" text-anchor="middle" font-family="Arial, sans-serif" font-size="11" fill="#475569">-1</text><line x1="193.25" y1="52" x2="193.25" y2="538" stroke="#e2e8f0" stroke-width="1"/><line x1="328.50" y1="52" x2="328.50" y2="538" stroke="#e2e8f0" stroke-width="1"/><text x="328.50" y="566" text-anchor="middle" font-family="Arial, sans-serif" font-size="11" fill="#475569">1</text><line x1="463.75" y1="52" x2="463.75" y2="538" stroke="#e2e8f0" stroke-width="1"/><text x="463.75" y="566" text-anchor="middle" font-family="Arial, sans-serif" font-size="11" fill="#475569">2</text><line x1="599.00" y1="52" x2="599.00" y2="538" stroke="#e2e8f0" stroke-width="1"/><text x="599.00" y="566" text-anchor="middle" font-family="Arial, sans-serif" font-size="11" fill="#475569">3</text><line x1="734.25" y1="52" x2="734.25" y2="538" stroke="#e2e8f0" stroke-width="1"/><text x="734.25" y="566" text-anchor="middle" font-family="Arial, sans-serif" font-size="11" fill="#475569">4</text><line x1="869.50" y1="52" x2="869.50" y2="538" stroke="#e2e8f0" stroke-width="1"/><text x="869.50" y="566" text-anchor="middle" font-family="Arial, sans-serif" font-size="11" fill="#475569">5</text><line x1="1004.75" y1="52" x2="1004.75" y2="538" stroke="#e2e8f0" stroke-width="1"/><text x="1004.75" y="566" text-anchor="middle" font-family="Arial, sans-serif" font-size="11" fill="#475569">6</text><line x1="1140.00" y1="52" x2="1140.00" y2="538" stroke="#e2e8f0" stroke-width="1"/><text x="1140.00" y="566" text-anchor="middle" font-family="Arial, sans-serif" font-size="11" fill="#475569">7</text><line x1="58" y1="538.00" x2="1140" y2="538.00" stroke="#e2e8f0" stroke-width="1"/><line x1="58" y1="477.25" x2="1140" y2="477.25" stroke="#e2e8f0" stroke-width="1"/><text x="48" y="481.25" text-anchor="end" font-family="Arial, sans-serif" font-size="11" fill="#475569">1</text><line x1="58" y1="416.50" x2="1140" y2="416.50" stroke="#e2e8f0" stroke-width="1"/><text x="48" y="420.50" text-anchor="end" font-family="Arial, sans-serif" font-size="11" fill="#475569">2</text><line x1="58" y1="355.75" x2="1140" y2="355.75" stroke="#e2e8f0" stroke-width="1"/><text x="48" y="359.75" text-anchor="end" font-family="Arial, sans-serif" font-size="11" fill="#475569">3</text><line x1="58" y1="295.00" x2="1140" y2="295.00" stroke="#e2e8f0" stroke-width="1"/><text x="48" y="299.00" text-anchor="end" font-family="Arial, sans-serif" font-size="11" fill="#475569">4</text><line x1="58" y1="234.25" x2="1140" y2="234.25" stroke="#e2e8f0" stroke-width="1"/><text x="48" y="238.25" text-anchor="end" font-family="Arial, sans-serif" font-size="11" fill="#475569">5</text><line x1="58" y1="173.50" x2="1140" y2="173.50" stroke="#e2e8f0" stroke-width="1"/><text x="48" y="177.50" text-anchor="end" font-family="Arial, sans-serif" font-size="11" fill="#475569">6</text><line x1="58" y1="112.75" x2="1140" y2="112.75" stroke="#e2e8f0" stroke-width="1"/><text x="48" y="116.75" text-anchor="end" font-family="Arial, sans-serif" font-size="11" fill="#475569">7</text><line x1="58" y1="52.00" x2="1140" y2="52.00" stroke="#e2e8f0" stroke-width="1"/><text x="48" y="56.00" text-anchor="end" font-family="Arial, sans-serif" font-size="11" fill="#475569">8</text>
      <line x1="193.25" y1="52" x2="193.25" y2="538" stroke="#0f172a" stroke-width="1.8"/><line x1="58" y1="538.00" x2="1140" y2="538.00" stroke="#0f172a" stroke-width="1.8"/>
      <polyline points="58.00,52.00 61.86,58.92 65.73,65.79 69.59,72.61 73.46,79.37 77.32,86.09 81.19,92.76 85.05,99.38 88.91,105.96 92.78,112.48 96.64,118.95 100.51,125.37 104.37,131.74 108.24,138.07 112.10,144.34 115.96,150.56 119.83,156.74 123.69,162.86 127.56,168.94 131.42,174.96 135.29,180.94 139.15,186.87 143.01,192.74 146.88,198.57 150.74,204.35 154.61,210.07 158.47,215.75 162.34,221.38 166.20,226.96 170.06,232.49 173.93,237.97 177.79,243.40 181.66,248.78 185.52,254.11 189.39,259.39 193.25,264.63 197.11,269.81 200.98,274.94 204.84,280.02 208.71,285.06 212.57,290.04 216.44,294.98 220.30,299.86 224.16,304.70 228.03,309.48 231.89,314.22 235.76,318.90 239.62,323.54 243.49,328.13 247.35,332.66 251.21,337.15 255.08,341.59 258.94,345.98 262.81,350.32 266.67,354.61 270.54,358.85 274.40,363.04 278.26,367.18 282.13,371.27 285.99,375.31 289.86,379.31 293.72,383.25 297.59,387.14 301.45,390.99 305.31,394.78 309.18,398.52 313.04,402.22 316.91,405.86 320.77,409.46 324.64,413.00 328.50,416.50 332.36,419.95 336.23,423.34 340.09,426.69 343.96,429.99 347.82,433.24 351.69,436.44 355.55,439.59 359.41,442.68 363.28,445.73 367.14,448.73 371.01,451.69 374.87,454.59 378.74,457.44 382.60,460.24 386.46,462.99 390.33,465.70 394.19,468.35 398.06,470.95 401.92,473.51 405.79,476.01 409.65,478.47 413.51,480.87 417.38,483.23 421.24,485.53 425.11,487.79 428.97,490.00 432.84,492.15 436.70,494.26 440.56,496.32 444.43,498.33 448.29,500.29 452.16,502.19 456.02,504.05 459.89,505.86 463.75,507.63 467.61,509.34 471.48,511.00 475.34,512.61 479.21,514.17 483.07,515.68 486.94,517.15 490.80,518.56 494.66,519.92 498.53,521.24 502.39,522.50 506.26,523.72 510.12,524.88 513.99,526.00 517.85,527.07 521.71,528.08 525.58,529.05 529.44,529.97 533.31,530.83 537.17,531.65 541.04,532.42 544.90,533.14 548.76,533.81 552.63,534.43 556.49,535.00 560.36,535.52 564.22,535.99 568.09,536.41 571.95,536.78 575.81,537.11 579.68,537.38 583.54,537.60 587.41,537.78 591.27,537.90 595.14,537.98 599.00,538.00 602.86,537.98 606.73,537.90 610.59,537.78 614.46,537.60 618.32,537.38 622.19,537.11 626.05,536.78 629.91,536.41 633.78,535.99 637.64,535.52 641.51,535.00 645.37,534.43 649.24,533.81 653.10,533.14 656.96,532.42 660.83,531.65 664.69,530.83 668.56,529.97 672.42,529.05 676.29,528.08 680.15,527.07 684.01,526.00 687.88,524.88 691.74,523.72 695.61,522.50 699.47,521.24 703.34,519.92 707.20,518.56 711.06,517.15 714.93,515.68 718.79,514.17 722.66,512.61 726.52,511.00 730.39,509.34 734.25,507.63 738.11,505.86 741.98,504.05 745.84,502.19 749.71,500.29 753.57,498.33 757.44,496.32 761.30,494.26 765.16,492.15 769.03,490.00 772.89,487.79 776.76,485.53 780.62,483.23 784.49,480.87 788.35,478.46 792.21,476.01 796.08,473.51 799.94,470.95 803.81,468.35 807.67,465.70 811.54,462.99 815.40,460.24 819.26,457.44 823.13,454.59 826.99,451.69 830.86,448.73 834.72,445.73 838.59,442.68 842.45,439.59 846.31,436.44 850.18,433.24 854.04,429.99 857.91,426.69 861.77,423.34 865.64,419.95 869.50,416.50 873.36,413.00 877.23,409.46 881.09,405.86 884.96,402.22 888.82,398.52 892.69,394.78 896.55,390.99 900.41,387.14 904.28,383.25 908.14,379.31 912.01,375.31 915.87,371.27 919.74,367.18 923.60,363.04 927.46,358.85 931.33,354.61 935.19,350.32 939.06,345.98 942.92,341.59 946.79,337.15 950.65,332.67 954.51,328.13 958.38,323.54 962.24,318.90 966.11,314.22 969.97,309.48 973.84,304.70 977.70,299.86 981.56,294.98 985.43,290.04 989.29,285.06 993.16,280.02 997.02,274.94 1000.89,269.81 1004.75,264.63 1008.61,259.39 1012.48,254.11 1016.34,248.78 1020.21,243.40 1024.07,237.97 1027.94,232.49 1031.80,226.96 1035.66,221.38 1039.53,215.75 1043.39,210.07 1047.26,204.35 1051.12,198.57 1054.99,192.74 1058.85,186.86 1062.71,180.94 1066.58,174.96 1070.44,168.94 1074.31,162.86 1078.17,156.74 1082.04,150.56 1085.90,144.34 1089.76,138.07 1093.63,131.74 1097.49,125.37 1101.36,118.95 1105.22,112.48 1109.09,105.96 1112.95,99.38 1116.81,92.76 1120.68,86.09 1124.54,79.37 1128.41,72.61 1132.27,65.79 1136.14,58.92 1140.00,52.00" fill="none" stroke="#2563eb" stroke-width="3" />
      <circle cx="193.25" cy="264.63" r="4.5" fill="#dc2626" stroke="#ffffff" stroke-width="2"/><text x="201.25" y="256.63" font-family="Arial, sans-serif" font-size="12" fill="#dc2626">(0, 4.5)</text><circle cx="328.50" cy="416.50" r="4.5" fill="#dc2626" stroke="#ffffff" stroke-width="2"/><text x="336.50" y="408.50" font-family="Arial, sans-serif" font-size="12" fill="#dc2626">(1, 2)</text><circle cx="599.00" cy="538.00" r="4.5" fill="#dc2626" stroke="#ffffff" stroke-width="2"/><text x="607.00" y="530.00" font-family="Arial, sans-serif" font-size="12" fill="#dc2626">(3, 0)</text><circle cx="869.50" cy="416.50" r="4.5" fill="#dc2626" stroke="#ffffff" stroke-width="2"/><text x="821.50" y="408.50" font-family="Arial, sans-serif" font-size="12" fill="#dc2626">(5, 2)</text><circle cx="1004.75" cy="264.63" r="4.5" fill="#dc2626" stroke="#ffffff" stroke-width="2"/><text x="950.75" y="256.63" font-family="Arial, sans-serif" font-size="12" fill="#dc2626">(6, 4.5)</text>
      
      <text x="580" y="568" text-anchor="middle" font-family="Arial, sans-serif" font-size="12" fill="#475569">Domain: (-∞, ∞). Range: [0, ∞). The graph decreases to x = 3 and increases after x = 3.</text>
    </g>
  </g>
</svg>
