<?xml version="1.0" encoding="UTF-8"?>
<svg xmlns="http://www.w3.org/2000/svg" width="1180" height="420" viewBox="0 0 1180 420" fill="none">
<rect width="1180" height="420" fill="#f8fafc"/>
<g transform="translate(20, 20)">
    <g>
      <rect width="560" height="360" rx="18" fill="#ffffff" stroke="#cbd5e1" stroke-width="2"/>
      <text x="280" y="26" text-anchor="middle" font-family="Arial, sans-serif" font-size="19" font-weight="700" fill="#0f172a">Ride Path in Vertex Form</text>
      <text x="280" y="44" text-anchor="middle" font-family="Arial, sans-serif" font-size="12" fill="#475569">y = 1.5(x - 30)^2 + 3</text>
      
      <line x1="58.00" y1="52" x2="58.00" y2="318" stroke="#e2e8f0" stroke-width="1"/><text x="58.00" y="346" text-anchor="middle" font-family="Arial, sans-serif" font-size="11" fill="#475569">22</text><line x1="118.25" y1="52" x2="118.25" y2="318" stroke="#e2e8f0" stroke-width="1"/><text x="118.25" y="346" text-anchor="middle" font-family="Arial, sans-serif" font-size="11" fill="#475569">24</text><line x1="178.50" y1="52" x2="178.50" y2="318" stroke="#e2e8f0" stroke-width="1"/><text x="178.50" y="346" text-anchor="middle" font-family="Arial, sans-serif" font-size="11" fill="#475569">26</text><line x1="238.75" y1="52" x2="238.75" y2="318" stroke="#e2e8f0" stroke-width="1"/><text x="238.75" y="346" text-anchor="middle" font-family="Arial, sans-serif" font-size="11" fill="#475569">28</text><line x1="299.00" y1="52" x2="299.00" y2="318" stroke="#e2e8f0" stroke-width="1"/><text x="299.00" y="346" text-anchor="middle" font-family="Arial, sans-serif" font-size="11" fill="#475569">30</text><line x1="359.25" y1="52" x2="359.25" y2="318" stroke="#e2e8f0" stroke-width="1"/><text x="359.25" y="346" text-anchor="middle" font-family="Arial, sans-serif" font-size="11" fill="#475569">32</text><line x1="419.50" y1="52" x2="419.50" y2="318" stroke="#e2e8f0" stroke-width="1"/><text x="419.50" y="346" text-anchor="middle" font-family="Arial, sans-serif" font-size="11" fill="#475569">34</text><line x1="479.75" y1="52" x2="479.75" y2="318" stroke="#e2e8f0" stroke-width="1"/><text x="479.75" y="346" text-anchor="middle" font-family="Arial, sans-serif" font-size="11" fill="#475569">36</text><line x1="540.00" y1="52" x2="540.00" y2="318" stroke="#e2e8f0" stroke-width="1"/><text x="540.00" y="346" text-anchor="middle" font-family="Arial, sans-serif" font-size="11" fill="#475569">38</text><line x1="58" y1="318.00" x2="540" y2="318.00" stroke="#e2e8f0" stroke-width="1"/><line x1="58" y1="284.75" x2="540" y2="284.75" stroke="#e2e8f0" stroke-width="1"/><text x="48" y="288.75" text-anchor="end" font-family="Arial, sans-serif" font-size="11" fill="#475569">6</text><line x1="58" y1="251.50" x2="540" y2="251.50" stroke="#e2e8f0" stroke-width="1"/><text x="48" y="255.50" text-anchor="end" font-family="Arial, sans-serif" font-size="11" fill="#475569">12</text><line x1="58" y1="218.25" x2="540" y2="218.25" stroke="#e2e8f0" stroke-width="1"/><text x="48" y="222.25" text-anchor="end" font-family="Arial, sans-serif" font-size="11" fill="#475569">18</text><line x1="58" y1="185.00" x2="540" y2="185.00" stroke="#e2e8f0" stroke-width="1"/><text x="48" y="189.00" text-anchor="end" font-family="Arial, sans-serif" font-size="11" fill="#475569">24</text><line x1="58" y1="151.75" x2="540" y2="151.75" stroke="#e2e8f0" stroke-width="1"/><text x="48" y="155.75" text-anchor="end" font-family="Arial, sans-serif" font-size="11" fill="#475569">30</text><line x1="58" y1="118.50" x2="540" y2="118.50" stroke="#e2e8f0" stroke-width="1"/><text x="48" y="122.50" text-anchor="end" font-family="Arial, sans-serif" font-size="11" fill="#475569">36</text><line x1="58" y1="85.25" x2="540" y2="85.25" stroke="#e2e8f0" stroke-width="1"/><text x="48" y="89.25" text-anchor="end" font-family="Arial, sans-serif" font-size="11" fill="#475569">42</text><line x1="58" y1="52.00" x2="540" y2="52.00" stroke="#e2e8f0" stroke-width="1"/><text x="48" y="56.00" text-anchor="end" font-family="Arial, sans-serif" font-size="11" fill="#475569">48</text>
      <line x1="58" y1="318.00" x2="540" y2="318.00" stroke="#0f172a" stroke-width="1.8"/>
      <polyline points="118.25,2.13 119.97,7.80 121.69,13.42 123.41,18.98 125.14,24.49 126.86,29.95 128.58,35.35 130.30,40.69 132.02,45.99 133.74,51.23 135.46,56.41 137.19,61.54 138.91,66.62 140.63,71.64 142.35,76.61 144.07,81.52 145.79,86.38 147.51,91.18 149.24,95.93 150.96,100.63 152.68,105.27 154.40,109.85 156.12,114.39 157.84,118.87 159.56,123.29 161.29,127.66 163.01,131.98 164.73,136.24 166.45,140.45 168.17,144.60 169.89,148.70 171.61,152.74 173.34,156.73 175.06,160.67 176.78,164.55 178.50,168.38 180.22,172.15 181.94,175.87 183.66,179.53 185.39,183.14 187.11,186.70 188.83,190.20 190.55,193.64 192.27,197.04 193.99,200.38 195.71,203.66 197.44,206.89 199.16,210.07 200.88,213.19 202.60,216.26 204.32,219.27 206.04,222.23 207.76,225.13 209.49,227.98 211.21,230.78 212.93,233.52 214.65,236.20 216.37,238.84 218.09,241.42 219.81,243.94 221.54,246.41 223.26,248.83 224.98,251.19 226.70,253.50 228.42,255.75 230.14,257.95 231.86,260.09 233.59,262.18 235.31,264.22 237.03,266.20 238.75,268.13 240.47,270.00 242.19,271.82 243.91,273.58 245.64,275.29 247.36,276.95 249.08,278.55 250.80,280.09 252.52,281.59 254.24,283.03 255.96,284.41 257.69,285.74 259.41,287.02 261.13,288.24 262.85,289.41 264.57,290.52 266.29,291.58 268.01,292.58 269.74,293.53 271.46,294.43 273.18,295.27 274.90,296.06 276.62,296.79 278.34,297.47 280.06,298.09 281.79,298.66 283.51,299.18 285.23,299.64 286.95,300.05 288.67,300.40 290.39,300.70 292.11,300.94 293.84,301.13 295.56,301.27 297.28,301.35 299.00,301.38 300.72,301.35 302.44,301.27 304.16,301.13 305.89,300.94 307.61,300.70 309.33,300.40 311.05,300.05 312.77,299.64 314.49,299.18 316.21,298.66 317.94,298.09 319.66,297.47 321.38,296.79 323.10,296.06 324.82,295.27 326.54,294.43 328.26,293.53 329.99,292.58 331.71,291.58 333.43,290.52 335.15,289.41 336.87,288.24 338.59,287.02 340.31,285.74 342.04,284.41 343.76,283.03 345.48,281.59 347.20,280.09 348.92,278.55 350.64,276.95 352.36,275.29 354.09,273.58 355.81,271.82 357.53,270.00 359.25,268.13 360.97,266.20 362.69,264.22 364.41,262.18 366.14,260.09 367.86,257.95 369.58,255.75 371.30,253.50 373.02,251.19 374.74,248.83 376.46,246.41 378.19,243.94 379.91,241.42 381.63,238.84 383.35,236.21 385.07,233.52 386.79,230.78 388.51,227.98 390.24,225.13 391.96,222.23 393.68,219.27 395.40,216.25 397.12,213.19 398.84,210.07 400.56,206.89 402.29,203.66 404.01,200.38 405.73,197.04 407.45,193.64 409.17,190.20 410.89,186.70 412.61,183.14 414.34,179.53 416.06,175.87 417.78,172.15 419.50,168.38 421.22,164.55 422.94,160.67 424.66,156.73 426.39,152.74 428.11,148.70 429.83,144.60 431.55,140.45 433.27,136.24 434.99,131.98 436.71,127.66 438.44,123.29 440.16,118.87 441.88,114.39 443.60,109.86 445.32,105.27 447.04,100.63 448.76,95.93 450.49,91.18 452.21,86.38 453.93,81.52 455.65,76.60 457.37,71.64 459.09,66.62 460.81,61.54 462.54,56.41 464.26,51.23 465.98,45.99 467.70,40.69 469.42,35.35 471.14,29.95 472.86,24.49 474.59,18.98 476.31,13.42 478.03,7.80 479.75,2.13" fill="none" stroke="#2563eb" stroke-width="3" />
      <circle cx="299.00" cy="301.38" r="4.5" fill="#dc2626" stroke="#ffffff" stroke-width="2"/><text x="307.00" y="293.38" font-family="Arial, sans-serif" font-size="12" fill="#dc2626">(30, 3)</text><circle cx="148.38" cy="93.56" r="4.5" fill="#059669" stroke="#ffffff" stroke-width="2"/><text x="158.38" y="83.56" font-family="Arial, sans-serif" font-size="12" fill="#059669">(25, 40.5)</text><circle cx="449.63" cy="93.56" r="4.5" fill="#059669" stroke="#ffffff" stroke-width="2"/><text x="363.63" y="83.56" font-family="Arial, sans-serif" font-size="12" fill="#059669">(35, 40.5)</text>
      
      <text x="280" y="348" text-anchor="middle" font-family="Arial, sans-serif" font-size="12" fill="#475569">Use the vertex and one additional point to solve for a.</text>
    </g>
  </g><g transform="translate(600, 20)">
    <g>
      <rect width="560" height="360" rx="18" fill="#ffffff" stroke="#cbd5e1" stroke-width="2"/>
      <text x="280" y="26" text-anchor="middle" font-family="Arial, sans-serif" font-size="19" font-weight="700" fill="#0f172a">Transformation Comparison</text>
      <text x="280" y="44" text-anchor="middle" font-family="Arial, sans-serif" font-size="12" fill="#475569">Original, three-times steeper, and half as steep</text>
      <line x1="64" y1="24" x2="84" y2="24" stroke="#2563eb" stroke-width="3" /><text x="92" y="28" font-family="Arial, sans-serif" font-size="12" fill="#334155">original</text><line x1="64" y1="44" x2="84" y2="44" stroke="#dc2626" stroke-width="3" /><text x="92" y="48" font-family="Arial, sans-serif" font-size="12" fill="#334155">3x steeper</text><line x1="64" y1="64" x2="84" y2="64" stroke="#059669" stroke-width="3" /><text x="92" y="68" font-family="Arial, sans-serif" font-size="12" fill="#334155">half as steep</text>
      <line x1="58.00" y1="52" x2="58.00" y2="318" stroke="#e2e8f0" stroke-width="1"/><text x="58.00" y="346" text-anchor="middle" font-family="Arial, sans-serif" font-size="11" fill="#475569">22</text><line x1="118.25" y1="52" x2="118.25" y2="318" stroke="#e2e8f0" stroke-width="1"/><text x="118.25" y="346" text-anchor="middle" font-family="Arial, sans-serif" font-size="11" fill="#475569">24</text><line x1="178.50" y1="52" x2="178.50" y2="318" stroke="#e2e8f0" stroke-width="1"/><text x="178.50" y="346" text-anchor="middle" font-family="Arial, sans-serif" font-size="11" fill="#475569">26</text><line x1="238.75" y1="52" x2="238.75" y2="318" stroke="#e2e8f0" stroke-width="1"/><text x="238.75" y="346" text-anchor="middle" font-family="Arial, sans-serif" font-size="11" fill="#475569">28</text><line x1="299.00" y1="52" x2="299.00" y2="318" stroke="#e2e8f0" stroke-width="1"/><text x="299.00" y="346" text-anchor="middle" font-family="Arial, sans-serif" font-size="11" fill="#475569">30</text><line x1="359.25" y1="52" x2="359.25" y2="318" stroke="#e2e8f0" stroke-width="1"/><text x="359.25" y="346" text-anchor="middle" font-family="Arial, sans-serif" font-size="11" fill="#475569">32</text><line x1="419.50" y1="52" x2="419.50" y2="318" stroke="#e2e8f0" stroke-width="1"/><text x="419.50" y="346" text-anchor="middle" font-family="Arial, sans-serif" font-size="11" fill="#475569">34</text><line x1="479.75" y1="52" x2="479.75" y2="318" stroke="#e2e8f0" stroke-width="1"/><text x="479.75" y="346" text-anchor="middle" font-family="Arial, sans-serif" font-size="11" fill="#475569">36</text><line x1="540.00" y1="52" x2="540.00" y2="318" stroke="#e2e8f0" stroke-width="1"/><text x="540.00" y="346" text-anchor="middle" font-family="Arial, sans-serif" font-size="11" fill="#475569">38</text><line x1="58" y1="318.00" x2="540" y2="318.00" stroke="#e2e8f0" stroke-width="1"/><line x1="58" y1="284.75" x2="540" y2="284.75" stroke="#e2e8f0" stroke-width="1"/><text x="48" y="288.75" text-anchor="end" font-family="Arial, sans-serif" font-size="11" fill="#475569">6</text><line x1="58" y1="251.50" x2="540" y2="251.50" stroke="#e2e8f0" stroke-width="1"/><text x="48" y="255.50" text-anchor="end" font-family="Arial, sans-serif" font-size="11" fill="#475569">12</text><line x1="58" y1="218.25" x2="540" y2="218.25" stroke="#e2e8f0" stroke-width="1"/><text x="48" y="222.25" text-anchor="end" font-family="Arial, sans-serif" font-size="11" fill="#475569">18</text><line x1="58" y1="185.00" x2="540" y2="185.00" stroke="#e2e8f0" stroke-width="1"/><text x="48" y="189.00" text-anchor="end" font-family="Arial, sans-serif" font-size="11" fill="#475569">24</text><line x1="58" y1="151.75" x2="540" y2="151.75" stroke="#e2e8f0" stroke-width="1"/><text x="48" y="155.75" text-anchor="end" font-family="Arial, sans-serif" font-size="11" fill="#475569">30</text><line x1="58" y1="118.50" x2="540" y2="118.50" stroke="#e2e8f0" stroke-width="1"/><text x="48" y="122.50" text-anchor="end" font-family="Arial, sans-serif" font-size="11" fill="#475569">36</text><line x1="58" y1="85.25" x2="540" y2="85.25" stroke="#e2e8f0" stroke-width="1"/><text x="48" y="89.25" text-anchor="end" font-family="Arial, sans-serif" font-size="11" fill="#475569">42</text><line x1="58" y1="52.00" x2="540" y2="52.00" stroke="#e2e8f0" stroke-width="1"/><text x="48" y="56.00" text-anchor="end" font-family="Arial, sans-serif" font-size="11" fill="#475569">48</text>
      <line x1="58" y1="318.00" x2="540" y2="318.00" stroke="#0f172a" stroke-width="1.8"/>
      <polyline points="118.25,2.13 119.97,7.80 121.69,13.42 123.41,18.98 125.14,24.49 126.86,29.95 128.58,35.35 130.30,40.69 132.02,45.99 133.74,51.23 135.46,56.41 137.19,61.54 138.91,66.62 140.63,71.64 142.35,76.61 144.07,81.52 145.79,86.38 147.51,91.18 149.24,95.93 150.96,100.63 152.68,105.27 154.40,109.85 156.12,114.39 157.84,118.87 159.56,123.29 161.29,127.66 163.01,131.98 164.73,136.24 166.45,140.45 168.17,144.60 169.89,148.70 171.61,152.74 173.34,156.73 175.06,160.67 176.78,164.55 178.50,168.38 180.22,172.15 181.94,175.87 183.66,179.53 185.39,183.14 187.11,186.70 188.83,190.20 190.55,193.64 192.27,197.04 193.99,200.38 195.71,203.66 197.44,206.89 199.16,210.07 200.88,213.19 202.60,216.26 204.32,219.27 206.04,222.23 207.76,225.13 209.49,227.98 211.21,230.78 212.93,233.52 214.65,236.20 216.37,238.84 218.09,241.42 219.81,243.94 221.54,246.41 223.26,248.83 224.98,251.19 226.70,253.50 228.42,255.75 230.14,257.95 231.86,260.09 233.59,262.18 235.31,264.22 237.03,266.20 238.75,268.13 240.47,270.00 242.19,271.82 243.91,273.58 245.64,275.29 247.36,276.95 249.08,278.55 250.80,280.09 252.52,281.59 254.24,283.03 255.96,284.41 257.69,285.74 259.41,287.02 261.13,288.24 262.85,289.41 264.57,290.52 266.29,291.58 268.01,292.58 269.74,293.53 271.46,294.43 273.18,295.27 274.90,296.06 276.62,296.79 278.34,297.47 280.06,298.09 281.79,298.66 283.51,299.18 285.23,299.64 286.95,300.05 288.67,300.40 290.39,300.70 292.11,300.94 293.84,301.13 295.56,301.27 297.28,301.35 299.00,301.38 300.72,301.35 302.44,301.27 304.16,301.13 305.89,300.94 307.61,300.70 309.33,300.40 311.05,300.05 312.77,299.64 314.49,299.18 316.21,298.66 317.94,298.09 319.66,297.47 321.38,296.79 323.10,296.06 324.82,295.27 326.54,294.43 328.26,293.53 329.99,292.58 331.71,291.58 333.43,290.52 335.15,289.41 336.87,288.24 338.59,287.02 340.31,285.74 342.04,284.41 343.76,283.03 345.48,281.59 347.20,280.09 348.92,278.55 350.64,276.95 352.36,275.29 354.09,273.58 355.81,271.82 357.53,270.00 359.25,268.13 360.97,266.20 362.69,264.22 364.41,262.18 366.14,260.09 367.86,257.95 369.58,255.75 371.30,253.50 373.02,251.19 374.74,248.83 376.46,246.41 378.19,243.94 379.91,241.42 381.63,238.84 383.35,236.21 385.07,233.52 386.79,230.78 388.51,227.98 390.24,225.13 391.96,222.23 393.68,219.27 395.40,216.25 397.12,213.19 398.84,210.07 400.56,206.89 402.29,203.66 404.01,200.38 405.73,197.04 407.45,193.64 409.17,190.20 410.89,186.70 412.61,183.14 414.34,179.53 416.06,175.87 417.78,172.15 419.50,168.38 421.22,164.55 422.94,160.67 424.66,156.73 426.39,152.74 428.11,148.70 429.83,144.60 431.55,140.45 433.27,136.24 434.99,131.98 436.71,127.66 438.44,123.29 440.16,118.87 441.88,114.39 443.60,109.86 445.32,105.27 447.04,100.63 448.76,95.93 450.49,91.18 452.21,86.38 453.93,81.52 455.65,76.60 457.37,71.64 459.09,66.62 460.81,61.54 462.54,56.41 464.26,51.23 465.98,45.99 467.70,40.69 469.42,35.35 471.14,29.95 472.86,24.49 474.59,18.98 476.31,13.42 478.03,7.80 479.75,2.13" fill="none" stroke="#2563eb" stroke-width="3" /><polyline points="195.71,8.23 197.44,17.92 199.16,27.45 200.88,36.81 202.60,46.02 204.32,55.05 206.04,63.93 207.76,72.64 209.49,81.19 211.21,89.58 212.93,97.80 214.65,105.86 216.37,113.76 218.09,121.50 219.81,129.07 221.54,136.48 223.26,143.73 224.98,150.81 226.70,157.74 228.42,164.49 230.14,171.09 231.86,177.52 233.59,183.79 235.31,189.90 237.03,195.84 238.75,201.63 240.47,207.24 242.19,212.70 243.91,217.99 245.64,223.12 247.36,228.09 249.08,232.89 250.80,237.53 252.52,242.01 254.24,246.33 255.96,250.48 257.69,254.47 259.41,258.30 261.13,261.96 262.85,265.47 264.57,268.80 266.29,271.98 268.01,274.99 269.74,277.84 271.46,280.53 273.18,283.05 274.90,285.41 276.62,287.61 278.34,289.65 280.06,291.52 281.79,293.23 283.51,294.78 285.23,296.16 286.95,297.39 288.67,298.44 290.39,299.34 292.11,300.07 293.84,300.64 295.56,301.05 297.28,301.29 299.00,301.38 300.72,301.29 302.44,301.05 304.16,300.64 305.89,300.07 307.61,299.34 309.33,298.44 311.05,297.39 312.77,296.16 314.49,294.78 316.21,293.23 317.94,291.52 319.66,289.65 321.38,287.61 323.10,285.41 324.82,283.05 326.54,280.53 328.26,277.84 329.99,274.99 331.71,271.98 333.43,268.80 335.15,265.47 336.87,261.96 338.59,258.30 340.31,254.47 342.04,250.48 343.76,246.33 345.48,242.01 347.20,237.53 348.92,232.89 350.64,228.09 352.36,223.12 354.09,217.99 355.81,212.70 357.53,207.24 359.25,201.63 360.97,195.84 362.69,189.90 364.41,183.79 366.14,177.52 367.86,171.09 369.58,164.49 371.30,157.74 373.02,150.81 374.74,143.73 376.46,136.48 378.19,129.07 379.91,121.50 381.63,113.76 383.35,105.87 385.07,97.80 386.79,89.58 388.51,81.19 390.24,72.64 391.96,63.93 393.68,55.05 395.40,46.01 397.12,36.81 398.84,27.45 400.56,17.92 402.29,8.23" fill="none" stroke="#dc2626" stroke-width="3" /><polyline points="58.00,35.38 59.72,39.16 61.44,42.92 63.16,46.65 64.89,50.36 66.61,54.04 68.33,57.69 70.05,61.31 71.77,64.91 73.49,68.48 75.21,72.02 76.94,75.53 78.66,79.02 80.38,82.48 82.10,85.92 83.82,89.32 85.54,92.70 87.26,96.05 88.99,99.38 90.71,102.68 92.43,105.95 94.15,109.19 95.87,112.41 97.59,115.60 99.31,118.76 101.04,121.89 102.76,125.00 104.48,128.08 106.20,131.14 107.92,134.16 109.64,137.16 111.36,140.13 113.09,143.08 114.81,146.00 116.53,148.89 118.25,151.75 119.97,154.59 121.69,157.40 123.41,160.18 125.14,162.93 126.86,165.66 128.58,168.36 130.30,171.03 132.02,173.68 133.74,176.30 135.46,178.89 137.19,181.46 138.91,184.00 140.63,186.51 142.35,188.99 144.07,191.45 145.79,193.88 147.51,196.28 149.24,198.65 150.96,201.00 152.68,203.32 154.40,205.61 156.12,207.88 157.84,210.12 159.56,212.33 161.29,214.52 163.01,216.68 164.73,218.81 166.45,220.91 168.17,222.99 169.89,225.04 171.61,227.06 173.34,229.05 175.06,231.02 176.78,232.96 178.50,234.88 180.22,236.76 181.94,238.62 183.66,240.45 185.39,242.26 187.11,244.04 188.83,245.79 190.55,247.51 192.27,249.21 193.99,250.88 195.71,252.52 197.44,254.13 199.16,255.72 200.88,257.28 202.60,258.81 204.32,260.32 206.04,261.80 207.76,263.25 209.49,264.68 211.21,266.08 212.93,267.45 214.65,268.79 216.37,270.11 218.09,271.40 219.81,272.66 221.54,273.89 223.26,275.10 224.98,276.28 226.70,277.44 228.42,278.56 230.14,279.66 231.86,280.73 233.59,281.78 235.31,282.80 237.03,283.79 238.75,284.75 240.47,285.69 242.19,286.60 243.91,287.48 245.64,288.33 247.36,289.16 249.08,289.96 250.80,290.73 252.52,291.48 254.24,292.20 255.96,292.89 257.69,293.56 259.41,294.20 261.13,294.81 262.85,295.39 264.57,295.95 266.29,296.48 268.01,296.98 269.74,297.45 271.46,297.90 273.18,298.32 274.90,298.71 276.62,299.08 278.34,299.42 280.06,299.73 281.79,300.02 283.51,300.28 285.23,300.51 286.95,300.71 288.67,300.89 290.39,301.04 292.11,301.16 293.84,301.25 295.56,301.32 297.28,301.36 299.00,301.38 300.72,301.36 302.44,301.32 304.16,301.25 305.89,301.16 307.61,301.04 309.33,300.89 311.05,300.71 312.77,300.51 314.49,300.28 316.21,300.02 317.94,299.73 319.66,299.42 321.38,299.08 323.10,298.71 324.82,298.32 326.54,297.90 328.26,297.45 329.99,296.98 331.71,296.48 333.43,295.95 335.15,295.39 336.87,294.81 338.59,294.20 340.31,293.56 342.04,292.89 343.76,292.20 345.48,291.48 347.20,290.73 348.92,289.96 350.64,289.16 352.36,288.33 354.09,287.48 355.81,286.60 357.53,285.69 359.25,284.75 360.97,283.79 362.69,282.80 364.41,281.78 366.14,280.73 367.86,279.66 369.58,278.56 371.30,277.44 373.02,276.28 374.74,275.10 376.46,273.89 378.19,272.66 379.91,271.40 381.63,270.11 383.35,268.79 385.07,267.45 386.79,266.08 388.51,264.68 390.24,263.25 391.96,261.80 393.68,260.32 395.40,258.81 397.12,257.28 398.84,255.72 400.56,254.13 402.29,252.52 404.01,250.88 405.73,249.21 407.45,247.51 409.17,245.79 410.89,244.04 412.61,242.26 414.34,240.45 416.06,238.62 417.78,236.76 419.50,234.88 421.22,232.96 422.94,231.02 424.66,229.05 426.39,227.06 428.11,225.04 429.83,222.99 431.55,220.91 433.27,218.81 434.99,216.68 436.71,214.52 438.44,212.33 440.16,210.12 441.88,207.88 443.60,205.62 445.32,203.32 447.04,201.00 448.76,198.65 450.49,196.28 452.21,193.88 453.93,191.45 455.65,188.99 457.37,186.51 459.09,184.00 460.81,181.46 462.54,178.89 464.26,176.30 465.98,173.68 467.70,171.03 469.42,168.36 471.14,165.66 472.86,162.93 474.59,160.18 476.31,157.40 478.03,154.59 479.75,151.75 481.47,148.89 483.19,146.00 484.91,143.08 486.64,140.13 488.36,137.16 490.08,134.16 491.80,131.14 493.52,128.08 495.24,125.00 496.96,121.89 498.69,118.76 500.41,115.60 502.13,112.41 503.85,109.19 505.57,105.95 507.29,102.68 509.01,99.38 510.74,96.05 512.46,92.70 514.18,89.32 515.90,85.91 517.62,82.48 519.34,79.02 521.06,75.53 522.79,72.02 524.51,68.48 526.23,64.91 527.95,61.31 529.67,57.69 531.39,54.04 533.11,50.36 534.84,46.65 536.56,42.92 538.28,39.16 540.00,35.38" fill="none" stroke="#059669" stroke-width="3" />
      
      
      <text x="280" y="348" text-anchor="middle" font-family="Arial, sans-serif" font-size="12" fill="#475569">All three graphs keep the same vertex and axis of symmetry.</text>
    </g>
  </g>
</svg>
