<?xml version="1.0" encoding="UTF-8"?>
<svg xmlns="http://www.w3.org/2000/svg" width="1200" height="620" viewBox="0 0 1200 620" fill="none">
<rect width="1200" height="620" fill="#f8fafc"/>
<rect x="24" y="24" width="552" height="572" rx="24" fill="#ffffff" stroke="#cbd5e1" stroke-width="2"/>
<rect x="624" y="24" width="552" height="572" rx="24" fill="#ffffff" stroke="#cbd5e1" stroke-width="2"/>

<text x="300" y="58" text-anchor="middle" font-family="Arial, sans-serif" font-size="28" font-weight="700" fill="#0f172a">Complex Plane Reference</text>
<text x="300" y="88" text-anchor="middle" font-family="Arial, sans-serif" font-size="14" fill="#475569">Plot a + bi as (a, b)</text>

<line x1="100" y1="310" x2="500" y2="310" stroke="#0f172a" stroke-width="2"/>
<line x1="300" y1="120" x2="300" y2="500" stroke="#0f172a" stroke-width="2"/>

<line x1="140" y1="130" x2="140" y2="490" stroke="#e2e8f0"/><line x1="180" y1="130" x2="180" y2="490" stroke="#e2e8f0"/><line x1="220" y1="130" x2="220" y2="490" stroke="#e2e8f0"/><line x1="260" y1="130" x2="260" y2="490" stroke="#e2e8f0"/><line x1="340" y1="130" x2="340" y2="490" stroke="#e2e8f0"/><line x1="380" y1="130" x2="380" y2="490" stroke="#e2e8f0"/><line x1="420" y1="130" x2="420" y2="490" stroke="#e2e8f0"/><line x1="460" y1="130" x2="460" y2="490" stroke="#e2e8f0"/>
<line x1="120" y1="150" x2="480" y2="150" stroke="#e2e8f0"/><line x1="120" y1="190" x2="480" y2="190" stroke="#e2e8f0"/><line x1="120" y1="230" x2="480" y2="230" stroke="#e2e8f0"/><line x1="120" y1="270" x2="480" y2="270" stroke="#e2e8f0"/><line x1="120" y1="350" x2="480" y2="350" stroke="#e2e8f0"/><line x1="120" y1="390" x2="480" y2="390" stroke="#e2e8f0"/><line x1="120" y1="430" x2="480" y2="430" stroke="#e2e8f0"/><line x1="120" y1="470" x2="480" y2="470" stroke="#e2e8f0"/>

<text x="492" y="302" font-family="Arial, sans-serif" font-size="13" fill="#475569">real</text>
<text x="312" y="142" font-family="Arial, sans-serif" font-size="13" fill="#475569">imaginary</text>

<text x="140" y="332" text-anchor="middle" font-family="Arial, sans-serif" font-size="11" fill="#64748b">-4</text>
<text x="180" y="332" text-anchor="middle" font-family="Arial, sans-serif" font-size="11" fill="#64748b">-3</text>
<text x="220" y="332" text-anchor="middle" font-family="Arial, sans-serif" font-size="11" fill="#64748b">-2</text>
<text x="260" y="332" text-anchor="middle" font-family="Arial, sans-serif" font-size="11" fill="#64748b">-1</text>
<text x="340" y="332" text-anchor="middle" font-family="Arial, sans-serif" font-size="11" fill="#64748b">1</text>
<text x="380" y="332" text-anchor="middle" font-family="Arial, sans-serif" font-size="11" fill="#64748b">2</text>
<text x="420" y="332" text-anchor="middle" font-family="Arial, sans-serif" font-size="11" fill="#64748b">3</text>
<text x="460" y="332" text-anchor="middle" font-family="Arial, sans-serif" font-size="11" fill="#64748b">4</text>

<text x="286" y="474" text-anchor="end" font-family="Arial, sans-serif" font-size="11" fill="#64748b">-4i</text>
<text x="286" y="434" text-anchor="end" font-family="Arial, sans-serif" font-size="11" fill="#64748b">-3i</text>
<text x="286" y="394" text-anchor="end" font-family="Arial, sans-serif" font-size="11" fill="#64748b">-2i</text>
<text x="286" y="354" text-anchor="end" font-family="Arial, sans-serif" font-size="11" fill="#64748b">-i</text>
<text x="286" y="274" text-anchor="end" font-family="Arial, sans-serif" font-size="11" fill="#64748b">i</text>
<text x="286" y="234" text-anchor="end" font-family="Arial, sans-serif" font-size="11" fill="#64748b">2i</text>
<text x="286" y="194" text-anchor="end" font-family="Arial, sans-serif" font-size="11" fill="#64748b">3i</text>
<text x="286" y="154" text-anchor="end" font-family="Arial, sans-serif" font-size="11" fill="#64748b">4i</text>

<circle cx="420" cy="230" r="7" fill="#2563eb"/><text x="432" y="224" font-family="Arial, sans-serif" font-size="13" fill="#1d4ed8">3 + 2i</text>
<circle cx="220" cy="470" r="7" fill="#dc2626"/><text x="144" y="464" font-family="Arial, sans-serif" font-size="13" fill="#b91c1c">-2 - 4i</text>
<circle cx="380" cy="350" r="7" fill="#0891b2"/><text x="390" y="346" font-family="Arial, sans-serif" font-size="13" fill="#0f766e">2 - i</text>
<circle cx="460" cy="310" r="7" fill="#7c3aed"/><text x="472" y="306" font-family="Arial, sans-serif" font-size="13" fill="#6d28d9">4</text>
<circle cx="300" cy="430" r="7" fill="#f59e0b"/><text x="312" y="426" font-family="Arial, sans-serif" font-size="13" fill="#b45309">-3i</text>
<circle cx="340" cy="150" r="7" fill="#16a34a"/><text x="352" y="144" font-family="Arial, sans-serif" font-size="13" fill="#15803d">1 + 4i</text>

<text x="900" y="58" text-anchor="middle" font-family="Arial, sans-serif" font-size="28" font-weight="700" fill="#0f172a">Geometry on the Plane</text>
<text x="900" y="88" text-anchor="middle" font-family="Arial, sans-serif" font-size="14" fill="#475569">Distance and area questions become coordinate geometry</text>

<line x1="700" y1="310" x2="1100" y2="310" stroke="#0f172a" stroke-width="2"/>
<line x1="900" y1="120" x2="900" y2="500" stroke="#0f172a" stroke-width="2"/>
<line x1="740" y1="130" x2="740" y2="490" stroke="#e2e8f0"/><line x1="780" y1="130" x2="780" y2="490" stroke="#e2e8f0"/><line x1="820" y1="130" x2="820" y2="490" stroke="#e2e8f0"/><line x1="860" y1="130" x2="860" y2="490" stroke="#e2e8f0"/><line x1="940" y1="130" x2="940" y2="490" stroke="#e2e8f0"/><line x1="980" y1="130" x2="980" y2="490" stroke="#e2e8f0"/><line x1="1020" y1="130" x2="1020" y2="490" stroke="#e2e8f0"/><line x1="1060" y1="130" x2="1060" y2="490" stroke="#e2e8f0"/>
<line x1="720" y1="150" x2="1080" y2="150" stroke="#e2e8f0"/><line x1="720" y1="190" x2="1080" y2="190" stroke="#e2e8f0"/><line x1="720" y1="230" x2="1080" y2="230" stroke="#e2e8f0"/><line x1="720" y1="270" x2="1080" y2="270" stroke="#e2e8f0"/><line x1="720" y1="350" x2="1080" y2="350" stroke="#e2e8f0"/><line x1="720" y1="390" x2="1080" y2="390" stroke="#e2e8f0"/><line x1="720" y1="430" x2="1080" y2="430" stroke="#e2e8f0"/><line x1="720" y1="470" x2="1080" y2="470" stroke="#e2e8f0"/>

<line x1="980" y1="430" x2="1080" y2="190" stroke="#94a3b8" stroke-width="3" stroke-dasharray="10 8"/>
<line x1="780" y1="390" x2="1100" y2="470" stroke="#94a3b8" stroke-width="3" stroke-dasharray="10 8"/>
<circle cx="980" cy="430" r="7" fill="#dc2626"/><text x="992" y="425" font-family="Arial, sans-serif" font-size="13" fill="#b91c1c">2 - 3i</text>
<circle cx="1080" cy="190" r="7" fill="#2563eb"/><text x="990" y="184" font-family="Arial, sans-serif" font-size="13" fill="#1d4ed8">5 + 3i</text>
<circle cx="780" cy="390" r="7" fill="#16a34a"/><text x="714" y="384" font-family="Arial, sans-serif" font-size="13" fill="#15803d">-3 - 2i</text>

<text x="900" y="540" text-anchor="middle" font-family="Arial, sans-serif" font-size="14" fill="#334155">Distance example: from 2 - 4i to 7 + 3i the change is (5, 7), so d = sqrt(74)</text>
<text x="900" y="566" text-anchor="middle" font-family="Arial, sans-serif" font-size="14" fill="#334155">Triangle example: base 8 and height 6, so area = 24</text>
</svg>
